G04 Layer_Physical_Order=3*
G04 Layer_Color=16440176*
%FSLAX25Y25*%
%MOIN*%
G70*
G01*
G75*
%ADD24C,0.01000*%
%ADD26C,0.02000*%
%ADD29C,0.05905*%
%ADD30R,0.05905X0.05905*%
%ADD35R,0.05905X0.05905*%
%ADD37O,0.19685X0.09842*%
%ADD39C,0.02000*%
%ADD41C,0.05000*%
%ADD42C,0.03000*%
%ADD43C,0.08000*%
G36*
X490597Y1529D02*
X1529D01*
Y274061D01*
X62137D01*
X62234Y273571D01*
X61992Y273470D01*
X60536Y272578D01*
X59239Y271470D01*
X58130Y270172D01*
X57239Y268717D01*
X56585Y267140D01*
X56187Y265481D01*
X56053Y263779D01*
X56187Y262078D01*
X56585Y260419D01*
X57239Y258842D01*
X58130Y257387D01*
X59239Y256089D01*
X60536Y254981D01*
X61992Y254089D01*
X63568Y253436D01*
X65228Y253037D01*
X66929Y252904D01*
X68630Y253037D01*
X70290Y253436D01*
X71867Y254089D01*
X73322Y254981D01*
X74620Y256089D01*
X75728Y257387D01*
X76620Y258842D01*
X77273Y260419D01*
X77671Y262078D01*
X77805Y263779D01*
X77671Y265481D01*
X77273Y267140D01*
X76620Y268717D01*
X75728Y270172D01*
X74620Y271470D01*
X73322Y272578D01*
X71867Y273470D01*
X71624Y273571D01*
X71721Y274061D01*
X420405D01*
X420502Y273571D01*
X420259Y273470D01*
X418804Y272578D01*
X417506Y271470D01*
X416398Y270172D01*
X415506Y268717D01*
X414853Y267140D01*
X414455Y265481D01*
X414321Y263779D01*
X414455Y262078D01*
X414853Y260419D01*
X415506Y258842D01*
X416398Y257387D01*
X417506Y256089D01*
X418804Y254981D01*
X420259Y254089D01*
X421836Y253436D01*
X423495Y253037D01*
X425197Y252904D01*
X426898Y253037D01*
X428558Y253436D01*
X430134Y254089D01*
X431590Y254981D01*
X432887Y256089D01*
X433996Y257387D01*
X434888Y258842D01*
X435541Y260419D01*
X435939Y262078D01*
X436073Y263779D01*
X435939Y265481D01*
X435541Y267140D01*
X434888Y268717D01*
X433996Y270172D01*
X432887Y271470D01*
X431590Y272578D01*
X430134Y273470D01*
X429892Y273571D01*
X429989Y274061D01*
X490597D01*
Y1529D01*
D02*
G37*
%LPC*%
G36*
X38700Y145939D02*
X37920Y145784D01*
X37258Y145342D01*
X36816Y144680D01*
X36661Y143900D01*
X36816Y143120D01*
X37258Y142458D01*
X37920Y142016D01*
X38700Y141861D01*
X39480Y142016D01*
X40142Y142458D01*
X40584Y143120D01*
X40739Y143900D01*
X40584Y144680D01*
X40142Y145342D01*
X39480Y145784D01*
X38700Y145939D01*
D02*
G37*
G36*
X31300Y142700D02*
X30563D01*
X30858Y142258D01*
X31300Y141963D01*
Y142700D01*
D02*
G37*
G36*
X98200Y147039D02*
X97420Y146884D01*
X96758Y146442D01*
X96316Y145780D01*
X96161Y145000D01*
X96316Y144220D01*
X96758Y143558D01*
X97420Y143116D01*
X98200Y142961D01*
X98980Y143116D01*
X99642Y143558D01*
X100084Y144220D01*
X100239Y145000D01*
X100084Y145780D01*
X99642Y146442D01*
X98980Y146884D01*
X98200Y147039D01*
D02*
G37*
G36*
X34037Y142700D02*
X33300D01*
Y141963D01*
X33742Y142258D01*
X34037Y142700D01*
D02*
G37*
G36*
X369500Y42539D02*
X368720Y42384D01*
X368058Y41942D01*
X367616Y41280D01*
X367461Y40500D01*
X367616Y39720D01*
X368058Y39058D01*
X368720Y38616D01*
X369500Y38461D01*
X370280Y38616D01*
X370942Y39058D01*
X371384Y39720D01*
X371539Y40500D01*
X371384Y41280D01*
X370942Y41942D01*
X370280Y42384D01*
X369500Y42539D01*
D02*
G37*
G36*
X105000Y141139D02*
X104220Y140984D01*
X103558Y140542D01*
X103116Y139880D01*
X102961Y139100D01*
X103116Y138320D01*
X103558Y137658D01*
X104220Y137216D01*
X105000Y137061D01*
X105780Y137216D01*
X106442Y137658D01*
X106884Y138320D01*
X107039Y139100D01*
X106884Y139880D01*
X106442Y140542D01*
X105780Y140984D01*
X105000Y141139D01*
D02*
G37*
G36*
X16200Y146691D02*
X15322Y146576D01*
X14504Y146237D01*
X13802Y145698D01*
X13263Y144996D01*
X12924Y144178D01*
X12809Y143300D01*
X12924Y142422D01*
X13263Y141604D01*
X13802Y140902D01*
X14504Y140363D01*
X15322Y140024D01*
X16200Y139909D01*
X17078Y140024D01*
X17896Y140363D01*
X18598Y140902D01*
X19137Y141604D01*
X19476Y142422D01*
X19591Y143300D01*
X19476Y144178D01*
X19137Y144996D01*
X18598Y145698D01*
X17896Y146237D01*
X17078Y146576D01*
X16200Y146691D01*
D02*
G37*
G36*
X216200Y37849D02*
X215225Y37655D01*
X214398Y37102D01*
X213845Y36276D01*
X213651Y35300D01*
X213845Y34324D01*
X214398Y33498D01*
X215225Y32945D01*
X216200Y32751D01*
X217176Y32945D01*
X218002Y33498D01*
X218555Y34324D01*
X218749Y35300D01*
X218555Y36276D01*
X218002Y37102D01*
X217176Y37655D01*
X216200Y37849D01*
D02*
G37*
G36*
X15700Y44191D02*
X14822Y44076D01*
X14004Y43737D01*
X13302Y43198D01*
X12763Y42496D01*
X12424Y41678D01*
X12309Y40800D01*
X12424Y39922D01*
X12763Y39104D01*
X13302Y38402D01*
X14004Y37863D01*
X14822Y37524D01*
X15700Y37409D01*
X16578Y37524D01*
X17396Y37863D01*
X18098Y38402D01*
X18637Y39104D01*
X18976Y39922D01*
X19091Y40800D01*
X18976Y41678D01*
X18637Y42496D01*
X18098Y43198D01*
X17396Y43737D01*
X16578Y44076D01*
X15700Y44191D01*
D02*
G37*
G36*
X223000Y147139D02*
X222220Y146984D01*
X221558Y146542D01*
X221116Y145880D01*
X220961Y145100D01*
X221116Y144320D01*
X221558Y143658D01*
X222220Y143216D01*
X223000Y143061D01*
X223780Y143216D01*
X224442Y143658D01*
X224884Y144320D01*
X225039Y145100D01*
X224884Y145880D01*
X224442Y146542D01*
X223780Y146984D01*
X223000Y147139D01*
D02*
G37*
G36*
X33300Y145437D02*
Y144700D01*
X34037D01*
X33742Y145142D01*
X33300Y145437D01*
D02*
G37*
G36*
X31300D02*
X30858Y145142D01*
X30563Y144700D01*
X31300D01*
Y145437D01*
D02*
G37*
G36*
X482939Y30892D02*
X482025Y30771D01*
X481174Y30419D01*
X480442Y29858D01*
X479881Y29127D01*
X479529Y28275D01*
X479408Y27361D01*
X479529Y26448D01*
X479881Y25596D01*
X480442Y24865D01*
X481174Y24304D01*
X482025Y23952D01*
X482939Y23831D01*
X483852Y23952D01*
X484704Y24304D01*
X485435Y24865D01*
X485996Y25596D01*
X486348Y26448D01*
X486469Y27361D01*
X486348Y28275D01*
X485996Y29127D01*
X485435Y29858D01*
X484704Y30419D01*
X483852Y30771D01*
X482939Y30892D01*
D02*
G37*
G36*
X284300Y152891D02*
X283422Y152776D01*
X282604Y152437D01*
X281902Y151898D01*
X281363Y151196D01*
X281024Y150378D01*
X280909Y149500D01*
X281024Y148622D01*
X281363Y147804D01*
X281902Y147102D01*
X282604Y146563D01*
X283422Y146224D01*
X284300Y146109D01*
X285178Y146224D01*
X285996Y146563D01*
X286698Y147102D01*
X287237Y147804D01*
X287576Y148622D01*
X287691Y149500D01*
X287576Y150378D01*
X287237Y151196D01*
X286698Y151898D01*
X285996Y152437D01*
X285178Y152776D01*
X284300Y152891D01*
D02*
G37*
G36*
X182000Y148739D02*
X181220Y148584D01*
X180558Y148142D01*
X180116Y147480D01*
X179961Y146700D01*
X180116Y145920D01*
X180558Y145258D01*
X181220Y144816D01*
X182000Y144661D01*
X182780Y144816D01*
X183442Y145258D01*
X183884Y145920D01*
X184039Y146700D01*
X183884Y147480D01*
X183442Y148142D01*
X182780Y148584D01*
X182000Y148739D01*
D02*
G37*
G36*
X5700Y34191D02*
X4822Y34076D01*
X4004Y33737D01*
X3302Y33198D01*
X2763Y32496D01*
X2424Y31678D01*
X2309Y30800D01*
X2424Y29922D01*
X2763Y29104D01*
X3302Y28402D01*
X4004Y27863D01*
X4822Y27524D01*
X5700Y27409D01*
X6578Y27524D01*
X7396Y27863D01*
X8098Y28402D01*
X8637Y29104D01*
X8976Y29922D01*
X9091Y30800D01*
X8976Y31678D01*
X8637Y32496D01*
X8098Y33198D01*
X7396Y33737D01*
X6578Y34076D01*
X5700Y34191D01*
D02*
G37*
G36*
X317100Y36349D02*
X316125Y36155D01*
X315298Y35602D01*
X314745Y34776D01*
X314551Y33800D01*
X314745Y32825D01*
X315298Y31998D01*
X316125Y31445D01*
X317100Y31251D01*
X318075Y31445D01*
X318902Y31998D01*
X319455Y32825D01*
X319649Y33800D01*
X319455Y34776D01*
X318902Y35602D01*
X318075Y36155D01*
X317100Y36349D01*
D02*
G37*
G36*
X106537Y144600D02*
X105800D01*
Y143863D01*
X106242Y144158D01*
X106537Y144600D01*
D02*
G37*
G36*
X103800D02*
X103063D01*
X103358Y144158D01*
X103800Y143863D01*
Y144600D01*
D02*
G37*
G36*
X40537Y39800D02*
X39800D01*
Y39063D01*
X40242Y39358D01*
X40537Y39800D01*
D02*
G37*
G36*
X31900Y43339D02*
X31120Y43184D01*
X30458Y42742D01*
X30016Y42080D01*
X29861Y41300D01*
X30016Y40520D01*
X30458Y39858D01*
X31120Y39416D01*
X31900Y39261D01*
X32680Y39416D01*
X33342Y39858D01*
X33784Y40520D01*
X33939Y41300D01*
X33784Y42080D01*
X33342Y42742D01*
X32680Y43184D01*
X31900Y43339D01*
D02*
G37*
G36*
X117900Y133539D02*
X117120Y133384D01*
X116458Y132942D01*
X116016Y132280D01*
X115861Y131500D01*
X116016Y130720D01*
X116458Y130058D01*
X117120Y129616D01*
X117900Y129461D01*
X118680Y129616D01*
X119342Y130058D01*
X119784Y130720D01*
X119939Y131500D01*
X119784Y132280D01*
X119342Y132942D01*
X118680Y133384D01*
X117900Y133539D01*
D02*
G37*
G36*
X66500Y130237D02*
Y129500D01*
X67237D01*
X66942Y129942D01*
X66500Y130237D01*
D02*
G37*
G36*
X64500D02*
X64058Y129942D01*
X63763Y129500D01*
X64500D01*
Y130237D01*
D02*
G37*
G36*
Y127500D02*
X63763D01*
X64058Y127058D01*
X64500Y126763D01*
Y127500D01*
D02*
G37*
G36*
X77100Y130539D02*
X76320Y130384D01*
X75658Y129942D01*
X75216Y129280D01*
X75061Y128500D01*
X75216Y127720D01*
X75658Y127058D01*
X76320Y126616D01*
X77100Y126461D01*
X77880Y126616D01*
X78542Y127058D01*
X78984Y127720D01*
X79139Y128500D01*
X78984Y129280D01*
X78542Y129942D01*
X77880Y130384D01*
X77100Y130539D01*
D02*
G37*
G36*
X67237Y127500D02*
X66500D01*
Y126763D01*
X66942Y127058D01*
X67237Y127500D01*
D02*
G37*
G36*
X215937D02*
X215200D01*
Y126763D01*
X215642Y127058D01*
X215937Y127500D01*
D02*
G37*
G36*
X213200D02*
X212463D01*
X212758Y127058D01*
X213200Y126763D01*
Y127500D01*
D02*
G37*
G36*
X294500Y137239D02*
X293720Y137084D01*
X293058Y136642D01*
X292616Y135980D01*
X292461Y135200D01*
X292616Y134420D01*
X293058Y133758D01*
X293720Y133316D01*
X294500Y133161D01*
X295280Y133316D01*
X295942Y133758D01*
X296384Y134420D01*
X296539Y135200D01*
X296384Y135980D01*
X295942Y136642D01*
X295280Y137084D01*
X294500Y137239D01*
D02*
G37*
G36*
X221000Y134537D02*
X220558Y134242D01*
X220116Y133580D01*
X220055Y133274D01*
X219542Y133142D01*
X218880Y133584D01*
X218100Y133739D01*
X217320Y133584D01*
X216658Y133142D01*
X216216Y132480D01*
X216061Y131700D01*
X216216Y130920D01*
X216658Y130258D01*
X217320Y129816D01*
X218100Y129661D01*
X218880Y129816D01*
X219542Y130258D01*
X219984Y130920D01*
X220045Y131226D01*
X220558Y131358D01*
X221000Y131063D01*
Y132800D01*
Y134537D01*
D02*
G37*
G36*
X225600Y135039D02*
X224820Y134884D01*
X224158Y134442D01*
X223983Y134180D01*
X223483D01*
X223442Y134242D01*
X223000Y134537D01*
Y132800D01*
Y131063D01*
X223442Y131358D01*
X223617Y131620D01*
X224117D01*
X224158Y131558D01*
X224820Y131116D01*
X225600Y130961D01*
X226380Y131116D01*
X227042Y131558D01*
X227484Y132220D01*
X227639Y133000D01*
X227484Y133780D01*
X227042Y134442D01*
X226380Y134884D01*
X225600Y135039D01*
D02*
G37*
G36*
X53300Y140139D02*
X52520Y139984D01*
X51858Y139542D01*
X51416Y138880D01*
X51261Y138100D01*
X51416Y137320D01*
X51858Y136658D01*
X52520Y136216D01*
X53300Y136061D01*
X54080Y136216D01*
X54742Y136658D01*
X55184Y137320D01*
X55339Y138100D01*
X55184Y138880D01*
X54742Y139542D01*
X54080Y139984D01*
X53300Y140139D01*
D02*
G37*
G36*
X392700Y43139D02*
X391920Y42984D01*
X391258Y42542D01*
X390816Y41880D01*
X390661Y41100D01*
X390816Y40320D01*
X391258Y39658D01*
X391920Y39216D01*
X392700Y39061D01*
X393480Y39216D01*
X394142Y39658D01*
X394584Y40320D01*
X394739Y41100D01*
X394584Y41880D01*
X394142Y42542D01*
X393480Y42984D01*
X392700Y43139D01*
D02*
G37*
G36*
X215200Y130237D02*
Y129500D01*
X215937D01*
X215642Y129942D01*
X215200Y130237D01*
D02*
G37*
G36*
X213200D02*
X212758Y129942D01*
X212463Y129500D01*
X213200D01*
Y130237D01*
D02*
G37*
G36*
X37800Y39800D02*
X37063D01*
X37358Y39358D01*
X37800Y39063D01*
Y39800D01*
D02*
G37*
G36*
X124200Y135739D02*
X123420Y135584D01*
X122758Y135142D01*
X122316Y134480D01*
X122161Y133700D01*
X122316Y132920D01*
X122758Y132258D01*
X123420Y131816D01*
X124200Y131661D01*
X124980Y131816D01*
X125642Y132258D01*
X126084Y132920D01*
X126239Y133700D01*
X126084Y134480D01*
X125642Y135142D01*
X124980Y135584D01*
X124200Y135739D01*
D02*
G37*
G36*
X327500Y134639D02*
X326720Y134484D01*
X326058Y134042D01*
X325616Y133380D01*
X325461Y132600D01*
X325616Y131820D01*
X326058Y131158D01*
X326720Y130716D01*
X327500Y130561D01*
X328280Y130716D01*
X328942Y131158D01*
X329384Y131820D01*
X329539Y132600D01*
X329384Y133380D01*
X328942Y134042D01*
X328280Y134484D01*
X327500Y134639D01*
D02*
G37*
G36*
X103800Y147337D02*
X103358Y147042D01*
X103063Y146600D01*
X103800D01*
Y147337D01*
D02*
G37*
G36*
X358400Y164400D02*
X356026D01*
X356343Y163635D01*
X356904Y162904D01*
X357635Y162343D01*
X358400Y162026D01*
Y164400D01*
D02*
G37*
G36*
X66929Y38435D02*
X65228Y38301D01*
X63568Y37903D01*
X61992Y37250D01*
X60536Y36358D01*
X59239Y35250D01*
X58130Y33952D01*
X57239Y32497D01*
X56585Y30920D01*
X56187Y29260D01*
X56053Y27559D01*
X56187Y25858D01*
X56585Y24198D01*
X57239Y22621D01*
X58130Y21166D01*
X59239Y19869D01*
X60536Y18760D01*
X61992Y17868D01*
X63568Y17215D01*
X65228Y16817D01*
X66929Y16683D01*
X68630Y16817D01*
X70290Y17215D01*
X71867Y17868D01*
X73322Y18760D01*
X74620Y19869D01*
X75728Y21166D01*
X76620Y22621D01*
X77273Y24198D01*
X77671Y25858D01*
X77805Y27559D01*
X77671Y29260D01*
X77273Y30920D01*
X76620Y32497D01*
X75728Y33952D01*
X74620Y35250D01*
X73322Y36358D01*
X71867Y37250D01*
X70290Y37903D01*
X68630Y38301D01*
X66929Y38435D01*
D02*
G37*
G36*
X362774Y164400D02*
X360400D01*
Y162026D01*
X361165Y162343D01*
X361896Y162904D01*
X362457Y163635D01*
X362774Y164400D01*
D02*
G37*
G36*
X194100Y15055D02*
Y12200D01*
X196955D01*
X196951Y12232D01*
X196553Y13193D01*
X195919Y14019D01*
X195093Y14653D01*
X194132Y15051D01*
X194100Y15055D01*
D02*
G37*
G36*
X248000D02*
Y12200D01*
X250855D01*
X250851Y12232D01*
X250453Y13193D01*
X249819Y14019D01*
X248993Y14653D01*
X248032Y15051D01*
X248000Y15055D01*
D02*
G37*
G36*
X425197Y38435D02*
X423495Y38301D01*
X421836Y37903D01*
X420259Y37250D01*
X418804Y36358D01*
X417506Y35250D01*
X416398Y33952D01*
X415506Y32497D01*
X414853Y30920D01*
X414455Y29260D01*
X414321Y27559D01*
X414455Y25858D01*
X414853Y24198D01*
X415506Y22621D01*
X416398Y21166D01*
X417506Y19869D01*
X418804Y18760D01*
X420259Y17868D01*
X421836Y17215D01*
X423495Y16817D01*
X425197Y16683D01*
X426898Y16817D01*
X428558Y17215D01*
X430134Y17868D01*
X431590Y18760D01*
X432887Y19869D01*
X433996Y21166D01*
X434888Y22621D01*
X435541Y24198D01*
X435939Y25858D01*
X436073Y27559D01*
X435939Y29260D01*
X435541Y30920D01*
X434888Y32497D01*
X433996Y33952D01*
X432887Y35250D01*
X431590Y36358D01*
X430134Y37250D01*
X428558Y37903D01*
X426898Y38301D01*
X425197Y38435D01*
D02*
G37*
G36*
X173100Y25187D02*
X172068Y25051D01*
X171107Y24653D01*
X170281Y24019D01*
X169647Y23193D01*
X169249Y22232D01*
X169113Y21200D01*
X169249Y20168D01*
X169647Y19207D01*
X170281Y18381D01*
X171107Y17747D01*
X172068Y17349D01*
X173100Y17213D01*
X174132Y17349D01*
X175093Y17747D01*
X175919Y18381D01*
X176553Y19207D01*
X176951Y20168D01*
X177087Y21200D01*
X176951Y22232D01*
X176553Y23193D01*
X175919Y24019D01*
X175093Y24653D01*
X174132Y25051D01*
X173100Y25187D01*
D02*
G37*
G36*
X18562Y166682D02*
X13838D01*
X13448Y166604D01*
X13117Y166383D01*
X12896Y166052D01*
X12818Y165662D01*
Y160938D01*
X12896Y160548D01*
X13117Y160217D01*
X13448Y159996D01*
X13838Y159918D01*
X18562D01*
X18952Y159996D01*
X19283Y160217D01*
X19504Y160548D01*
X19582Y160938D01*
Y165662D01*
X19504Y166052D01*
X19283Y166383D01*
X18952Y166604D01*
X18562Y166682D01*
D02*
G37*
G36*
X176000Y165539D02*
X175220Y165384D01*
X174558Y164942D01*
X174116Y164280D01*
X173961Y163500D01*
X174116Y162720D01*
X174558Y162058D01*
X175220Y161616D01*
X176000Y161461D01*
X176780Y161616D01*
X177442Y162058D01*
X177884Y162720D01*
X178039Y163500D01*
X177884Y164280D01*
X177442Y164942D01*
X176780Y165384D01*
X176000Y165539D01*
D02*
G37*
G36*
X81400Y164339D02*
X80620Y164184D01*
X79958Y163742D01*
X79516Y163080D01*
X79361Y162300D01*
X79516Y161520D01*
X79958Y160858D01*
X80620Y160416D01*
X81400Y160261D01*
X82180Y160416D01*
X82842Y160858D01*
X83284Y161520D01*
X83439Y162300D01*
X83284Y163080D01*
X82842Y163742D01*
X82180Y164184D01*
X81400Y164339D01*
D02*
G37*
G36*
X284300Y172891D02*
X283422Y172776D01*
X282604Y172437D01*
X281902Y171898D01*
X281363Y171196D01*
X281024Y170378D01*
X280909Y169500D01*
X281024Y168622D01*
X281363Y167804D01*
X281902Y167102D01*
X282604Y166563D01*
X283422Y166224D01*
X284300Y166109D01*
X285178Y166224D01*
X285996Y166563D01*
X286698Y167102D01*
X287237Y167804D01*
X287576Y168622D01*
X287691Y169500D01*
X287576Y170378D01*
X287237Y171196D01*
X286698Y171898D01*
X285996Y172437D01*
X285178Y172776D01*
X284300Y172891D01*
D02*
G37*
G36*
X192100Y15055D02*
X192068Y15051D01*
X191107Y14653D01*
X190281Y14019D01*
X189647Y13193D01*
X189249Y12232D01*
X189245Y12200D01*
X192100D01*
Y15055D01*
D02*
G37*
G36*
X358400Y168774D02*
X357635Y168457D01*
X356904Y167896D01*
X356343Y167165D01*
X356026Y166400D01*
X358400D01*
Y168774D01*
D02*
G37*
G36*
X198200Y171039D02*
X197420Y170884D01*
X196758Y170442D01*
X196316Y169780D01*
X196161Y169000D01*
X196316Y168220D01*
X196758Y167558D01*
X197420Y167116D01*
X198200Y166961D01*
X198980Y167116D01*
X199642Y167558D01*
X200084Y168220D01*
X200239Y169000D01*
X200084Y169780D01*
X199642Y170442D01*
X198980Y170884D01*
X198200Y171039D01*
D02*
G37*
G36*
X360400Y168774D02*
Y166400D01*
X362774D01*
X362457Y167165D01*
X361896Y167896D01*
X361165Y168457D01*
X360400Y168774D01*
D02*
G37*
G36*
X246000Y15055D02*
X245968Y15051D01*
X245007Y14653D01*
X244181Y14019D01*
X243547Y13193D01*
X243149Y12232D01*
X243145Y12200D01*
X246000D01*
Y15055D01*
D02*
G37*
G36*
X192000Y163237D02*
Y162500D01*
X192737D01*
X192442Y162942D01*
X192000Y163237D01*
D02*
G37*
G36*
X326600Y171039D02*
X325820Y170884D01*
X325158Y170442D01*
X324716Y169780D01*
X324561Y169000D01*
X324716Y168220D01*
X325158Y167558D01*
X325820Y167116D01*
X326101Y167060D01*
X326164Y166807D01*
X326154Y166540D01*
X325558Y166142D01*
X325116Y165480D01*
X324961Y164700D01*
X325116Y163920D01*
X325558Y163258D01*
X326220Y162816D01*
X327000Y162661D01*
X327780Y162816D01*
X328442Y163258D01*
X328884Y163920D01*
X329039Y164700D01*
X328884Y165480D01*
X328442Y166142D01*
X327780Y166584D01*
X327499Y166640D01*
X327436Y166893D01*
X327446Y167160D01*
X328042Y167558D01*
X328484Y168220D01*
X328639Y169000D01*
X328484Y169780D01*
X328042Y170442D01*
X327380Y170884D01*
X326600Y171039D01*
D02*
G37*
G36*
X95700Y167539D02*
X94920Y167384D01*
X94258Y166942D01*
X93816Y166280D01*
X93661Y165500D01*
X93816Y164720D01*
X94258Y164058D01*
X94920Y163616D01*
X95700Y163461D01*
X96480Y163616D01*
X97142Y164058D01*
X97584Y164720D01*
X97739Y165500D01*
X97584Y166280D01*
X97142Y166942D01*
X96480Y167384D01*
X95700Y167539D01*
D02*
G37*
G36*
X333200Y166839D02*
X332420Y166684D01*
X331758Y166242D01*
X331316Y165580D01*
X331161Y164800D01*
X331316Y164020D01*
X331758Y163358D01*
X332420Y162916D01*
X333200Y162761D01*
X333980Y162916D01*
X334642Y163358D01*
X335084Y164020D01*
X335239Y164800D01*
X335084Y165580D01*
X334642Y166242D01*
X333980Y166684D01*
X333200Y166839D01*
D02*
G37*
G36*
X56200Y155339D02*
X55420Y155184D01*
X54758Y154742D01*
X54316Y154080D01*
X54161Y153300D01*
X54316Y152520D01*
X54758Y151858D01*
X55420Y151416D01*
X56200Y151261D01*
X56980Y151416D01*
X57642Y151858D01*
X58084Y152520D01*
X58239Y153300D01*
X58084Y154080D01*
X57642Y154742D01*
X56980Y155184D01*
X56200Y155339D01*
D02*
G37*
G36*
X216837Y151600D02*
X216100D01*
Y150863D01*
X216542Y151158D01*
X216837Y151600D01*
D02*
G37*
G36*
X244900Y155539D02*
X244120Y155384D01*
X243458Y154942D01*
X243016Y154280D01*
X242861Y153500D01*
X243016Y152720D01*
X243458Y152058D01*
X244120Y151616D01*
X244900Y151461D01*
X245680Y151616D01*
X246342Y152058D01*
X246784Y152720D01*
X246939Y153500D01*
X246784Y154280D01*
X246342Y154942D01*
X245680Y155384D01*
X244900Y155539D01*
D02*
G37*
G36*
X18062Y24182D02*
X13338D01*
X12948Y24104D01*
X12617Y23883D01*
X12396Y23552D01*
X12318Y23162D01*
Y18438D01*
X12396Y18048D01*
X12617Y17717D01*
X12948Y17496D01*
X13338Y17418D01*
X18062D01*
X18452Y17496D01*
X18783Y17717D01*
X19004Y18048D01*
X19082Y18438D01*
Y23162D01*
X19004Y23552D01*
X18783Y23883D01*
X18452Y24104D01*
X18062Y24182D01*
D02*
G37*
G36*
X50900Y22839D02*
X50120Y22684D01*
X49458Y22242D01*
X49016Y21580D01*
X48861Y20800D01*
X49016Y20020D01*
X49458Y19358D01*
X50120Y18916D01*
X50900Y18761D01*
X51680Y18916D01*
X52342Y19358D01*
X52784Y20020D01*
X52939Y20800D01*
X52784Y21580D01*
X52342Y22242D01*
X51680Y22684D01*
X50900Y22839D01*
D02*
G37*
G36*
X26200Y156691D02*
X25322Y156576D01*
X24504Y156237D01*
X23802Y155698D01*
X23263Y154996D01*
X22924Y154178D01*
X22809Y153300D01*
X22924Y152422D01*
X23263Y151604D01*
X23802Y150902D01*
X24504Y150363D01*
X25322Y150024D01*
X26200Y149909D01*
X27078Y150024D01*
X27896Y150363D01*
X28598Y150902D01*
X29137Y151604D01*
X29476Y152422D01*
X29591Y153300D01*
X29476Y154178D01*
X29137Y154996D01*
X28598Y155698D01*
X27896Y156237D01*
X27078Y156576D01*
X26200Y156691D01*
D02*
G37*
G36*
X105800Y147337D02*
Y146600D01*
X106537D01*
X106242Y147042D01*
X105800Y147337D01*
D02*
G37*
G36*
X108600Y154239D02*
X107820Y154084D01*
X107158Y153642D01*
X106716Y152980D01*
X106561Y152200D01*
X106716Y151420D01*
X107158Y150758D01*
X107820Y150316D01*
X108600Y150161D01*
X109380Y150316D01*
X110042Y150758D01*
X110484Y151420D01*
X110639Y152200D01*
X110484Y152980D01*
X110042Y153642D01*
X109380Y154084D01*
X108600Y154239D01*
D02*
G37*
G36*
X214100Y151600D02*
X213363D01*
X213658Y151158D01*
X214100Y150863D01*
Y151600D01*
D02*
G37*
G36*
X237900Y154939D02*
X237120Y154784D01*
X236458Y154342D01*
X236016Y153680D01*
X235861Y152900D01*
X236016Y152120D01*
X236458Y151458D01*
X237120Y151016D01*
X237900Y150861D01*
X238680Y151016D01*
X239342Y151458D01*
X239784Y152120D01*
X239939Y152900D01*
X239784Y153680D01*
X239342Y154342D01*
X238680Y154784D01*
X237900Y154939D01*
D02*
G37*
G36*
X214100Y154337D02*
X213658Y154042D01*
X213363Y153600D01*
X214100D01*
Y154337D01*
D02*
G37*
G36*
X389900Y157639D02*
X389120Y157484D01*
X388458Y157042D01*
X388016Y156380D01*
X387861Y155600D01*
X388016Y154820D01*
X388458Y154158D01*
X389120Y153716D01*
X389900Y153561D01*
X390680Y153716D01*
X391342Y154158D01*
X391784Y154820D01*
X391939Y155600D01*
X391784Y156380D01*
X391342Y157042D01*
X390680Y157484D01*
X389900Y157639D01*
D02*
G37*
G36*
X216100Y154337D02*
Y153600D01*
X216837D01*
X216542Y154042D01*
X216100Y154337D01*
D02*
G37*
G36*
X431700Y159939D02*
X430920Y159784D01*
X430258Y159342D01*
X429816Y158680D01*
X429661Y157900D01*
X429816Y157120D01*
X430258Y156458D01*
X430920Y156016D01*
X431700Y155861D01*
X432480Y156016D01*
X433142Y156458D01*
X433584Y157120D01*
X433739Y157900D01*
X433584Y158680D01*
X433142Y159342D01*
X432480Y159784D01*
X431700Y159939D01*
D02*
G37*
G36*
X183100Y25187D02*
X182068Y25051D01*
X181107Y24653D01*
X180281Y24019D01*
X179647Y23193D01*
X179249Y22232D01*
X179113Y21200D01*
X179249Y20168D01*
X179647Y19207D01*
X180281Y18381D01*
X181107Y17747D01*
X182068Y17349D01*
X183100Y17213D01*
X184132Y17349D01*
X185093Y17747D01*
X185919Y18381D01*
X186553Y19207D01*
X186951Y20168D01*
X187087Y21200D01*
X186951Y22232D01*
X186553Y23193D01*
X185919Y24019D01*
X185093Y24653D01*
X184132Y25051D01*
X183100Y25187D01*
D02*
G37*
G36*
X196053Y25172D02*
X190147D01*
X189757Y25095D01*
X189426Y24874D01*
X189205Y24543D01*
X189128Y24153D01*
Y18247D01*
X189205Y17857D01*
X189426Y17526D01*
X189757Y17305D01*
X190147Y17228D01*
X196053D01*
X196443Y17305D01*
X196774Y17526D01*
X196995Y17857D01*
X197072Y18247D01*
Y24153D01*
X196995Y24543D01*
X196774Y24874D01*
X196443Y25095D01*
X196053Y25172D01*
D02*
G37*
G36*
X249953D02*
X244047D01*
X243657Y25095D01*
X243326Y24874D01*
X243105Y24543D01*
X243028Y24153D01*
Y18247D01*
X243105Y17857D01*
X243326Y17526D01*
X243657Y17305D01*
X244047Y17228D01*
X249953D01*
X250343Y17305D01*
X250674Y17526D01*
X250895Y17857D01*
X250972Y18247D01*
Y24153D01*
X250895Y24543D01*
X250674Y24874D01*
X250343Y25095D01*
X249953Y25172D01*
D02*
G37*
G36*
X237000Y25187D02*
X235968Y25051D01*
X235007Y24653D01*
X234181Y24019D01*
X233547Y23193D01*
X233149Y22232D01*
X233013Y21200D01*
X233149Y20168D01*
X233547Y19207D01*
X234181Y18381D01*
X235007Y17747D01*
X235968Y17349D01*
X237000Y17213D01*
X238032Y17349D01*
X238993Y17747D01*
X239819Y18381D01*
X240453Y19207D01*
X240851Y20168D01*
X240987Y21200D01*
X240851Y22232D01*
X240453Y23193D01*
X239819Y24019D01*
X238993Y24653D01*
X238032Y25051D01*
X237000Y25187D01*
D02*
G37*
G36*
X477021Y165450D02*
X467179D01*
X466018Y165336D01*
X464902Y164997D01*
X463873Y164447D01*
X462971Y163707D01*
X462232Y162806D01*
X461682Y161777D01*
X461343Y160661D01*
X461229Y159500D01*
X461343Y158339D01*
X461682Y157223D01*
X462232Y156194D01*
X462971Y155293D01*
X463873Y154553D01*
X464902Y154003D01*
X466018Y153665D01*
X467179Y153550D01*
X477021D01*
X478182Y153665D01*
X479298Y154003D01*
X480327Y154553D01*
X481228Y155293D01*
X481968Y156194D01*
X482518Y157223D01*
X482857Y158339D01*
X482971Y159500D01*
X482857Y160661D01*
X482518Y161777D01*
X481968Y162806D01*
X481228Y163707D01*
X480327Y164447D01*
X479298Y164997D01*
X478182Y165336D01*
X477021Y165450D01*
D02*
G37*
G36*
X227000Y25187D02*
X225968Y25051D01*
X225007Y24653D01*
X224181Y24019D01*
X223547Y23193D01*
X223149Y22232D01*
X223013Y21200D01*
X223149Y20168D01*
X223547Y19207D01*
X224181Y18381D01*
X225007Y17747D01*
X225968Y17349D01*
X227000Y17213D01*
X228032Y17349D01*
X228993Y17747D01*
X229819Y18381D01*
X230453Y19207D01*
X230851Y20168D01*
X230987Y21200D01*
X230851Y22232D01*
X230453Y23193D01*
X229819Y24019D01*
X228993Y24653D01*
X228032Y25051D01*
X227000Y25187D01*
D02*
G37*
G36*
X178700Y80639D02*
X177920Y80484D01*
X177258Y80042D01*
X176816Y79380D01*
X176661Y78600D01*
X176816Y77820D01*
X177258Y77158D01*
X177920Y76716D01*
X178700Y76561D01*
X179480Y76716D01*
X180142Y77158D01*
X180584Y77820D01*
X180739Y78600D01*
X180584Y79380D01*
X180142Y80042D01*
X179480Y80484D01*
X178700Y80639D01*
D02*
G37*
G36*
X47100Y76839D02*
X46320Y76684D01*
X45658Y76242D01*
X45216Y75580D01*
X45061Y74800D01*
X45216Y74020D01*
X45658Y73358D01*
X46320Y72916D01*
X47100Y72761D01*
X47880Y72916D01*
X48542Y73358D01*
X48984Y74020D01*
X49139Y74800D01*
X48984Y75580D01*
X48542Y76242D01*
X47880Y76684D01*
X47100Y76839D01*
D02*
G37*
G36*
X18562Y88182D02*
X13838D01*
X13448Y88104D01*
X13117Y87883D01*
X12896Y87552D01*
X12818Y87162D01*
Y82438D01*
X12896Y82048D01*
X13117Y81717D01*
X13448Y81496D01*
X13838Y81418D01*
X18562D01*
X18952Y81496D01*
X19283Y81717D01*
X19504Y82048D01*
X19582Y82438D01*
Y87162D01*
X19504Y87552D01*
X19283Y87883D01*
X18952Y88104D01*
X18562Y88182D01*
D02*
G37*
G36*
X437400Y89639D02*
X436620Y89484D01*
X435958Y89042D01*
X435516Y88380D01*
X435361Y87600D01*
X435516Y86820D01*
X435958Y86158D01*
X436620Y85716D01*
X437400Y85561D01*
X438180Y85716D01*
X438842Y86158D01*
X439284Y86820D01*
X439439Y87600D01*
X439284Y88380D01*
X438842Y89042D01*
X438180Y89484D01*
X437400Y89639D01*
D02*
G37*
G36*
X87400Y87339D02*
X86620Y87184D01*
X85958Y86742D01*
X85516Y86080D01*
X85361Y85300D01*
X85516Y84520D01*
X85958Y83858D01*
X86620Y83416D01*
X87400Y83261D01*
X88180Y83416D01*
X88842Y83858D01*
X89284Y84520D01*
X89439Y85300D01*
X89284Y86080D01*
X88842Y86742D01*
X88180Y87184D01*
X87400Y87339D01*
D02*
G37*
G36*
X31400Y69237D02*
X30958Y68942D01*
X30663Y68500D01*
X31400D01*
Y69237D01*
D02*
G37*
G36*
X96200Y70539D02*
X95420Y70384D01*
X94758Y69942D01*
X94316Y69280D01*
X94161Y68500D01*
X94316Y67720D01*
X94758Y67058D01*
X95420Y66616D01*
X96200Y66461D01*
X96980Y66616D01*
X97642Y67058D01*
X98084Y67720D01*
X98239Y68500D01*
X98084Y69280D01*
X97642Y69942D01*
X96980Y70384D01*
X96200Y70539D01*
D02*
G37*
G36*
X33400Y69237D02*
Y68500D01*
X34137D01*
X33842Y68942D01*
X33400Y69237D01*
D02*
G37*
G36*
X336647Y51837D02*
X336205Y51542D01*
X335910Y51100D01*
X336647D01*
Y51837D01*
D02*
G37*
G36*
X26200Y78191D02*
X25322Y78076D01*
X24504Y77737D01*
X23802Y77198D01*
X23263Y76496D01*
X22924Y75678D01*
X22809Y74800D01*
X22924Y73922D01*
X23263Y73104D01*
X23802Y72402D01*
X24504Y71863D01*
X25322Y71524D01*
X26200Y71409D01*
X27078Y71524D01*
X27896Y71863D01*
X28598Y72402D01*
X29137Y73104D01*
X29476Y73922D01*
X29591Y74800D01*
X29476Y75678D01*
X29137Y76496D01*
X28598Y77198D01*
X27896Y77737D01*
X27078Y78076D01*
X26200Y78191D01*
D02*
G37*
G36*
X229500Y95339D02*
X228720Y95184D01*
X228058Y94742D01*
X227616Y94080D01*
X227461Y93300D01*
X227616Y92520D01*
X228058Y91858D01*
X228720Y91416D01*
X229500Y91261D01*
X230280Y91416D01*
X230942Y91858D01*
X231384Y92520D01*
X231539Y93300D01*
X231384Y94080D01*
X230942Y94742D01*
X230280Y95184D01*
X229500Y95339D01*
D02*
G37*
G36*
X179300Y93539D02*
X178520Y93384D01*
X177858Y92942D01*
X177416Y92280D01*
X177261Y91500D01*
X177416Y90720D01*
X177858Y90058D01*
X178520Y89616D01*
X179300Y89461D01*
X180080Y89616D01*
X180742Y90058D01*
X181184Y90720D01*
X181339Y91500D01*
X181184Y92280D01*
X180742Y92942D01*
X180080Y93384D01*
X179300Y93539D01*
D02*
G37*
G36*
X147400Y95739D02*
X146620Y95584D01*
X145958Y95142D01*
X145516Y94480D01*
X145361Y93700D01*
X145516Y92920D01*
X145958Y92258D01*
X146620Y91816D01*
X147400Y91661D01*
X148180Y91816D01*
X148842Y92258D01*
X149284Y92920D01*
X149439Y93700D01*
X149284Y94480D01*
X148842Y95142D01*
X148180Y95584D01*
X147400Y95739D01*
D02*
G37*
G36*
X437900Y97639D02*
X437120Y97484D01*
X436458Y97042D01*
X436016Y96380D01*
X435861Y95600D01*
X436016Y94820D01*
X436458Y94158D01*
X437120Y93716D01*
X437900Y93561D01*
X438680Y93716D01*
X439342Y94158D01*
X439784Y94820D01*
X439939Y95600D01*
X439784Y96380D01*
X439342Y97042D01*
X438680Y97484D01*
X437900Y97639D01*
D02*
G37*
G36*
X133400Y50149D02*
X132424Y49955D01*
X131598Y49402D01*
X131045Y48575D01*
X130851Y47600D01*
X131045Y46624D01*
X131598Y45798D01*
X132424Y45245D01*
X133400Y45051D01*
X134376Y45245D01*
X135202Y45798D01*
X135755Y46624D01*
X135949Y47600D01*
X135755Y48575D01*
X135202Y49402D01*
X134376Y49955D01*
X133400Y50149D01*
D02*
G37*
G36*
X336647Y49100D02*
X335910D01*
X336205Y48658D01*
X336647Y48363D01*
Y49100D01*
D02*
G37*
G36*
X339384D02*
X338647D01*
Y48363D01*
X339089Y48658D01*
X339384Y49100D01*
D02*
G37*
G36*
X111400Y49939D02*
X110620Y49784D01*
X109958Y49342D01*
X109516Y48680D01*
X109361Y47900D01*
X109516Y47120D01*
X109958Y46458D01*
X110620Y46016D01*
X111400Y45861D01*
X112180Y46016D01*
X112842Y46458D01*
X113284Y47120D01*
X113439Y47900D01*
X113284Y48680D01*
X112842Y49342D01*
X112180Y49784D01*
X111400Y49939D01*
D02*
G37*
G36*
X52200Y93539D02*
X51420Y93384D01*
X50758Y92942D01*
X50316Y92280D01*
X50161Y91500D01*
X50316Y90720D01*
X50758Y90058D01*
X51420Y89616D01*
X52200Y89461D01*
X52980Y89616D01*
X53642Y90058D01*
X54084Y90720D01*
X54239Y91500D01*
X54084Y92280D01*
X53642Y92942D01*
X52980Y93384D01*
X52200Y93539D01*
D02*
G37*
G36*
X45000Y49839D02*
X44220Y49684D01*
X43558Y49242D01*
X43116Y48580D01*
X42961Y47800D01*
X43116Y47020D01*
X43558Y46358D01*
X44220Y45916D01*
X45000Y45761D01*
X45780Y45916D01*
X46442Y46358D01*
X46884Y47020D01*
X47039Y47800D01*
X46884Y48580D01*
X46442Y49242D01*
X45780Y49684D01*
X45000Y49839D01*
D02*
G37*
G36*
X129800Y58339D02*
X129020Y58184D01*
X128358Y57742D01*
X127916Y57080D01*
X127761Y56300D01*
X127916Y55520D01*
X128358Y54858D01*
X129020Y54416D01*
X129800Y54261D01*
X130580Y54416D01*
X131242Y54858D01*
X131684Y55520D01*
X131839Y56300D01*
X131684Y57080D01*
X131242Y57742D01*
X130580Y58184D01*
X129800Y58339D01*
D02*
G37*
G36*
X120400Y57939D02*
X119620Y57784D01*
X118958Y57342D01*
X118516Y56680D01*
X118361Y55900D01*
X118516Y55120D01*
X118958Y54458D01*
X119620Y54016D01*
X120400Y53861D01*
X121180Y54016D01*
X121842Y54458D01*
X122284Y55120D01*
X122439Y55900D01*
X122284Y56680D01*
X121842Y57342D01*
X121180Y57784D01*
X120400Y57939D01*
D02*
G37*
G36*
X64000Y57137D02*
X63558Y56842D01*
X63263Y56400D01*
X64000D01*
Y57137D01*
D02*
G37*
G36*
X45000Y62539D02*
X44220Y62384D01*
X43558Y61942D01*
X43116Y61280D01*
X42961Y60500D01*
X43116Y59720D01*
X43558Y59058D01*
X44220Y58616D01*
X45000Y58461D01*
X45780Y58616D01*
X46442Y59058D01*
X46884Y59720D01*
X47039Y60500D01*
X46884Y61280D01*
X46442Y61942D01*
X45780Y62384D01*
X45000Y62539D01*
D02*
G37*
G36*
X66000Y57137D02*
Y56400D01*
X66737D01*
X66442Y56842D01*
X66000Y57137D01*
D02*
G37*
G36*
X270400Y56139D02*
X269620Y55984D01*
X268958Y55542D01*
X268516Y54880D01*
X268361Y54100D01*
X268516Y53320D01*
X268958Y52658D01*
X269620Y52216D01*
X270400Y52061D01*
X271180Y52216D01*
X271842Y52658D01*
X272284Y53320D01*
X272439Y54100D01*
X272284Y54880D01*
X271842Y55542D01*
X271180Y55984D01*
X270400Y56139D01*
D02*
G37*
G36*
X338647Y51837D02*
Y51100D01*
X339384D01*
X339089Y51542D01*
X338647Y51837D01*
D02*
G37*
G36*
X87400Y56339D02*
X86620Y56184D01*
X85958Y55742D01*
X85516Y55080D01*
X85361Y54300D01*
X85516Y53520D01*
X85958Y52858D01*
X86620Y52416D01*
X87400Y52261D01*
X88180Y52416D01*
X88842Y52858D01*
X89284Y53520D01*
X89439Y54300D01*
X89284Y55080D01*
X88842Y55742D01*
X88180Y56184D01*
X87400Y56339D01*
D02*
G37*
G36*
X66737Y54400D02*
X66000D01*
Y53663D01*
X66442Y53958D01*
X66737Y54400D01*
D02*
G37*
G36*
X64000D02*
X63263D01*
X63558Y53958D01*
X64000Y53663D01*
Y54400D01*
D02*
G37*
G36*
X112000Y64037D02*
Y63300D01*
X112737D01*
X112442Y63742D01*
X112000Y64037D01*
D02*
G37*
G36*
X110000D02*
X109558Y63742D01*
X109263Y63300D01*
X110000D01*
Y64037D01*
D02*
G37*
G36*
X38600Y69539D02*
X37820Y69384D01*
X37158Y68942D01*
X36716Y68280D01*
X36561Y67500D01*
X36716Y66720D01*
X37158Y66058D01*
X37820Y65616D01*
X38600Y65461D01*
X39380Y65616D01*
X40042Y66058D01*
X40484Y66720D01*
X40639Y67500D01*
X40484Y68280D01*
X40042Y68942D01*
X39380Y69384D01*
X38600Y69539D01*
D02*
G37*
G36*
X34137Y66500D02*
X33400D01*
Y65763D01*
X33842Y66058D01*
X34137Y66500D01*
D02*
G37*
G36*
X31400D02*
X30663D01*
X30958Y66058D01*
X31400Y65763D01*
Y66500D01*
D02*
G37*
G36*
X145400Y64039D02*
X144620Y63884D01*
X143958Y63442D01*
X143516Y62780D01*
X143361Y62000D01*
X143516Y61220D01*
X143958Y60558D01*
X144620Y60116D01*
X145400Y59961D01*
X146180Y60116D01*
X146842Y60558D01*
X147284Y61220D01*
X147439Y62000D01*
X147284Y62780D01*
X146842Y63442D01*
X146180Y63884D01*
X145400Y64039D01*
D02*
G37*
G36*
X173800Y62539D02*
X173020Y62384D01*
X172358Y61942D01*
X171916Y61280D01*
X171761Y60500D01*
X171916Y59720D01*
X172358Y59058D01*
X173020Y58616D01*
X173800Y58461D01*
X174580Y58616D01*
X175242Y59058D01*
X175684Y59720D01*
X175839Y60500D01*
X175684Y61280D01*
X175242Y61942D01*
X174580Y62384D01*
X173800Y62539D01*
D02*
G37*
G36*
X110000Y61300D02*
X109263D01*
X109558Y60858D01*
X110000Y60563D01*
Y61300D01*
D02*
G37*
G36*
X16200Y68191D02*
X15322Y68076D01*
X14504Y67737D01*
X13802Y67198D01*
X13263Y66496D01*
X12924Y65678D01*
X12809Y64800D01*
X12924Y63922D01*
X13263Y63104D01*
X13802Y62402D01*
X14504Y61863D01*
X15322Y61524D01*
X16200Y61409D01*
X17078Y61524D01*
X17896Y61863D01*
X18598Y62402D01*
X19137Y63104D01*
X19476Y63922D01*
X19591Y64800D01*
X19476Y65678D01*
X19137Y66496D01*
X18598Y67198D01*
X17896Y67737D01*
X17078Y68076D01*
X16200Y68191D01*
D02*
G37*
G36*
X112737Y61300D02*
X112000D01*
Y60563D01*
X112442Y60858D01*
X112737Y61300D01*
D02*
G37*
G36*
X39100Y119237D02*
Y118500D01*
X39837D01*
X39542Y118942D01*
X39100Y119237D01*
D02*
G37*
G36*
X37100D02*
X36658Y118942D01*
X36363Y118500D01*
X37100D01*
Y119237D01*
D02*
G37*
G36*
X135839Y119700D02*
X131161D01*
X131465Y119246D01*
X131164Y118797D01*
X130900Y118849D01*
X129924Y118655D01*
X129098Y118102D01*
X128545Y117276D01*
X128351Y116300D01*
X128545Y115324D01*
X129098Y114498D01*
X129924Y113945D01*
X130900Y113751D01*
X131876Y113945D01*
X132702Y114498D01*
X133255Y115324D01*
X133449Y116300D01*
X133255Y117276D01*
X132936Y117754D01*
X133236Y118203D01*
X133500Y118151D01*
X134476Y118345D01*
X135302Y118898D01*
X135839Y119700D01*
D02*
G37*
G36*
X103800Y120100D02*
X103063D01*
X103358Y119658D01*
X103800Y119363D01*
Y120100D01*
D02*
G37*
G36*
X158000Y122939D02*
X157220Y122784D01*
X156558Y122342D01*
X156116Y121680D01*
X155961Y120900D01*
X156116Y120120D01*
X156558Y119458D01*
X157220Y119016D01*
X158000Y118861D01*
X158780Y119016D01*
X159442Y119458D01*
X159884Y120120D01*
X160039Y120900D01*
X159884Y121680D01*
X159442Y122342D01*
X158780Y122784D01*
X158000Y122939D01*
D02*
G37*
G36*
X37100Y116500D02*
X36363D01*
X36658Y116058D01*
X37100Y115763D01*
Y116500D01*
D02*
G37*
G36*
X31600Y119639D02*
X30820Y119484D01*
X30158Y119042D01*
X29716Y118380D01*
X29561Y117600D01*
X29716Y116820D01*
X30158Y116158D01*
X30820Y115716D01*
X31600Y115561D01*
X32380Y115716D01*
X33042Y116158D01*
X33484Y116820D01*
X33639Y117600D01*
X33484Y118380D01*
X33042Y119042D01*
X32380Y119484D01*
X31600Y119639D01*
D02*
G37*
G36*
X39837Y116500D02*
X39100D01*
Y115763D01*
X39542Y116058D01*
X39837Y116500D01*
D02*
G37*
G36*
X344800Y44139D02*
X344020Y43984D01*
X343358Y43542D01*
X342916Y42880D01*
X342761Y42100D01*
X342916Y41320D01*
X343358Y40658D01*
X344020Y40216D01*
X344800Y40061D01*
X345580Y40216D01*
X346242Y40658D01*
X346684Y41320D01*
X346839Y42100D01*
X346684Y42880D01*
X346242Y43542D01*
X345580Y43984D01*
X344800Y44139D01*
D02*
G37*
G36*
X98600Y119939D02*
X97820Y119784D01*
X97158Y119342D01*
X96716Y118680D01*
X96561Y117900D01*
X96716Y117120D01*
X97158Y116458D01*
X97820Y116016D01*
X98600Y115861D01*
X99380Y116016D01*
X100042Y116458D01*
X100484Y117120D01*
X100639Y117900D01*
X100484Y118680D01*
X100042Y119342D01*
X99380Y119784D01*
X98600Y119939D01*
D02*
G37*
G36*
X98137Y40400D02*
X97400D01*
Y39663D01*
X97842Y39958D01*
X98137Y40400D01*
D02*
G37*
G36*
X51100Y126339D02*
X50320Y126184D01*
X49658Y125742D01*
X49216Y125080D01*
X49061Y124300D01*
X49216Y123520D01*
X49658Y122858D01*
X50320Y122416D01*
X51100Y122261D01*
X51880Y122416D01*
X52542Y122858D01*
X52984Y123520D01*
X53139Y124300D01*
X52984Y125080D01*
X52542Y125742D01*
X51880Y126184D01*
X51100Y126339D01*
D02*
G37*
G36*
X444900Y129749D02*
X443925Y129555D01*
X443098Y129002D01*
X442545Y128175D01*
X442351Y127200D01*
X442545Y126225D01*
X443098Y125398D01*
X443925Y124845D01*
X444900Y124651D01*
X445876Y124845D01*
X446702Y125398D01*
X447255Y126225D01*
X447449Y127200D01*
X447255Y128175D01*
X446702Y129002D01*
X445876Y129555D01*
X444900Y129749D01*
D02*
G37*
G36*
X157700Y130949D02*
X156725Y130755D01*
X155898Y130202D01*
X155345Y129376D01*
X155151Y128400D01*
X155345Y127425D01*
X155898Y126598D01*
X156725Y126045D01*
X157700Y125851D01*
X158676Y126045D01*
X159502Y126598D01*
X160055Y127425D01*
X160249Y128400D01*
X160055Y129376D01*
X159502Y130202D01*
X158676Y130755D01*
X157700Y130949D01*
D02*
G37*
G36*
X95400Y40400D02*
X94663D01*
X94958Y39958D01*
X95400Y39663D01*
Y40400D01*
D02*
G37*
G36*
X132500Y123039D02*
X131698Y122502D01*
X131161Y121700D01*
X132500D01*
Y123039D01*
D02*
G37*
G36*
X106537Y120100D02*
X105800D01*
Y119363D01*
X106242Y119658D01*
X106537Y120100D01*
D02*
G37*
G36*
X134500Y123039D02*
Y121700D01*
X135839D01*
X135302Y122502D01*
X134500Y123039D01*
D02*
G37*
G36*
X105800Y122837D02*
Y122100D01*
X106537D01*
X106242Y122542D01*
X105800Y122837D01*
D02*
G37*
G36*
X103800D02*
X103358Y122542D01*
X103063Y122100D01*
X103800D01*
Y122837D01*
D02*
G37*
G36*
X96800Y106549D02*
X95824Y106355D01*
X94998Y105802D01*
X94445Y104975D01*
X94251Y104000D01*
X94445Y103024D01*
X94998Y102198D01*
X95824Y101645D01*
X96800Y101451D01*
X97776Y101645D01*
X98602Y102198D01*
X99155Y103024D01*
X99349Y104000D01*
X99155Y104975D01*
X98602Y105802D01*
X97776Y106355D01*
X96800Y106549D01*
D02*
G37*
G36*
X39800Y42537D02*
Y41800D01*
X40537D01*
X40242Y42242D01*
X39800Y42537D01*
D02*
G37*
G36*
X438600Y105639D02*
X437820Y105484D01*
X437158Y105042D01*
X436716Y104380D01*
X436561Y103600D01*
X436716Y102820D01*
X437158Y102158D01*
X437820Y101716D01*
X438600Y101561D01*
X439380Y101716D01*
X440042Y102158D01*
X440484Y102820D01*
X440639Y103600D01*
X440484Y104380D01*
X440042Y105042D01*
X439380Y105484D01*
X438600Y105639D01*
D02*
G37*
G36*
X188900Y107839D02*
X188120Y107684D01*
X187458Y107242D01*
X187016Y106580D01*
X186861Y105800D01*
X187016Y105020D01*
X187458Y104358D01*
X188120Y103916D01*
X188900Y103761D01*
X189680Y103916D01*
X190342Y104358D01*
X190784Y105020D01*
X190939Y105800D01*
X190784Y106580D01*
X190342Y107242D01*
X189680Y107684D01*
X188900Y107839D01*
D02*
G37*
G36*
X289000Y107439D02*
X288220Y107284D01*
X287558Y106842D01*
X287116Y106180D01*
X286961Y105400D01*
X287116Y104620D01*
X287558Y103958D01*
X288220Y103516D01*
X289000Y103361D01*
X289780Y103516D01*
X290442Y103958D01*
X290884Y104620D01*
X291039Y105400D01*
X290884Y106180D01*
X290442Y106842D01*
X289780Y107284D01*
X289000Y107439D01*
D02*
G37*
G36*
X218900Y101339D02*
X218120Y101184D01*
X217458Y100742D01*
X217016Y100080D01*
X216861Y99300D01*
X217016Y98520D01*
X217458Y97858D01*
X218120Y97416D01*
X218900Y97261D01*
X219680Y97416D01*
X220342Y97858D01*
X220784Y98520D01*
X220939Y99300D01*
X220784Y100080D01*
X220342Y100742D01*
X219680Y101184D01*
X218900Y101339D01*
D02*
G37*
G36*
X18062Y101182D02*
X13338D01*
X12948Y101104D01*
X12617Y100883D01*
X12396Y100552D01*
X12318Y100162D01*
Y95438D01*
X12396Y95048D01*
X12617Y94717D01*
X12948Y94496D01*
X13338Y94418D01*
X18062D01*
X18452Y94496D01*
X18783Y94717D01*
X19004Y95048D01*
X19082Y95438D01*
Y100162D01*
X19004Y100552D01*
X18783Y100883D01*
X18452Y101104D01*
X18062Y101182D01*
D02*
G37*
G36*
X272700Y155039D02*
X271920Y154884D01*
X271258Y154442D01*
X270816Y153780D01*
X270661Y153000D01*
X270816Y152220D01*
X271171Y151689D01*
Y104333D01*
X268946Y102109D01*
X268320Y101984D01*
X267658Y101542D01*
X267216Y100880D01*
X267061Y100100D01*
X267216Y99320D01*
X267658Y98658D01*
X268320Y98216D01*
X269100Y98061D01*
X269880Y98216D01*
X270542Y98658D01*
X270984Y99320D01*
X271109Y99946D01*
X273781Y102619D01*
X274113Y103115D01*
X274229Y103700D01*
Y151689D01*
X274584Y152220D01*
X274739Y153000D01*
X274584Y153780D01*
X274142Y154442D01*
X273480Y154884D01*
X272700Y155039D01*
D02*
G37*
G36*
X95400Y43137D02*
X94958Y42842D01*
X94663Y42400D01*
X95400D01*
Y43137D01*
D02*
G37*
G36*
X97400D02*
Y42400D01*
X98137D01*
X97842Y42842D01*
X97400Y43137D01*
D02*
G37*
G36*
X162200Y117539D02*
X161420Y117384D01*
X160758Y116942D01*
X160316Y116280D01*
X160161Y115500D01*
X160316Y114720D01*
X160758Y114058D01*
X161420Y113616D01*
X162200Y113461D01*
X162980Y113616D01*
X163642Y114058D01*
X164084Y114720D01*
X164239Y115500D01*
X164084Y116280D01*
X163642Y116942D01*
X162980Y117384D01*
X162200Y117539D01*
D02*
G37*
G36*
X144700Y118049D02*
X143725Y117855D01*
X142898Y117302D01*
X142345Y116475D01*
X142151Y115500D01*
X142345Y114524D01*
X142898Y113698D01*
X143725Y113145D01*
X144700Y112951D01*
X145676Y113145D01*
X146502Y113698D01*
X147055Y114524D01*
X147249Y115500D01*
X147055Y116475D01*
X146502Y117302D01*
X145676Y117855D01*
X144700Y118049D01*
D02*
G37*
G36*
X326097Y118746D02*
X325121Y118552D01*
X324294Y117999D01*
X323742Y117172D01*
X323548Y116197D01*
X323742Y115221D01*
X324294Y114394D01*
X325121Y113842D01*
X326097Y113648D01*
X327072Y113842D01*
X327899Y114394D01*
X328452Y115221D01*
X328646Y116197D01*
X328452Y117172D01*
X327899Y117999D01*
X327072Y118552D01*
X326097Y118746D01*
D02*
G37*
G36*
X15700Y121191D02*
X14822Y121076D01*
X14004Y120737D01*
X13302Y120198D01*
X12763Y119496D01*
X12424Y118678D01*
X12309Y117800D01*
X12424Y116922D01*
X12763Y116104D01*
X13302Y115402D01*
X14004Y114863D01*
X14822Y114524D01*
X15700Y114409D01*
X16578Y114524D01*
X17396Y114863D01*
X18098Y115402D01*
X18637Y116104D01*
X18976Y116922D01*
X19091Y117800D01*
X18976Y118678D01*
X18637Y119496D01*
X18098Y120198D01*
X17396Y120737D01*
X16578Y121076D01*
X15700Y121191D01*
D02*
G37*
G36*
X229800Y118139D02*
X229020Y117984D01*
X228358Y117542D01*
X227916Y116880D01*
X227761Y116100D01*
X227916Y115320D01*
X228358Y114658D01*
X229020Y114216D01*
X229800Y114061D01*
X230580Y114216D01*
X231242Y114658D01*
X231684Y115320D01*
X231839Y116100D01*
X231684Y116880D01*
X231242Y117542D01*
X230580Y117984D01*
X229800Y118139D01*
D02*
G37*
G36*
X46600Y109239D02*
X45820Y109084D01*
X45158Y108642D01*
X44716Y107980D01*
X44561Y107200D01*
X44716Y106420D01*
X45158Y105758D01*
X45820Y105316D01*
X46600Y105161D01*
X47380Y105316D01*
X48042Y105758D01*
X48484Y106420D01*
X48639Y107200D01*
X48484Y107980D01*
X48042Y108642D01*
X47380Y109084D01*
X46600Y109239D01*
D02*
G37*
G36*
X5700Y111191D02*
X4822Y111076D01*
X4004Y110737D01*
X3302Y110198D01*
X2763Y109496D01*
X2424Y108678D01*
X2309Y107800D01*
X2424Y106922D01*
X2763Y106104D01*
X3302Y105402D01*
X4004Y104863D01*
X4822Y104524D01*
X5700Y104409D01*
X6578Y104524D01*
X7396Y104863D01*
X8098Y105402D01*
X8637Y106104D01*
X8976Y106922D01*
X9091Y107800D01*
X8976Y108678D01*
X8637Y109496D01*
X8098Y110198D01*
X7396Y110737D01*
X6578Y111076D01*
X5700Y111191D01*
D02*
G37*
G36*
X440000Y113739D02*
X439220Y113584D01*
X438558Y113142D01*
X438116Y112480D01*
X437961Y111700D01*
X438116Y110920D01*
X438558Y110258D01*
X439220Y109816D01*
X440000Y109661D01*
X440780Y109816D01*
X441442Y110258D01*
X441884Y110920D01*
X442039Y111700D01*
X441884Y112480D01*
X441442Y113142D01*
X440780Y113584D01*
X440000Y113739D01*
D02*
G37*
G36*
X190600Y116039D02*
X189820Y115884D01*
X189158Y115442D01*
X188716Y114780D01*
X188561Y114000D01*
X188716Y113220D01*
X189158Y112558D01*
X189820Y112116D01*
X190600Y111961D01*
X191380Y112116D01*
X192042Y112558D01*
X192484Y113220D01*
X192639Y114000D01*
X192484Y114780D01*
X192042Y115442D01*
X191380Y115884D01*
X190600Y116039D01*
D02*
G37*
G36*
X37800Y42537D02*
X37358Y42242D01*
X37063Y41800D01*
X37800D01*
Y42537D01*
D02*
G37*
G36*
X52000Y171339D02*
X51220Y171184D01*
X50558Y170742D01*
X50116Y170080D01*
X49961Y169300D01*
X50116Y168520D01*
X50558Y167858D01*
X51220Y167416D01*
X52000Y167261D01*
X52780Y167416D01*
X53442Y167858D01*
X53884Y168520D01*
X54039Y169300D01*
X53884Y170080D01*
X53442Y170742D01*
X52780Y171184D01*
X52000Y171339D01*
D02*
G37*
G36*
X183100Y15187D02*
X182068Y15051D01*
X181107Y14653D01*
X180281Y14019D01*
X179647Y13193D01*
X179249Y12232D01*
X179113Y11200D01*
X179249Y10168D01*
X179647Y9207D01*
X180281Y8381D01*
X181107Y7747D01*
X182068Y7349D01*
X183100Y7213D01*
X184132Y7349D01*
X185093Y7747D01*
X185919Y8381D01*
X186553Y9207D01*
X186951Y10168D01*
X187087Y11200D01*
X186951Y12232D01*
X186553Y13193D01*
X185919Y14019D01*
X185093Y14653D01*
X184132Y15051D01*
X183100Y15187D01*
D02*
G37*
G36*
X234200Y251787D02*
X233168Y251651D01*
X232207Y251253D01*
X231381Y250619D01*
X230747Y249793D01*
X230349Y248832D01*
X230213Y247800D01*
X230349Y246768D01*
X230747Y245807D01*
X231381Y244981D01*
X232207Y244347D01*
X233168Y243949D01*
X234200Y243813D01*
X235232Y243949D01*
X236193Y244347D01*
X237019Y244981D01*
X237653Y245807D01*
X238051Y246768D01*
X238187Y247800D01*
X238051Y248832D01*
X237653Y249793D01*
X237019Y250619D01*
X236193Y251253D01*
X235232Y251651D01*
X234200Y251787D01*
D02*
G37*
G36*
X81600Y249939D02*
X80820Y249784D01*
X80158Y249342D01*
X79716Y248680D01*
X79561Y247900D01*
X79716Y247120D01*
X80158Y246458D01*
X80820Y246016D01*
X81600Y245861D01*
X82380Y246016D01*
X83042Y246458D01*
X83484Y247120D01*
X83639Y247900D01*
X83484Y248680D01*
X83042Y249342D01*
X82380Y249784D01*
X81600Y249939D01*
D02*
G37*
G36*
X212900Y251455D02*
X212868Y251451D01*
X211907Y251053D01*
X211081Y250419D01*
X210447Y249593D01*
X210049Y248632D01*
X210045Y248600D01*
X212900D01*
Y251455D01*
D02*
G37*
G36*
X285300Y251239D02*
X284520Y251084D01*
X283858Y250642D01*
X283416Y249980D01*
X283261Y249200D01*
X283416Y248420D01*
X283858Y247758D01*
X284520Y247316D01*
X285300Y247161D01*
X286080Y247316D01*
X286742Y247758D01*
X287184Y248420D01*
X287339Y249200D01*
X287184Y249980D01*
X286742Y250642D01*
X286080Y251084D01*
X285300Y251239D01*
D02*
G37*
G36*
X301600Y247287D02*
X300568Y247151D01*
X299607Y246753D01*
X298781Y246119D01*
X298147Y245293D01*
X297749Y244332D01*
X297613Y243300D01*
X297749Y242268D01*
X298147Y241307D01*
X298781Y240481D01*
X299607Y239847D01*
X300568Y239449D01*
X301600Y239313D01*
X302632Y239449D01*
X303593Y239847D01*
X304419Y240481D01*
X305053Y241307D01*
X305451Y242268D01*
X305587Y243300D01*
X305451Y244332D01*
X305053Y245293D01*
X304419Y246119D01*
X303593Y246753D01*
X302632Y247151D01*
X301600Y247287D01*
D02*
G37*
G36*
X291600D02*
X290568Y247151D01*
X289607Y246753D01*
X288781Y246119D01*
X288147Y245293D01*
X287749Y244332D01*
X287613Y243300D01*
X287749Y242268D01*
X288147Y241307D01*
X288781Y240481D01*
X289607Y239847D01*
X290568Y239449D01*
X291600Y239313D01*
X292632Y239449D01*
X293593Y239847D01*
X294419Y240481D01*
X295053Y241307D01*
X295451Y242268D01*
X295587Y243300D01*
X295451Y244332D01*
X295053Y245293D01*
X294419Y246119D01*
X293593Y246753D01*
X292632Y247151D01*
X291600Y247287D01*
D02*
G37*
G36*
X314553Y247272D02*
X308647D01*
X308257Y247195D01*
X307926Y246974D01*
X307705Y246643D01*
X307628Y246253D01*
Y240347D01*
X307705Y239957D01*
X307926Y239626D01*
X308257Y239405D01*
X308647Y239328D01*
X314553D01*
X314943Y239405D01*
X315274Y239626D01*
X315495Y239957D01*
X315572Y240347D01*
Y246253D01*
X315495Y246643D01*
X315274Y246974D01*
X314943Y247195D01*
X314553Y247272D01*
D02*
G37*
G36*
X217755Y246600D02*
X214900D01*
Y243745D01*
X214932Y243749D01*
X215893Y244147D01*
X216719Y244781D01*
X217353Y245607D01*
X217751Y246568D01*
X217755Y246600D01*
D02*
G37*
G36*
X212900D02*
X210045D01*
X210049Y246568D01*
X210447Y245607D01*
X211081Y244781D01*
X211907Y244147D01*
X212868Y243749D01*
X212900Y243745D01*
Y246600D01*
D02*
G37*
G36*
X311800Y260887D02*
X310768Y260751D01*
X309807Y260353D01*
X308981Y259719D01*
X308347Y258893D01*
X307949Y257932D01*
X307813Y256900D01*
X307949Y255868D01*
X308347Y254907D01*
X308981Y254081D01*
X309807Y253447D01*
X310768Y253049D01*
X311800Y252913D01*
X312832Y253049D01*
X313793Y253447D01*
X314619Y254081D01*
X315253Y254907D01*
X315651Y255868D01*
X315787Y256900D01*
X315651Y257932D01*
X315253Y258893D01*
X314619Y259719D01*
X313793Y260353D01*
X312832Y260751D01*
X311800Y260887D01*
D02*
G37*
G36*
X301800D02*
X300768Y260751D01*
X299807Y260353D01*
X298981Y259719D01*
X298347Y258893D01*
X297949Y257932D01*
X297813Y256900D01*
X297949Y255868D01*
X298347Y254907D01*
X298981Y254081D01*
X299807Y253447D01*
X300768Y253049D01*
X301800Y252913D01*
X302832Y253049D01*
X303793Y253447D01*
X304619Y254081D01*
X305253Y254907D01*
X305651Y255868D01*
X305787Y256900D01*
X305651Y257932D01*
X305253Y258893D01*
X304619Y259719D01*
X303793Y260353D01*
X302832Y260751D01*
X301800Y260887D01*
D02*
G37*
G36*
X234200Y261787D02*
X233168Y261651D01*
X232207Y261253D01*
X231381Y260619D01*
X230747Y259793D01*
X230349Y258832D01*
X230213Y257800D01*
X230349Y256768D01*
X230747Y255807D01*
X231381Y254981D01*
X232207Y254347D01*
X233168Y253949D01*
X234200Y253813D01*
X235232Y253949D01*
X236193Y254347D01*
X237019Y254981D01*
X237653Y255807D01*
X238051Y256768D01*
X238187Y257800D01*
X238051Y258832D01*
X237653Y259793D01*
X237019Y260619D01*
X236193Y261253D01*
X235232Y261651D01*
X234200Y261787D01*
D02*
G37*
G36*
X44000Y9339D02*
X43220Y9184D01*
X42558Y8742D01*
X42116Y8080D01*
X41961Y7300D01*
X42116Y6520D01*
X42558Y5858D01*
X43220Y5416D01*
X44000Y5261D01*
X44780Y5416D01*
X45442Y5858D01*
X45884Y6520D01*
X46039Y7300D01*
X45884Y8080D01*
X45442Y8742D01*
X44780Y9184D01*
X44000Y9339D01*
D02*
G37*
G36*
X173100Y15187D02*
X172068Y15051D01*
X171107Y14653D01*
X170281Y14019D01*
X169647Y13193D01*
X169249Y12232D01*
X169113Y11200D01*
X169249Y10168D01*
X169647Y9207D01*
X170281Y8381D01*
X171107Y7747D01*
X172068Y7349D01*
X173100Y7213D01*
X174132Y7349D01*
X175093Y7747D01*
X175919Y8381D01*
X176553Y9207D01*
X176951Y10168D01*
X177087Y11200D01*
X176951Y12232D01*
X176553Y13193D01*
X175919Y14019D01*
X175093Y14653D01*
X174132Y15051D01*
X173100Y15187D01*
D02*
G37*
G36*
X243800Y254439D02*
X243020Y254284D01*
X242358Y253842D01*
X241916Y253180D01*
X241761Y252400D01*
X241916Y251620D01*
X242358Y250958D01*
X243020Y250516D01*
X243800Y250361D01*
X244580Y250516D01*
X245242Y250958D01*
X245684Y251620D01*
X245839Y252400D01*
X245684Y253180D01*
X245242Y253842D01*
X244580Y254284D01*
X243800Y254439D01*
D02*
G37*
G36*
X214900Y251455D02*
Y248600D01*
X217755D01*
X217751Y248632D01*
X217353Y249593D01*
X216719Y250419D01*
X215893Y251053D01*
X214932Y251451D01*
X214900Y251455D01*
D02*
G37*
G36*
X259753Y271772D02*
X253847D01*
X253457Y271695D01*
X253126Y271474D01*
X252905Y271143D01*
X252828Y270753D01*
Y264847D01*
X252905Y264457D01*
X253126Y264126D01*
X253457Y263905D01*
X253847Y263828D01*
X258575D01*
X258800Y263637D01*
X264871Y257566D01*
Y252546D01*
X264409Y252354D01*
X261137Y255626D01*
X261088Y255701D01*
X261028Y255822D01*
X260967Y255983D01*
X260911Y256184D01*
X260861Y256425D01*
X260822Y256693D01*
X260775Y257385D01*
X260773Y257693D01*
X260787Y257800D01*
X260651Y258832D01*
X260253Y259793D01*
X259619Y260619D01*
X258793Y261253D01*
X257832Y261651D01*
X256800Y261787D01*
X255768Y261651D01*
X254807Y261253D01*
X253981Y260619D01*
X253347Y259793D01*
X252949Y258832D01*
X252813Y257800D01*
X252949Y256768D01*
X253347Y255807D01*
X253981Y254981D01*
X254807Y254347D01*
X255768Y253949D01*
X256800Y253813D01*
X256907Y253827D01*
X257215Y253825D01*
X257907Y253778D01*
X258175Y253739D01*
X258416Y253690D01*
X258617Y253632D01*
X258778Y253572D01*
X258899Y253512D01*
X258974Y253463D01*
X262671Y249766D01*
Y171311D01*
X262316Y170780D01*
X262312Y170761D01*
X262218Y170296D01*
X261710D01*
X261555Y171075D01*
X261002Y171902D01*
X260175Y172455D01*
X259200Y172649D01*
X258225Y172455D01*
X257398Y171902D01*
X256845Y171075D01*
X256651Y170100D01*
X256845Y169124D01*
X257398Y168298D01*
X258225Y167745D01*
X259200Y167551D01*
X260175Y167745D01*
X261002Y168298D01*
X261555Y169124D01*
X261598Y169339D01*
X261692Y169804D01*
X261692D01*
X261692Y169804D01*
X262200D01*
X262316Y169220D01*
X262758Y168558D01*
X263420Y168116D01*
X264200Y167961D01*
X264980Y168116D01*
X265271Y168310D01*
X265771Y168043D01*
Y163211D01*
X265416Y162680D01*
X265261Y161900D01*
X265416Y161120D01*
X265670Y160739D01*
X265403Y160239D01*
X252685D01*
X252408Y160739D01*
X252539Y161400D01*
X252384Y162180D01*
X252029Y162711D01*
Y168350D01*
X252439Y168632D01*
X252529Y168614D01*
X253300Y168461D01*
X254080Y168616D01*
X254742Y169058D01*
X255184Y169720D01*
X255339Y170500D01*
X255184Y171280D01*
X254742Y171942D01*
X254080Y172384D01*
X253300Y172539D01*
X252529Y172386D01*
X252439Y172368D01*
X252029Y172650D01*
Y201500D01*
X251925Y202027D01*
X251939Y202100D01*
X251784Y202880D01*
X251342Y203542D01*
X250680Y203984D01*
X249900Y204139D01*
X249120Y203984D01*
X248458Y203542D01*
X248016Y202880D01*
X247861Y202100D01*
X248016Y201320D01*
X248458Y200658D01*
X248971Y200316D01*
Y172112D01*
X248471Y171746D01*
X248000Y171839D01*
X247220Y171684D01*
X246558Y171242D01*
X246116Y170580D01*
X245961Y169800D01*
X246116Y169020D01*
X246558Y168358D01*
X247220Y167916D01*
X248000Y167761D01*
X248471Y167854D01*
X248971Y167488D01*
Y162711D01*
X248616Y162180D01*
X248461Y161400D01*
X248592Y160739D01*
X248315Y160239D01*
X234431D01*
X234163Y160739D01*
X234284Y160920D01*
X234439Y161700D01*
X234284Y162480D01*
X233842Y163142D01*
X233180Y163584D01*
X232554Y163708D01*
X232329Y163934D01*
Y179989D01*
X232684Y180520D01*
X232839Y181300D01*
X232684Y182080D01*
X232242Y182742D01*
X231580Y183184D01*
X230954Y183308D01*
X230129Y184134D01*
Y189515D01*
X230135Y189667D01*
X230147Y189672D01*
X230297Y189713D01*
X230509Y189748D01*
X230656Y189761D01*
X240100D01*
X240880Y189916D01*
X241542Y190358D01*
X245742Y194558D01*
X246184Y195220D01*
X246339Y196000D01*
Y234455D01*
X255230Y243346D01*
X255302Y243403D01*
X255454Y243503D01*
X255611Y243589D01*
X255776Y243662D01*
X255949Y243721D01*
X256133Y243768D01*
X256328Y243802D01*
X256537Y243822D01*
X256703Y243826D01*
X256800Y243813D01*
X257832Y243949D01*
X258793Y244347D01*
X259619Y244981D01*
X260253Y245807D01*
X260651Y246768D01*
X260787Y247800D01*
X260651Y248832D01*
X260253Y249793D01*
X259619Y250619D01*
X258793Y251253D01*
X257832Y251651D01*
X256800Y251787D01*
X255768Y251651D01*
X254807Y251253D01*
X253981Y250619D01*
X253347Y249793D01*
X252949Y248832D01*
X252813Y247800D01*
X252826Y247703D01*
X252822Y247537D01*
X252802Y247328D01*
X252768Y247132D01*
X252721Y246949D01*
X252662Y246776D01*
X252589Y246611D01*
X252503Y246454D01*
X252403Y246302D01*
X252346Y246230D01*
X242858Y236742D01*
X242416Y236080D01*
X242261Y235300D01*
Y196845D01*
X239255Y193839D01*
X146500D01*
X145720Y193684D01*
X145058Y193242D01*
X133158Y181342D01*
X132716Y180680D01*
X132561Y179900D01*
X132716Y179120D01*
X133158Y178458D01*
X133820Y178016D01*
X134600Y177861D01*
X135380Y178016D01*
X136042Y178458D01*
X139317Y181733D01*
X139778Y181486D01*
X139661Y180900D01*
X139816Y180120D01*
X140258Y179458D01*
X140920Y179016D01*
X141700Y178861D01*
X142480Y179016D01*
X143142Y179458D01*
X143584Y180120D01*
X143739Y180900D01*
X143584Y181680D01*
X143142Y182342D01*
X142480Y182784D01*
X141700Y182939D01*
X141113Y182823D01*
X140867Y183283D01*
X147345Y189761D01*
X226544D01*
X226691Y189748D01*
X226903Y189713D01*
X227052Y189672D01*
X227071Y189390D01*
Y183500D01*
X227187Y182915D01*
X227519Y182419D01*
X228791Y181146D01*
X228916Y180520D01*
X229271Y179989D01*
Y163300D01*
X229387Y162715D01*
X229719Y162219D01*
X230392Y161546D01*
X230516Y160920D01*
X230637Y160739D01*
X230369Y160239D01*
X227431D01*
X227163Y160739D01*
X227284Y160920D01*
X227439Y161700D01*
X227284Y162480D01*
X226842Y163142D01*
X226180Y163584D01*
X225400Y163739D01*
X224620Y163584D01*
X223958Y163142D01*
X223516Y162480D01*
X223361Y161700D01*
X223516Y160920D01*
X223518Y160917D01*
X223385Y160597D01*
X223256Y160409D01*
X223002Y160239D01*
X199247D01*
X199096Y160739D01*
X199484Y161320D01*
X199639Y162100D01*
X199484Y162880D01*
X199042Y163542D01*
X198380Y163984D01*
X197754Y164109D01*
X195529Y166333D01*
Y180489D01*
X195884Y181020D01*
X196039Y181800D01*
X195884Y182580D01*
X195442Y183242D01*
X194780Y183684D01*
X194000Y183839D01*
X193220Y183684D01*
X192558Y183242D01*
X192116Y182580D01*
X191961Y181800D01*
X192116Y181020D01*
X192471Y180489D01*
Y165700D01*
X192587Y165115D01*
X192919Y164619D01*
X195591Y161946D01*
X195716Y161320D01*
X196104Y160739D01*
X195954Y160239D01*
X193143D01*
X192975Y160500D01*
X191000D01*
Y161500D01*
X190000D01*
Y163552D01*
X189807Y163664D01*
X189784Y163780D01*
X189429Y164311D01*
Y177100D01*
X189313Y177685D01*
X188981Y178181D01*
X185108Y182054D01*
X184984Y182680D01*
X184542Y183342D01*
X183880Y183784D01*
X183100Y183939D01*
X182320Y183784D01*
X181658Y183342D01*
X181216Y182680D01*
X181061Y181900D01*
X181216Y181120D01*
X181658Y180458D01*
X182320Y180016D01*
X182946Y179892D01*
X186371Y176467D01*
Y164311D01*
X186016Y163780D01*
X185861Y163000D01*
X186016Y162220D01*
X186458Y161558D01*
X187120Y161116D01*
X187900Y160961D01*
X188628Y161106D01*
X188871Y160965D01*
X188955Y160650D01*
X188665Y160239D01*
X115048D01*
X114576Y160555D01*
X113600Y160749D01*
X112625Y160555D01*
X111798Y160002D01*
X111245Y159176D01*
X111051Y158200D01*
X111245Y157225D01*
X111798Y156398D01*
X112625Y155845D01*
X113600Y155651D01*
X114576Y155845D01*
X115029Y156148D01*
X115274Y156161D01*
X189804D01*
X190037Y155661D01*
X189716Y155180D01*
X189645Y154821D01*
X189093Y154609D01*
X188680Y154884D01*
X187900Y155039D01*
X187120Y154884D01*
X186458Y154442D01*
X186016Y153780D01*
X185861Y153000D01*
X186016Y152220D01*
X186458Y151558D01*
X187120Y151116D01*
X187746Y150991D01*
X188534Y150203D01*
X188288Y149742D01*
X187800Y149839D01*
X187020Y149684D01*
X186358Y149242D01*
X185916Y148580D01*
X185761Y147800D01*
X185916Y147020D01*
X186358Y146358D01*
X187020Y145916D01*
X187800Y145761D01*
X188580Y145916D01*
X189242Y146358D01*
X189684Y147020D01*
X189839Y147800D01*
X189742Y148288D01*
X190203Y148534D01*
X190571Y148167D01*
Y123200D01*
X190687Y122615D01*
X191019Y122119D01*
X199619Y113519D01*
X200115Y113187D01*
X200700Y113071D01*
X216166D01*
X227671Y101567D01*
Y100811D01*
X227316Y100280D01*
X227161Y99500D01*
X227316Y98720D01*
X227758Y98058D01*
X228420Y97616D01*
X229200Y97461D01*
X229980Y97616D01*
X230642Y98058D01*
X231084Y98720D01*
X231239Y99500D01*
X231084Y100280D01*
X230729Y100811D01*
Y102200D01*
X230613Y102785D01*
X230281Y103281D01*
X229927Y103636D01*
X230044Y104022D01*
X230124Y104146D01*
X230742Y104558D01*
X231184Y105220D01*
X231339Y106000D01*
X231184Y106780D01*
X230742Y107442D01*
X230080Y107884D01*
X229300Y108039D01*
X228520Y107884D01*
X227858Y107442D01*
X227446Y106825D01*
X227322Y106744D01*
X226936Y106627D01*
X218954Y114609D01*
X219146Y115071D01*
X221267D01*
X226092Y110246D01*
X226216Y109620D01*
X226658Y108958D01*
X227320Y108516D01*
X228100Y108361D01*
X228880Y108516D01*
X229542Y108958D01*
X229984Y109620D01*
X230139Y110400D01*
X229984Y111180D01*
X229542Y111842D01*
X228880Y112284D01*
X228254Y112408D01*
X222981Y117681D01*
X222485Y118013D01*
X221900Y118129D01*
X208933D01*
X205229Y121834D01*
Y153389D01*
X205584Y153920D01*
X205739Y154700D01*
X205584Y155480D01*
X205463Y155661D01*
X205731Y156161D01*
X222624D01*
X222711Y156155D01*
X223324Y155745D01*
X224300Y155551D01*
X225275Y155745D01*
X225889Y156155D01*
X225976Y156161D01*
X248536D01*
X248803Y155661D01*
X248616Y155380D01*
X248461Y154600D01*
X248616Y153820D01*
X248971Y153289D01*
Y132651D01*
X248471Y132500D01*
X248242Y132842D01*
X247580Y133284D01*
X246800Y133439D01*
X246020Y133284D01*
X245358Y132842D01*
X244916Y132180D01*
X244761Y131400D01*
X244916Y130620D01*
X245271Y130089D01*
Y94551D01*
X244658Y94142D01*
X244216Y93480D01*
X244061Y92700D01*
X244216Y91920D01*
X244658Y91258D01*
X245320Y90816D01*
X246100Y90661D01*
X246880Y90816D01*
X247542Y91258D01*
X247984Y91920D01*
X248139Y92700D01*
X248138Y92703D01*
X248213Y92815D01*
X248329Y93400D01*
Y129821D01*
X248471Y129941D01*
X248971Y129711D01*
Y88534D01*
X248846Y88408D01*
X248220Y88284D01*
X247558Y87842D01*
X247116Y87180D01*
X246961Y86400D01*
X247116Y85620D01*
X247558Y84958D01*
X247730Y84843D01*
X247578Y84343D01*
X230422D01*
X230270Y84843D01*
X230442Y84958D01*
X230884Y85620D01*
X231009Y86246D01*
X235481Y90719D01*
X235813Y91215D01*
X235929Y91800D01*
Y117300D01*
X235813Y117885D01*
X235481Y118381D01*
X232829Y121034D01*
Y122418D01*
X233329Y122644D01*
X233820Y122316D01*
X234600Y122161D01*
X235380Y122316D01*
X236042Y122758D01*
X236484Y123420D01*
X236571Y123855D01*
X236639Y124200D01*
X237114Y124218D01*
X237400Y124161D01*
X238180Y124316D01*
X238842Y124758D01*
X239284Y125420D01*
X239359Y125799D01*
X239588Y126239D01*
X239924Y126325D01*
X240380Y126416D01*
X241042Y126858D01*
X241484Y127520D01*
X241559Y127899D01*
X241788Y128339D01*
X242124Y128425D01*
X242580Y128516D01*
X243242Y128958D01*
X243684Y129620D01*
X243839Y130400D01*
X243684Y131180D01*
X243242Y131842D01*
X242580Y132284D01*
X241800Y132439D01*
X241020Y132284D01*
X240358Y131842D01*
X239916Y131180D01*
X239841Y130801D01*
X239612Y130361D01*
X239276Y130275D01*
X238820Y130184D01*
X238158Y129742D01*
X237716Y129080D01*
X237641Y128701D01*
X237412Y128261D01*
X237076Y128175D01*
X236620Y128084D01*
X235958Y127642D01*
X235516Y126980D01*
X235430Y126545D01*
X235361Y126200D01*
X234886Y126182D01*
X234600Y126239D01*
X233820Y126084D01*
X233329Y125756D01*
X232829Y125981D01*
Y127666D01*
X238081Y132919D01*
X238413Y133415D01*
X238529Y134000D01*
Y138389D01*
X238884Y138920D01*
X239039Y139700D01*
X238884Y140480D01*
X238442Y141142D01*
X237780Y141584D01*
X237000Y141739D01*
X236220Y141584D01*
X235558Y141142D01*
X235116Y140480D01*
X234961Y139700D01*
X235091Y139044D01*
X234620Y138849D01*
X234491Y139042D01*
X233830Y139484D01*
X233050Y139639D01*
X232269Y139484D01*
X231608Y139042D01*
X231166Y138380D01*
X231010Y137600D01*
X231166Y136820D01*
X231608Y136158D01*
X232269Y135716D01*
X233050Y135561D01*
X233830Y135716D01*
X234491Y136158D01*
X234934Y136820D01*
X234971Y137006D01*
X235471Y136957D01*
Y134634D01*
X230219Y129381D01*
X229887Y128885D01*
X229771Y128300D01*
Y120400D01*
X229887Y119815D01*
X230219Y119319D01*
X232871Y116666D01*
Y92434D01*
X228846Y88408D01*
X228220Y88284D01*
X227558Y87842D01*
X227116Y87180D01*
X226961Y86400D01*
X227116Y85620D01*
X227558Y84958D01*
X227730Y84843D01*
X227578Y84343D01*
X197100D01*
X195795Y84171D01*
X194578Y83667D01*
X193534Y82866D01*
X185511Y74843D01*
X165715D01*
X165405Y74971D01*
X164100Y75143D01*
X123189D01*
X118666Y79666D01*
X117622Y80467D01*
X116405Y80971D01*
X115100Y81143D01*
X58700D01*
X57395Y80971D01*
X56178Y80467D01*
X55134Y79666D01*
X54134Y78666D01*
X53333Y77622D01*
X52829Y76405D01*
X52657Y75100D01*
Y70000D01*
X52829Y68695D01*
X53333Y67478D01*
X54134Y66434D01*
X55178Y65632D01*
X56395Y65129D01*
X56920Y65060D01*
X56995Y65029D01*
X58300Y64857D01*
X73800D01*
X75105Y65029D01*
X76322Y65532D01*
X77366Y66334D01*
X78167Y67378D01*
X78671Y68595D01*
X78843Y69900D01*
X78740Y70681D01*
X79070Y71057D01*
X113011D01*
X117534Y66534D01*
X118578Y65733D01*
X119795Y65229D01*
X121100Y65057D01*
X128126D01*
X128278Y64557D01*
X127598Y64102D01*
X127045Y63275D01*
X126851Y62300D01*
X127045Y61325D01*
X127598Y60498D01*
X128425Y59945D01*
X129400Y59751D01*
X130376Y59945D01*
X131202Y60498D01*
X131755Y61325D01*
X131949Y62300D01*
X131755Y63275D01*
X131202Y64102D01*
X130522Y64557D01*
X130674Y65057D01*
X162785D01*
X163095Y64929D01*
X164400Y64757D01*
X187600D01*
X188905Y64929D01*
X190122Y65433D01*
X191166Y66234D01*
X199189Y74257D01*
X225878D01*
X226030Y73757D01*
X225858Y73642D01*
X225416Y72980D01*
X225261Y72200D01*
X225416Y71420D01*
X225858Y70758D01*
X226520Y70316D01*
X227300Y70161D01*
X228080Y70316D01*
X228742Y70758D01*
X229184Y71420D01*
X229240Y71701D01*
X229493Y71764D01*
X229760Y71754D01*
X230158Y71158D01*
X230820Y70716D01*
X231600Y70561D01*
X232380Y70716D01*
X233042Y71158D01*
X233484Y71820D01*
X233639Y72600D01*
X233484Y73380D01*
X233232Y73757D01*
X233500Y74257D01*
X254872D01*
X255063Y73795D01*
X252734Y71466D01*
X251933Y70422D01*
X251429Y69205D01*
X251257Y67900D01*
Y63660D01*
X251157Y62900D01*
Y47500D01*
X251329Y46195D01*
X251833Y44978D01*
X252634Y43934D01*
X253678Y43132D01*
X254895Y42629D01*
X256200Y42457D01*
X257505Y42629D01*
X258722Y43132D01*
X259766Y43934D01*
X260567Y44978D01*
X261071Y46195D01*
X261243Y47500D01*
Y62240D01*
X261343Y63000D01*
Y65811D01*
X270089Y74557D01*
X277678D01*
X278052Y74057D01*
X277961Y73600D01*
X278116Y72820D01*
X278558Y72158D01*
X279220Y71716D01*
X280000Y71561D01*
X280780Y71716D01*
X281442Y72158D01*
X281884Y72820D01*
X282039Y73600D01*
X281969Y73954D01*
X282311Y74319D01*
X282785Y74257D01*
X326378D01*
X326752Y73757D01*
X326661Y73300D01*
X326816Y72520D01*
X327171Y71989D01*
Y51711D01*
X326816Y51180D01*
X326661Y50400D01*
X326816Y49620D01*
X327258Y48958D01*
X327920Y48516D01*
X328700Y48361D01*
X329480Y48516D01*
X330142Y48958D01*
X330584Y49620D01*
X330739Y50400D01*
X330584Y51180D01*
X330229Y51711D01*
Y71989D01*
X330584Y72520D01*
X330739Y73300D01*
X330648Y73757D01*
X331022Y74257D01*
X449100D01*
X450405Y74429D01*
X451622Y74932D01*
X452666Y75734D01*
X475666Y98734D01*
X476468Y99778D01*
X476971Y100995D01*
X477143Y102300D01*
Y130262D01*
X477159Y130932D01*
X477274Y132418D01*
X477462Y133706D01*
X477718Y134791D01*
X478032Y135668D01*
X478390Y136335D01*
X478465Y136427D01*
X479298Y136680D01*
X480327Y137230D01*
X481228Y137970D01*
X481968Y138872D01*
X482518Y139900D01*
X482857Y141016D01*
X482971Y142177D01*
X482857Y143338D01*
X482518Y144454D01*
X481968Y145483D01*
X481228Y146384D01*
X480327Y147124D01*
X479298Y147674D01*
X478182Y148013D01*
X477021Y148127D01*
X467179D01*
X466018Y148013D01*
X464902Y147674D01*
X463873Y147124D01*
X462971Y146384D01*
X462232Y145483D01*
X461682Y144454D01*
X461343Y143338D01*
X461229Y142177D01*
X461343Y141016D01*
X461682Y139900D01*
X462232Y138872D01*
X462971Y137970D01*
X463873Y137230D01*
X464902Y136680D01*
X465735Y136427D01*
X465810Y136335D01*
X466168Y135668D01*
X466482Y134791D01*
X466738Y133706D01*
X466926Y132418D01*
X467041Y130932D01*
X467057Y130262D01*
Y104389D01*
X447011Y84343D01*
X329163D01*
X329114Y84843D01*
X329480Y84916D01*
X330142Y85358D01*
X330584Y86020D01*
X330739Y86800D01*
X330584Y87580D01*
X330229Y88111D01*
Y91466D01*
X331622Y92859D01*
X332083Y92613D01*
X331961Y92000D01*
X332116Y91220D01*
X332558Y90558D01*
X333220Y90116D01*
X334000Y89961D01*
X334780Y90116D01*
X335442Y90558D01*
X335884Y91220D01*
X336039Y92000D01*
X335884Y92780D01*
X335442Y93442D01*
X334780Y93884D01*
X334000Y94039D01*
X333387Y93917D01*
X333141Y94378D01*
X333981Y95219D01*
X334313Y95715D01*
X334429Y96300D01*
Y111180D01*
X334870Y111416D01*
X335020Y111316D01*
X335800Y111161D01*
X336580Y111316D01*
X337242Y111758D01*
X337684Y112420D01*
X337839Y113200D01*
X337684Y113980D01*
X337242Y114642D01*
X336580Y115084D01*
X335800Y115239D01*
X335020Y115084D01*
X334870Y114984D01*
X334429Y115220D01*
Y116489D01*
X334784Y117020D01*
X334939Y117800D01*
X334784Y118580D01*
X334342Y119242D01*
X333680Y119684D01*
X332900Y119839D01*
X332120Y119684D01*
X331458Y119242D01*
X331016Y118580D01*
X330861Y117800D01*
X331016Y117020D01*
X331371Y116489D01*
Y96934D01*
X327619Y93181D01*
X327287Y92685D01*
X327171Y92100D01*
Y88111D01*
X326816Y87580D01*
X326661Y86800D01*
X326816Y86020D01*
X327258Y85358D01*
X327920Y84916D01*
X328286Y84843D01*
X328237Y84343D01*
X290329D01*
X290093Y84784D01*
X290184Y84920D01*
X290308Y85546D01*
X302581Y97819D01*
X302913Y98315D01*
X303029Y98900D01*
Y125400D01*
X302913Y125985D01*
X302581Y126481D01*
X298308Y130754D01*
X298184Y131380D01*
X297742Y132042D01*
X297080Y132484D01*
X296300Y132639D01*
X295520Y132484D01*
X294858Y132042D01*
X294416Y131380D01*
X294261Y130600D01*
X294416Y129820D01*
X294858Y129158D01*
X295520Y128716D01*
X296146Y128592D01*
X299971Y124767D01*
Y120299D01*
X299471Y120092D01*
X294681Y124881D01*
X294185Y125213D01*
X293600Y125329D01*
X293311D01*
X292780Y125684D01*
X292000Y125839D01*
X291220Y125684D01*
X290558Y125242D01*
X290116Y124580D01*
X289961Y123800D01*
X290116Y123020D01*
X290558Y122358D01*
X291220Y121916D01*
X292000Y121761D01*
X292780Y121916D01*
X293105Y122133D01*
X297071Y118166D01*
Y101311D01*
X296716Y100780D01*
X296561Y100000D01*
X296716Y99220D01*
X297158Y98558D01*
X297820Y98116D01*
X297911Y98098D01*
X298056Y97619D01*
X288146Y87708D01*
X287520Y87584D01*
X286858Y87142D01*
X286416Y86480D01*
X286261Y85700D01*
X286416Y84920D01*
X286507Y84784D01*
X286271Y84343D01*
X284100D01*
X283790Y84471D01*
X282485Y84643D01*
X280722D01*
X280570Y85143D01*
X280742Y85258D01*
X281184Y85920D01*
X281339Y86700D01*
X281184Y87480D01*
X280742Y88142D01*
X280080Y88584D01*
X279300Y88739D01*
X278520Y88584D01*
X277858Y88142D01*
X277416Y87480D01*
X277261Y86700D01*
X277416Y85920D01*
X277858Y85258D01*
X278030Y85143D01*
X277878Y84643D01*
X268000D01*
X266695Y84471D01*
X266385Y84343D01*
X250422D01*
X250270Y84843D01*
X250442Y84958D01*
X250884Y85620D01*
X251009Y86246D01*
X251581Y86819D01*
X251913Y87315D01*
X252029Y87900D01*
Y153289D01*
X252384Y153820D01*
X252539Y154600D01*
X252384Y155380D01*
X252197Y155661D01*
X252464Y156161D01*
X253635D01*
X253786Y155661D01*
X253758Y155642D01*
X253316Y154980D01*
X253161Y154200D01*
X253316Y153420D01*
X253758Y152758D01*
X254420Y152316D01*
X255200Y152161D01*
X255980Y152316D01*
X256642Y152758D01*
X257084Y153420D01*
X257239Y154200D01*
X257084Y154980D01*
X256642Y155642D01*
X256614Y155661D01*
X256765Y156161D01*
X278557D01*
X278606Y155661D01*
X278220Y155584D01*
X277558Y155142D01*
X277116Y154480D01*
X276961Y153700D01*
X277116Y152920D01*
X277558Y152258D01*
X278220Y151816D01*
X279000Y151661D01*
X279780Y151816D01*
X280442Y152258D01*
X280884Y152920D01*
X281039Y153700D01*
X280884Y154480D01*
X280442Y155142D01*
X279780Y155584D01*
X279394Y155661D01*
X279443Y156161D01*
X297355D01*
X299484Y154032D01*
X299595Y153474D01*
X300148Y152648D01*
X300974Y152095D01*
X301509Y151989D01*
X301692Y151824D01*
X307558Y145958D01*
X307558Y145958D01*
X308220Y145516D01*
X309000Y145361D01*
X309000Y145361D01*
X413852D01*
X414325Y145045D01*
X415300Y144851D01*
X416276Y145045D01*
X417102Y145598D01*
X417655Y146424D01*
X417849Y147400D01*
X417655Y148375D01*
X417102Y149202D01*
X416276Y149755D01*
X415300Y149949D01*
X414325Y149755D01*
X413871Y149452D01*
X413626Y149439D01*
X322403D01*
X321900Y149539D01*
X321397Y149439D01*
X309845D01*
X307335Y151949D01*
X307526Y152411D01*
X309050D01*
X309830Y152566D01*
X310492Y153008D01*
X323342Y165858D01*
X323342Y165858D01*
X323784Y166520D01*
X323939Y167300D01*
Y217955D01*
X328218Y222234D01*
X328776Y222345D01*
X329602Y222898D01*
X330155Y223725D01*
X330349Y224700D01*
X330155Y225676D01*
X329602Y226502D01*
X328776Y227055D01*
X327800Y227249D01*
X326824Y227055D01*
X325998Y226502D01*
X325445Y225676D01*
X325339Y225141D01*
X325174Y224958D01*
X320458Y220242D01*
X320016Y219580D01*
X319861Y218800D01*
Y217337D01*
X319397Y217039D01*
X319361Y217043D01*
X318942Y217670D01*
X318280Y218112D01*
X317500Y218268D01*
X316720Y218112D01*
X316058Y217670D01*
X315616Y217009D01*
X315508Y216466D01*
X314994Y216208D01*
X314880Y216284D01*
X314100Y216439D01*
X313320Y216284D01*
X312658Y215842D01*
X312216Y215180D01*
X312061Y214400D01*
X312216Y213620D01*
X312658Y212958D01*
X313320Y212516D01*
X314100Y212361D01*
X314880Y212516D01*
X315542Y212958D01*
X315984Y213620D01*
X316092Y214162D01*
X316606Y214420D01*
X316720Y214345D01*
X317500Y214189D01*
X318280Y214345D01*
X318942Y214787D01*
X319361Y215413D01*
X319397Y215418D01*
X319861Y215120D01*
Y171409D01*
X319397Y171110D01*
X319361Y171115D01*
X318942Y171742D01*
X318280Y172184D01*
X317500Y172339D01*
X316720Y172184D01*
X316058Y171742D01*
X315616Y171080D01*
X315461Y170300D01*
X315616Y169520D01*
X316058Y168858D01*
X316720Y168416D01*
X317500Y168261D01*
X318280Y168416D01*
X318942Y168858D01*
X319361Y169485D01*
X319397Y169490D01*
X319861Y169191D01*
Y168145D01*
X308205Y156489D01*
X303398D01*
X302925Y156805D01*
X302391Y156911D01*
X302208Y157076D01*
X299642Y159642D01*
X298980Y160084D01*
X298200Y160239D01*
X269197D01*
X268930Y160739D01*
X269184Y161120D01*
X269339Y161900D01*
X269184Y162680D01*
X268829Y163211D01*
Y202680D01*
X269270Y202916D01*
X269420Y202816D01*
X270200Y202661D01*
X270980Y202816D01*
X271642Y203258D01*
X272084Y203920D01*
X272239Y204700D01*
X272084Y205480D01*
X271642Y206142D01*
X270980Y206584D01*
X270200Y206739D01*
X269420Y206584D01*
X269270Y206484D01*
X268829Y206720D01*
Y209854D01*
X269291Y210046D01*
X289184Y190153D01*
X288938Y189692D01*
X288700Y189739D01*
X287920Y189584D01*
X287258Y189142D01*
X286816Y188480D01*
X286661Y187700D01*
X286816Y186920D01*
X287258Y186258D01*
X287920Y185816D01*
X288700Y185661D01*
X289480Y185816D01*
X290142Y186258D01*
X290584Y186920D01*
X290739Y187700D01*
X290692Y187938D01*
X291153Y188184D01*
X294371Y184967D01*
Y175911D01*
X294016Y175380D01*
X293861Y174600D01*
X294016Y173820D01*
X294458Y173158D01*
X295120Y172716D01*
X295900Y172561D01*
X296680Y172716D01*
X297342Y173158D01*
X297784Y173820D01*
X297939Y174600D01*
X297784Y175380D01*
X297429Y175911D01*
Y185600D01*
X297313Y186185D01*
X296981Y186681D01*
X270908Y212754D01*
X270784Y213380D01*
X270342Y214042D01*
X269680Y214484D01*
X268900Y214639D01*
X268429Y214546D01*
X267929Y214912D01*
Y258200D01*
X267813Y258785D01*
X267481Y259281D01*
X261001Y265762D01*
X260852Y265922D01*
X260772Y266022D01*
Y270753D01*
X260695Y271143D01*
X260474Y271474D01*
X260143Y271695D01*
X259753Y271772D01*
D02*
G37*
G36*
X291800Y260887D02*
X290768Y260751D01*
X289807Y260353D01*
X288981Y259719D01*
X288347Y258893D01*
X287949Y257932D01*
X287813Y256900D01*
X287949Y255868D01*
X288347Y254907D01*
X288981Y254081D01*
X289807Y253447D01*
X290768Y253049D01*
X291800Y252913D01*
X292832Y253049D01*
X293793Y253447D01*
X294619Y254081D01*
X295253Y254907D01*
X295651Y255868D01*
X295787Y256900D01*
X295651Y257932D01*
X295253Y258893D01*
X294619Y259719D01*
X293793Y260353D01*
X292832Y260751D01*
X291800Y260887D01*
D02*
G37*
G36*
X281800D02*
X280768Y260751D01*
X279807Y260353D01*
X278981Y259719D01*
X278347Y258893D01*
X277949Y257932D01*
X277813Y256900D01*
X277949Y255868D01*
X278347Y254907D01*
X278981Y254081D01*
X279807Y253447D01*
X280768Y253049D01*
X281800Y252913D01*
X282832Y253049D01*
X283793Y253447D01*
X284619Y254081D01*
X285253Y254907D01*
X285651Y255868D01*
X285787Y256900D01*
X285651Y257932D01*
X285253Y258893D01*
X284619Y259719D01*
X283793Y260353D01*
X282832Y260751D01*
X281800Y260887D01*
D02*
G37*
G36*
X281600Y237287D02*
X280568Y237151D01*
X279607Y236753D01*
X278781Y236119D01*
X278147Y235293D01*
X277749Y234332D01*
X277613Y233300D01*
X277749Y232268D01*
X278147Y231307D01*
X278781Y230481D01*
X279607Y229847D01*
X280568Y229449D01*
X281600Y229313D01*
X282632Y229449D01*
X283593Y229847D01*
X284419Y230481D01*
X285053Y231307D01*
X285451Y232268D01*
X285587Y233300D01*
X285451Y234332D01*
X285053Y235293D01*
X284419Y236119D01*
X283593Y236753D01*
X282632Y237151D01*
X281600Y237287D01*
D02*
G37*
G36*
X301600D02*
X300568Y237151D01*
X299607Y236753D01*
X298781Y236119D01*
X298147Y235293D01*
X297749Y234332D01*
X297613Y233300D01*
X297749Y232268D01*
X298147Y231307D01*
X298781Y230481D01*
X299607Y229847D01*
X300568Y229449D01*
X301600Y229313D01*
X302632Y229449D01*
X302941Y229577D01*
X303144Y229428D01*
X303328Y229196D01*
X303189Y228500D01*
X303197Y228461D01*
X302781Y228183D01*
X302780Y228184D01*
X302000Y228339D01*
X301220Y228184D01*
X300558Y227742D01*
X300116Y227080D01*
X299961Y226300D01*
X300116Y225520D01*
X300558Y224858D01*
X301220Y224416D01*
X302000Y224261D01*
X302780Y224416D01*
X303442Y224858D01*
X303884Y225520D01*
X304039Y226300D01*
X304031Y226339D01*
X304447Y226617D01*
X304448Y226616D01*
X305228Y226461D01*
X306009Y226616D01*
X306670Y227058D01*
X307112Y227720D01*
X307268Y228500D01*
X307112Y229280D01*
X306670Y229942D01*
X306009Y230384D01*
X305228Y230539D01*
X305070Y230508D01*
X304788Y230961D01*
X305053Y231307D01*
X305451Y232268D01*
X305587Y233300D01*
X305451Y234332D01*
X305053Y235293D01*
X304419Y236119D01*
X303593Y236753D01*
X302632Y237151D01*
X301600Y237287D01*
D02*
G37*
G36*
X291600D02*
X290568Y237151D01*
X289607Y236753D01*
X288781Y236119D01*
X288147Y235293D01*
X287749Y234332D01*
X287613Y233300D01*
X287749Y232268D01*
X288147Y231307D01*
X288781Y230481D01*
X289607Y229847D01*
X290568Y229449D01*
X291600Y229313D01*
X292632Y229449D01*
X293593Y229847D01*
X294419Y230481D01*
X295053Y231307D01*
X295451Y232268D01*
X295587Y233300D01*
X295451Y234332D01*
X295053Y235293D01*
X294419Y236119D01*
X293593Y236753D01*
X292632Y237151D01*
X291600Y237287D01*
D02*
G37*
G36*
X58200Y235739D02*
X57420Y235584D01*
X56758Y235142D01*
X56316Y234480D01*
X56161Y233700D01*
X56316Y232920D01*
X56758Y232258D01*
X57420Y231816D01*
X58200Y231661D01*
X58980Y231816D01*
X59642Y232258D01*
X60084Y232920D01*
X60239Y233700D01*
X60084Y234480D01*
X59642Y235142D01*
X58980Y235584D01*
X58200Y235739D01*
D02*
G37*
G36*
X311600Y237287D02*
X310568Y237151D01*
X309607Y236753D01*
X308781Y236119D01*
X308147Y235293D01*
X307749Y234332D01*
X307613Y233300D01*
X307749Y232268D01*
X308147Y231307D01*
X308781Y230481D01*
X309607Y229847D01*
X310568Y229449D01*
X311600Y229313D01*
X312632Y229449D01*
X313593Y229847D01*
X314419Y230481D01*
X315053Y231307D01*
X315451Y232268D01*
X315587Y233300D01*
X315451Y234332D01*
X315053Y235293D01*
X314419Y236119D01*
X313593Y236753D01*
X312632Y237151D01*
X311600Y237287D01*
D02*
G37*
G36*
X32100Y223737D02*
X31658Y223442D01*
X31363Y223000D01*
X32100D01*
Y223737D01*
D02*
G37*
G36*
X227000Y15187D02*
X225968Y15051D01*
X225007Y14653D01*
X224181Y14019D01*
X223547Y13193D01*
X223149Y12232D01*
X223013Y11200D01*
X223149Y10168D01*
X223547Y9207D01*
X224181Y8381D01*
X225007Y7747D01*
X225968Y7349D01*
X227000Y7213D01*
X228032Y7349D01*
X228993Y7747D01*
X229819Y8381D01*
X230453Y9207D01*
X230851Y10168D01*
X230987Y11200D01*
X230851Y12232D01*
X230453Y13193D01*
X229819Y14019D01*
X228993Y14653D01*
X228032Y15051D01*
X227000Y15187D01*
D02*
G37*
G36*
X34100Y223737D02*
Y223000D01*
X34837D01*
X34542Y223442D01*
X34100Y223737D01*
D02*
G37*
G36*
X26200Y234191D02*
X25322Y234076D01*
X24504Y233737D01*
X23802Y233198D01*
X23263Y232496D01*
X22924Y231678D01*
X22809Y230800D01*
X22924Y229922D01*
X23263Y229104D01*
X23802Y228402D01*
X24504Y227863D01*
X25322Y227524D01*
X26200Y227409D01*
X27078Y227524D01*
X27896Y227863D01*
X28598Y228402D01*
X29137Y229104D01*
X29476Y229922D01*
X29591Y230800D01*
X29476Y231678D01*
X29137Y232496D01*
X28598Y233198D01*
X27896Y233737D01*
X27078Y234076D01*
X26200Y234191D01*
D02*
G37*
G36*
X251000Y228339D02*
X250220Y228184D01*
X249558Y227742D01*
X249116Y227080D01*
X248961Y226300D01*
X249116Y225520D01*
X249558Y224858D01*
X250220Y224416D01*
X251000Y224261D01*
X251780Y224416D01*
X252442Y224858D01*
X252884Y225520D01*
X253039Y226300D01*
X252884Y227080D01*
X252442Y227742D01*
X251780Y228184D01*
X251000Y228339D01*
D02*
G37*
G36*
X177900Y240539D02*
X177120Y240384D01*
X176458Y239942D01*
X176016Y239280D01*
X175861Y238500D01*
X176016Y237720D01*
X176458Y237058D01*
X177120Y236616D01*
X177900Y236461D01*
X178680Y236616D01*
X179342Y237058D01*
X179784Y237720D01*
X179939Y238500D01*
X179784Y239280D01*
X179342Y239942D01*
X178680Y240384D01*
X177900Y240539D01*
D02*
G37*
G36*
X104300Y239839D02*
X103520Y239684D01*
X102858Y239242D01*
X102416Y238580D01*
X102261Y237800D01*
X102416Y237020D01*
X102858Y236358D01*
X103520Y235916D01*
X104300Y235761D01*
X105080Y235916D01*
X105742Y236358D01*
X106184Y237020D01*
X106339Y237800D01*
X106184Y238580D01*
X105742Y239242D01*
X105080Y239684D01*
X104300Y239839D01*
D02*
G37*
G36*
X18562Y244182D02*
X13838D01*
X13448Y244104D01*
X13117Y243883D01*
X12896Y243552D01*
X12818Y243162D01*
Y238438D01*
X12896Y238048D01*
X13117Y237717D01*
X13448Y237496D01*
X13838Y237418D01*
X18562D01*
X18952Y237496D01*
X19283Y237717D01*
X19504Y238048D01*
X19582Y238438D01*
Y243162D01*
X19504Y243552D01*
X19283Y243883D01*
X18952Y244104D01*
X18562Y244182D01*
D02*
G37*
G36*
X281600Y247287D02*
X280568Y247151D01*
X279607Y246753D01*
X278781Y246119D01*
X278147Y245293D01*
X277749Y244332D01*
X277613Y243300D01*
X277749Y242268D01*
X278147Y241307D01*
X278781Y240481D01*
X279607Y239847D01*
X280568Y239449D01*
X281600Y239313D01*
X282632Y239449D01*
X283593Y239847D01*
X284419Y240481D01*
X285053Y241307D01*
X285451Y242268D01*
X285587Y243300D01*
X285451Y244332D01*
X285053Y245293D01*
X284419Y246119D01*
X283593Y246753D01*
X282632Y247151D01*
X281600Y247287D01*
D02*
G37*
G36*
X47400Y242239D02*
X46620Y242084D01*
X45958Y241642D01*
X45516Y240980D01*
X45361Y240200D01*
X45516Y239420D01*
X45958Y238758D01*
X46620Y238316D01*
X47400Y238161D01*
X48180Y238316D01*
X48842Y238758D01*
X49284Y239420D01*
X49439Y240200D01*
X49284Y240980D01*
X48842Y241642D01*
X48180Y242084D01*
X47400Y242239D01*
D02*
G37*
G36*
X234200Y241787D02*
X233168Y241651D01*
X232207Y241253D01*
X231381Y240619D01*
X230747Y239793D01*
X230349Y238832D01*
X230213Y237800D01*
X230349Y236768D01*
X230747Y235807D01*
X231381Y234981D01*
X232207Y234347D01*
X233168Y233949D01*
X234200Y233813D01*
X235232Y233949D01*
X236193Y234347D01*
X237019Y234981D01*
X237653Y235807D01*
X238051Y236768D01*
X238187Y237800D01*
X238051Y238832D01*
X237653Y239793D01*
X237019Y240619D01*
X236193Y241253D01*
X235232Y241651D01*
X234200Y241787D01*
D02*
G37*
G36*
X213900Y241587D02*
X212868Y241451D01*
X211907Y241053D01*
X211081Y240419D01*
X210447Y239593D01*
X210049Y238632D01*
X209913Y237600D01*
X210049Y236568D01*
X210447Y235607D01*
X211081Y234781D01*
X211907Y234147D01*
X212868Y233749D01*
X213900Y233613D01*
X214932Y233749D01*
X215893Y234147D01*
X216719Y234781D01*
X217353Y235607D01*
X217751Y236568D01*
X217887Y237600D01*
X217751Y238632D01*
X217353Y239593D01*
X216719Y240419D01*
X215893Y241053D01*
X214932Y241451D01*
X213900Y241587D01*
D02*
G37*
G36*
X256800Y241787D02*
X255768Y241651D01*
X254807Y241253D01*
X253981Y240619D01*
X253347Y239793D01*
X252949Y238832D01*
X252813Y237800D01*
X252949Y236768D01*
X253347Y235807D01*
X253981Y234981D01*
X254807Y234347D01*
X255768Y233949D01*
X256800Y233813D01*
X257832Y233949D01*
X258793Y234347D01*
X259619Y234981D01*
X260253Y235807D01*
X260651Y236768D01*
X260787Y237800D01*
X260651Y238832D01*
X260253Y239793D01*
X259619Y240619D01*
X258793Y241253D01*
X257832Y241651D01*
X256800Y241787D01*
D02*
G37*
G36*
X183000Y239439D02*
X182220Y239284D01*
X181558Y238842D01*
X181116Y238180D01*
X180961Y237400D01*
X181116Y236620D01*
X181558Y235958D01*
X182220Y235516D01*
X183000Y235361D01*
X183780Y235516D01*
X184442Y235958D01*
X184884Y236620D01*
X185039Y237400D01*
X184884Y238180D01*
X184442Y238842D01*
X183780Y239284D01*
X183000Y239439D01*
D02*
G37*
G36*
X478100Y246865D02*
X476939Y246751D01*
X475823Y246412D01*
X474794Y245862D01*
X473893Y245122D01*
X473153Y244221D01*
X472603Y243192D01*
X472264Y242076D01*
X472150Y240915D01*
X472264Y239754D01*
X472603Y238638D01*
X473153Y237609D01*
X473893Y236708D01*
X474794Y235968D01*
X475823Y235418D01*
X476939Y235079D01*
X478100Y234965D01*
X479261Y235079D01*
X480377Y235418D01*
X481406Y235968D01*
X482307Y236708D01*
X483047Y237609D01*
X483597Y238638D01*
X483936Y239754D01*
X484050Y240915D01*
X483936Y242076D01*
X483597Y243192D01*
X483047Y244221D01*
X482307Y245122D01*
X481406Y245862D01*
X480377Y246412D01*
X479261Y246751D01*
X478100Y246865D01*
D02*
G37*
G36*
X216853Y271572D02*
X210947D01*
X210557Y271495D01*
X210226Y271274D01*
X210005Y270943D01*
X209928Y270553D01*
Y269129D01*
X208500D01*
X207915Y269013D01*
X207419Y268681D01*
X187119Y248381D01*
X186787Y247885D01*
X186671Y247300D01*
X186787Y246715D01*
X186871Y246590D01*
Y206411D01*
X186516Y205880D01*
X186361Y205100D01*
X186516Y204320D01*
X186958Y203658D01*
X187620Y203216D01*
X188400Y203061D01*
X189180Y203216D01*
X189842Y203658D01*
X190284Y204320D01*
X190439Y205100D01*
X190284Y205880D01*
X189929Y206411D01*
Y226480D01*
X190370Y226716D01*
X190520Y226616D01*
X191300Y226461D01*
X192080Y226616D01*
X192471Y226877D01*
X192971Y226609D01*
Y203911D01*
X192616Y203380D01*
X192461Y202600D01*
X192616Y201820D01*
X193058Y201158D01*
X193720Y200716D01*
X194500Y200561D01*
X195280Y200716D01*
X195942Y201158D01*
X196384Y201820D01*
X196539Y202600D01*
X196384Y203380D01*
X196029Y203911D01*
Y237566D01*
X211726Y253263D01*
X211801Y253312D01*
X211922Y253372D01*
X212083Y253432D01*
X212284Y253489D01*
X212525Y253539D01*
X212793Y253578D01*
X213485Y253625D01*
X213793Y253627D01*
X213900Y253613D01*
X214932Y253749D01*
X215893Y254147D01*
X216719Y254781D01*
X217353Y255607D01*
X217751Y256568D01*
X217887Y257600D01*
X217751Y258632D01*
X217353Y259593D01*
X216719Y260419D01*
X215893Y261053D01*
X214932Y261451D01*
X213900Y261587D01*
X212868Y261451D01*
X211907Y261053D01*
X211081Y260419D01*
X210447Y259593D01*
X210049Y258632D01*
X209913Y257600D01*
X209927Y257493D01*
X209925Y257185D01*
X209878Y256493D01*
X209839Y256225D01*
X209789Y255984D01*
X209733Y255783D01*
X209672Y255622D01*
X209612Y255501D01*
X209563Y255426D01*
X193419Y239281D01*
X193087Y238785D01*
X192971Y238200D01*
Y230391D01*
X192471Y230123D01*
X192080Y230384D01*
X191300Y230539D01*
X190520Y230384D01*
X190370Y230284D01*
X189929Y230520D01*
Y246866D01*
X209134Y266071D01*
X209928D01*
Y264647D01*
X210005Y264257D01*
X210226Y263926D01*
X210557Y263705D01*
X210947Y263628D01*
X216853D01*
X217243Y263705D01*
X217574Y263926D01*
X217795Y264257D01*
X217872Y264647D01*
Y270553D01*
X217795Y270943D01*
X217574Y271274D01*
X217243Y271495D01*
X216853Y271572D01*
D02*
G37*
G36*
X305655Y265900D02*
X302800D01*
Y263045D01*
X302832Y263049D01*
X303793Y263447D01*
X304619Y264081D01*
X305253Y264907D01*
X305651Y265868D01*
X305655Y265900D01*
D02*
G37*
G36*
X237153Y271772D02*
X231247D01*
X230857Y271695D01*
X230526Y271474D01*
X230305Y271143D01*
X230228Y270753D01*
Y264847D01*
X230305Y264457D01*
X230526Y264126D01*
X230857Y263905D01*
X231247Y263828D01*
X237153D01*
X237543Y263905D01*
X237874Y264126D01*
X238095Y264457D01*
X238172Y264847D01*
Y270753D01*
X238095Y271143D01*
X237874Y271474D01*
X237543Y271695D01*
X237153Y271772D01*
D02*
G37*
G36*
X72900Y6439D02*
X72120Y6284D01*
X71458Y5842D01*
X71016Y5180D01*
X70861Y4400D01*
X71016Y3620D01*
X71458Y2958D01*
X72120Y2516D01*
X72900Y2361D01*
X73680Y2516D01*
X74342Y2958D01*
X74784Y3620D01*
X74939Y4400D01*
X74784Y5180D01*
X74342Y5842D01*
X73680Y6284D01*
X72900Y6439D01*
D02*
G37*
G36*
X95500Y8839D02*
X94720Y8684D01*
X94058Y8242D01*
X93616Y7580D01*
X93461Y6800D01*
X93616Y6020D01*
X94058Y5358D01*
X94720Y4916D01*
X95500Y4761D01*
X96280Y4916D01*
X96942Y5358D01*
X97384Y6020D01*
X97539Y6800D01*
X97384Y7580D01*
X96942Y8242D01*
X96280Y8684D01*
X95500Y8839D01*
D02*
G37*
G36*
X290800Y265900D02*
X287945D01*
X287949Y265868D01*
X288347Y264907D01*
X288981Y264081D01*
X289807Y263447D01*
X290768Y263049D01*
X290800Y263045D01*
Y265900D01*
D02*
G37*
G36*
X280800D02*
X277945D01*
X277949Y265868D01*
X278347Y264907D01*
X278981Y264081D01*
X279807Y263447D01*
X280768Y263049D01*
X280800Y263045D01*
Y265900D01*
D02*
G37*
G36*
X300800D02*
X297945D01*
X297949Y265868D01*
X298347Y264907D01*
X298981Y264081D01*
X299807Y263447D01*
X300768Y263049D01*
X300800Y263045D01*
Y265900D01*
D02*
G37*
G36*
X295655D02*
X292800D01*
Y263045D01*
X292832Y263049D01*
X293793Y263447D01*
X294619Y264081D01*
X295253Y264907D01*
X295651Y265868D01*
X295655Y265900D01*
D02*
G37*
G36*
X285655D02*
X282800D01*
Y263045D01*
X282832Y263049D01*
X283793Y263447D01*
X284619Y264081D01*
X285253Y264907D01*
X285651Y265868D01*
X285655Y265900D01*
D02*
G37*
G36*
X282800Y270755D02*
Y267900D01*
X285655D01*
X285651Y267932D01*
X285253Y268893D01*
X284619Y269719D01*
X283793Y270353D01*
X282832Y270751D01*
X282800Y270755D01*
D02*
G37*
G36*
X290800D02*
X290768Y270751D01*
X289807Y270353D01*
X288981Y269719D01*
X288347Y268893D01*
X287949Y267932D01*
X287945Y267900D01*
X290800D01*
Y270755D01*
D02*
G37*
G36*
X302800D02*
Y267900D01*
X305655D01*
X305651Y267932D01*
X305253Y268893D01*
X304619Y269719D01*
X303793Y270353D01*
X302832Y270751D01*
X302800Y270755D01*
D02*
G37*
G36*
X292800D02*
Y267900D01*
X295655D01*
X295651Y267932D01*
X295253Y268893D01*
X294619Y269719D01*
X293793Y270353D01*
X292832Y270751D01*
X292800Y270755D01*
D02*
G37*
G36*
X314753Y270872D02*
X312800D01*
Y267900D01*
X315772D01*
Y269853D01*
X315695Y270243D01*
X315474Y270574D01*
X315143Y270795D01*
X314753Y270872D01*
D02*
G37*
G36*
X329453Y270572D02*
X327500D01*
Y267600D01*
X330472D01*
Y269553D01*
X330395Y269943D01*
X330174Y270274D01*
X329843Y270495D01*
X329453Y270572D01*
D02*
G37*
G36*
X325500D02*
X323547D01*
X323157Y270495D01*
X322826Y270274D01*
X322605Y269943D01*
X322528Y269553D01*
Y267600D01*
X325500D01*
Y270572D01*
D02*
G37*
G36*
X310800Y270872D02*
X308847D01*
X308457Y270795D01*
X308126Y270574D01*
X307905Y270243D01*
X307828Y269853D01*
Y267900D01*
X310800D01*
Y270872D01*
D02*
G37*
G36*
X300800Y270755D02*
X300768Y270751D01*
X299807Y270353D01*
X298981Y269719D01*
X298347Y268893D01*
X297949Y267932D01*
X297945Y267900D01*
X300800D01*
Y270755D01*
D02*
G37*
G36*
X280800D02*
X280768Y270751D01*
X279807Y270353D01*
X278981Y269719D01*
X278347Y268893D01*
X277949Y267932D01*
X277945Y267900D01*
X280800D01*
Y270755D01*
D02*
G37*
G36*
X83900Y270887D02*
X82868Y270751D01*
X81907Y270353D01*
X81081Y269719D01*
X80447Y268893D01*
X80049Y267932D01*
X79913Y266900D01*
X80049Y265868D01*
X80447Y264907D01*
X81081Y264081D01*
X81907Y263447D01*
X82868Y263049D01*
X83900Y262913D01*
X84932Y263049D01*
X85893Y263447D01*
X86719Y264081D01*
X87353Y264907D01*
X87751Y265868D01*
X87887Y266900D01*
X87751Y267932D01*
X87353Y268893D01*
X86719Y269719D01*
X85893Y270353D01*
X84932Y270751D01*
X83900Y270887D01*
D02*
G37*
G36*
X330472Y265600D02*
X327500D01*
Y262628D01*
X329453D01*
X329843Y262705D01*
X330174Y262926D01*
X330395Y263257D01*
X330472Y263647D01*
Y265600D01*
D02*
G37*
G36*
X93900Y270887D02*
X92868Y270751D01*
X91907Y270353D01*
X91081Y269719D01*
X90447Y268893D01*
X90049Y267932D01*
X89913Y266900D01*
X90049Y265868D01*
X90447Y264907D01*
X91081Y264081D01*
X91907Y263447D01*
X92868Y263049D01*
X93900Y262913D01*
X94932Y263049D01*
X95893Y263447D01*
X96719Y264081D01*
X97353Y264907D01*
X97751Y265868D01*
X97887Y266900D01*
X97751Y267932D01*
X97353Y268893D01*
X96719Y269719D01*
X95893Y270353D01*
X94932Y270751D01*
X93900Y270887D01*
D02*
G37*
G36*
X113900D02*
X112868Y270751D01*
X111907Y270353D01*
X111081Y269719D01*
X110447Y268893D01*
X110049Y267932D01*
X109913Y266900D01*
X110049Y265868D01*
X110447Y264907D01*
X111081Y264081D01*
X111907Y263447D01*
X112868Y263049D01*
X113900Y262913D01*
X114932Y263049D01*
X115893Y263447D01*
X116719Y264081D01*
X117353Y264907D01*
X117751Y265868D01*
X117887Y266900D01*
X117751Y267932D01*
X117353Y268893D01*
X116719Y269719D01*
X115893Y270353D01*
X114932Y270751D01*
X113900Y270887D01*
D02*
G37*
G36*
X103900D02*
X102868Y270751D01*
X101907Y270353D01*
X101081Y269719D01*
X100447Y268893D01*
X100049Y267932D01*
X99913Y266900D01*
X100049Y265868D01*
X100447Y264907D01*
X101081Y264081D01*
X101907Y263447D01*
X102868Y263049D01*
X103900Y262913D01*
X104932Y263049D01*
X105893Y263447D01*
X106719Y264081D01*
X107353Y264907D01*
X107751Y265868D01*
X107887Y266900D01*
X107751Y267932D01*
X107353Y268893D01*
X106719Y269719D01*
X105893Y270353D01*
X104932Y270751D01*
X103900Y270887D01*
D02*
G37*
G36*
X336500Y270587D02*
X335468Y270451D01*
X334507Y270053D01*
X333681Y269419D01*
X333047Y268593D01*
X332649Y267632D01*
X332513Y266600D01*
X332649Y265568D01*
X333047Y264607D01*
X333681Y263781D01*
X334507Y263147D01*
X335468Y262749D01*
X336500Y262613D01*
X337532Y262749D01*
X338493Y263147D01*
X339319Y263781D01*
X339953Y264607D01*
X340351Y265568D01*
X340487Y266600D01*
X340351Y267632D01*
X339953Y268593D01*
X339319Y269419D01*
X338493Y270053D01*
X337532Y270451D01*
X336500Y270587D01*
D02*
G37*
G36*
X478100Y266550D02*
X476939Y266436D01*
X475823Y266097D01*
X474794Y265547D01*
X473893Y264807D01*
X473153Y263906D01*
X472603Y262877D01*
X472264Y261761D01*
X472150Y260600D01*
X472264Y259439D01*
X472603Y258323D01*
X473153Y257294D01*
X473893Y256393D01*
X474794Y255653D01*
X475823Y255103D01*
X476939Y254764D01*
X478100Y254650D01*
X479261Y254764D01*
X480377Y255103D01*
X481406Y255653D01*
X482307Y256393D01*
X483047Y257294D01*
X483597Y258323D01*
X483936Y259439D01*
X484050Y260600D01*
X483936Y261761D01*
X483597Y262877D01*
X483047Y263906D01*
X482307Y264807D01*
X481406Y265547D01*
X480377Y266097D01*
X479261Y266436D01*
X478100Y266550D01*
D02*
G37*
G36*
X346500Y270587D02*
X345468Y270451D01*
X344507Y270053D01*
X343681Y269419D01*
X343047Y268593D01*
X342649Y267632D01*
X342513Y266600D01*
X342649Y265568D01*
X343047Y264607D01*
X343681Y263781D01*
X344507Y263147D01*
X345468Y262749D01*
X346500Y262613D01*
X347532Y262749D01*
X348493Y263147D01*
X349319Y263781D01*
X349953Y264607D01*
X350351Y265568D01*
X350487Y266600D01*
X350351Y267632D01*
X349953Y268593D01*
X349319Y269419D01*
X348493Y270053D01*
X347532Y270451D01*
X346500Y270587D01*
D02*
G37*
G36*
X325500Y265600D02*
X322528D01*
Y263647D01*
X322605Y263257D01*
X322826Y262926D01*
X323157Y262705D01*
X323547Y262628D01*
X325500D01*
Y265600D01*
D02*
G37*
G36*
X356500Y270587D02*
X355468Y270451D01*
X354507Y270053D01*
X353681Y269419D01*
X353047Y268593D01*
X352649Y267632D01*
X352513Y266600D01*
X352649Y265568D01*
X353047Y264607D01*
X353681Y263781D01*
X354507Y263147D01*
X355468Y262749D01*
X356500Y262613D01*
X357532Y262749D01*
X358493Y263147D01*
X359319Y263781D01*
X359953Y264607D01*
X360351Y265568D01*
X360487Y266600D01*
X360351Y267632D01*
X359953Y268593D01*
X359319Y269419D01*
X358493Y270053D01*
X357532Y270451D01*
X356500Y270587D01*
D02*
G37*
G36*
X183900Y270887D02*
X182868Y270751D01*
X181907Y270353D01*
X181081Y269719D01*
X180447Y268893D01*
X180049Y267932D01*
X179913Y266900D01*
X180049Y265868D01*
X180447Y264907D01*
X181081Y264081D01*
X181907Y263447D01*
X182868Y263049D01*
X183900Y262913D01*
X184932Y263049D01*
X185893Y263447D01*
X186719Y264081D01*
X187353Y264907D01*
X187751Y265868D01*
X187887Y266900D01*
X187751Y267932D01*
X187353Y268893D01*
X186719Y269719D01*
X185893Y270353D01*
X184932Y270751D01*
X183900Y270887D01*
D02*
G37*
G36*
X173900D02*
X172868Y270751D01*
X171907Y270353D01*
X171081Y269719D01*
X170447Y268893D01*
X170049Y267932D01*
X169913Y266900D01*
X170049Y265868D01*
X170447Y264907D01*
X171081Y264081D01*
X171907Y263447D01*
X172868Y263049D01*
X173900Y262913D01*
X174932Y263049D01*
X175893Y263447D01*
X176719Y264081D01*
X177353Y264907D01*
X177751Y265868D01*
X177887Y266900D01*
X177751Y267932D01*
X177353Y268893D01*
X176719Y269719D01*
X175893Y270353D01*
X174932Y270751D01*
X173900Y270887D01*
D02*
G37*
G36*
X196853Y270872D02*
X190947D01*
X190557Y270795D01*
X190226Y270574D01*
X190005Y270243D01*
X189928Y269853D01*
Y263947D01*
X190005Y263557D01*
X190226Y263226D01*
X190557Y263005D01*
X190947Y262928D01*
X196853D01*
X197243Y263005D01*
X197574Y263226D01*
X197795Y263557D01*
X197872Y263947D01*
Y269853D01*
X197795Y270243D01*
X197574Y270574D01*
X197243Y270795D01*
X196853Y270872D01*
D02*
G37*
G36*
X315772Y265900D02*
X312800D01*
Y262928D01*
X314753D01*
X315143Y263005D01*
X315474Y263226D01*
X315695Y263557D01*
X315772Y263947D01*
Y265900D01*
D02*
G37*
G36*
X310800D02*
X307828D01*
Y263947D01*
X307905Y263557D01*
X308126Y263226D01*
X308457Y263005D01*
X308847Y262928D01*
X310800D01*
Y265900D01*
D02*
G37*
G36*
X133900Y270887D02*
X132868Y270751D01*
X131907Y270353D01*
X131081Y269719D01*
X130447Y268893D01*
X130049Y267932D01*
X129913Y266900D01*
X130049Y265868D01*
X130447Y264907D01*
X131081Y264081D01*
X131907Y263447D01*
X132868Y263049D01*
X133900Y262913D01*
X134932Y263049D01*
X135893Y263447D01*
X136719Y264081D01*
X137353Y264907D01*
X137751Y265868D01*
X137887Y266900D01*
X137751Y267932D01*
X137353Y268893D01*
X136719Y269719D01*
X135893Y270353D01*
X134932Y270751D01*
X133900Y270887D01*
D02*
G37*
G36*
X123900D02*
X122868Y270751D01*
X121907Y270353D01*
X121081Y269719D01*
X120447Y268893D01*
X120049Y267932D01*
X119913Y266900D01*
X120049Y265868D01*
X120447Y264907D01*
X121081Y264081D01*
X121907Y263447D01*
X122868Y263049D01*
X123900Y262913D01*
X124932Y263049D01*
X125893Y263447D01*
X126719Y264081D01*
X127353Y264907D01*
X127751Y265868D01*
X127887Y266900D01*
X127751Y267932D01*
X127353Y268893D01*
X126719Y269719D01*
X125893Y270353D01*
X124932Y270751D01*
X123900Y270887D01*
D02*
G37*
G36*
X143900D02*
X142868Y270751D01*
X141907Y270353D01*
X141081Y269719D01*
X140447Y268893D01*
X140049Y267932D01*
X139913Y266900D01*
X140049Y265868D01*
X140447Y264907D01*
X141081Y264081D01*
X141907Y263447D01*
X142868Y263049D01*
X143900Y262913D01*
X144932Y263049D01*
X145893Y263447D01*
X146719Y264081D01*
X147353Y264907D01*
X147751Y265868D01*
X147887Y266900D01*
X147751Y267932D01*
X147353Y268893D01*
X146719Y269719D01*
X145893Y270353D01*
X144932Y270751D01*
X143900Y270887D01*
D02*
G37*
G36*
X163900D02*
X162868Y270751D01*
X161907Y270353D01*
X161081Y269719D01*
X160447Y268893D01*
X160049Y267932D01*
X159913Y266900D01*
X160049Y265868D01*
X160447Y264907D01*
X161081Y264081D01*
X161907Y263447D01*
X162868Y263049D01*
X163900Y262913D01*
X164932Y263049D01*
X165893Y263447D01*
X166719Y264081D01*
X167353Y264907D01*
X167751Y265868D01*
X167887Y266900D01*
X167751Y267932D01*
X167353Y268893D01*
X166719Y269719D01*
X165893Y270353D01*
X164932Y270751D01*
X163900Y270887D01*
D02*
G37*
G36*
X153900D02*
X152868Y270751D01*
X151907Y270353D01*
X151081Y269719D01*
X150447Y268893D01*
X150049Y267932D01*
X149913Y266900D01*
X150049Y265868D01*
X150447Y264907D01*
X151081Y264081D01*
X151907Y263447D01*
X152868Y263049D01*
X153900Y262913D01*
X154932Y263049D01*
X155893Y263447D01*
X156719Y264081D01*
X157353Y264907D01*
X157751Y265868D01*
X157887Y266900D01*
X157751Y267932D01*
X157353Y268893D01*
X156719Y269719D01*
X155893Y270353D01*
X154932Y270751D01*
X153900Y270887D01*
D02*
G37*
G36*
X308800Y194139D02*
X308020Y193984D01*
X307358Y193542D01*
X306916Y192880D01*
X306761Y192100D01*
X306916Y191320D01*
X307358Y190658D01*
X308020Y190216D01*
X308800Y190061D01*
X309580Y190216D01*
X310242Y190658D01*
X310684Y191320D01*
X310839Y192100D01*
X310684Y192880D01*
X310242Y193542D01*
X309580Y193984D01*
X308800Y194139D01*
D02*
G37*
G36*
X250855Y10200D02*
X248000D01*
Y7345D01*
X248032Y7349D01*
X248993Y7747D01*
X249819Y8381D01*
X250453Y9207D01*
X250851Y10168D01*
X250855Y10200D01*
D02*
G37*
G36*
X399700Y199730D02*
X398786Y199610D01*
X397935Y199257D01*
X397204Y198696D01*
X396643Y197965D01*
X396290Y197114D01*
X396170Y196200D01*
X396290Y195286D01*
X396643Y194435D01*
X397204Y193704D01*
X397935Y193143D01*
X398786Y192790D01*
X399700Y192670D01*
X400614Y192790D01*
X401465Y193143D01*
X402196Y193704D01*
X402757Y194435D01*
X403110Y195286D01*
X403230Y196200D01*
X403110Y197114D01*
X402757Y197965D01*
X402196Y198696D01*
X401465Y199257D01*
X400614Y199610D01*
X399700Y199730D01*
D02*
G37*
G36*
X41637Y193600D02*
X40900D01*
Y192863D01*
X41342Y193158D01*
X41637Y193600D01*
D02*
G37*
G36*
X38900D02*
X38163D01*
X38458Y193158D01*
X38900Y192863D01*
Y193600D01*
D02*
G37*
G36*
X54400Y185639D02*
X53620Y185484D01*
X52958Y185042D01*
X52516Y184380D01*
X52361Y183600D01*
X52516Y182820D01*
X52958Y182158D01*
X53620Y181716D01*
X54400Y181561D01*
X55180Y181716D01*
X55842Y182158D01*
X56284Y182820D01*
X56439Y183600D01*
X56284Y184380D01*
X55842Y185042D01*
X55180Y185484D01*
X54400Y185639D01*
D02*
G37*
G36*
X409500Y11539D02*
X408720Y11384D01*
X408058Y10942D01*
X407616Y10280D01*
X407461Y9500D01*
X407616Y8720D01*
X408058Y8058D01*
X408720Y7616D01*
X409500Y7461D01*
X410280Y7616D01*
X410942Y8058D01*
X411384Y8720D01*
X411539Y9500D01*
X411384Y10280D01*
X410942Y10942D01*
X410280Y11384D01*
X409500Y11539D01*
D02*
G37*
G36*
X259800Y186239D02*
X259020Y186084D01*
X258358Y185642D01*
X257916Y184980D01*
X257761Y184200D01*
X257916Y183420D01*
X258358Y182758D01*
X259020Y182316D01*
X259800Y182161D01*
X260580Y182316D01*
X261242Y182758D01*
X261684Y183420D01*
X261839Y184200D01*
X261684Y184980D01*
X261242Y185642D01*
X260580Y186084D01*
X259800Y186239D01*
D02*
G37*
G36*
X278700Y191239D02*
X277920Y191084D01*
X277258Y190642D01*
X276816Y189980D01*
X276661Y189200D01*
X276816Y188420D01*
X277258Y187758D01*
X277920Y187316D01*
X278700Y187161D01*
X279480Y187316D01*
X280142Y187758D01*
X280584Y188420D01*
X280739Y189200D01*
X280584Y189980D01*
X280142Y190642D01*
X279480Y191084D01*
X278700Y191239D01*
D02*
G37*
G36*
X5700Y191191D02*
X4822Y191076D01*
X4004Y190737D01*
X3302Y190198D01*
X2763Y189496D01*
X2424Y188678D01*
X2309Y187800D01*
X2424Y186922D01*
X2763Y186104D01*
X3302Y185402D01*
X4004Y184863D01*
X4822Y184524D01*
X5700Y184409D01*
X6578Y184524D01*
X7396Y184863D01*
X8098Y185402D01*
X8637Y186104D01*
X8976Y186922D01*
X9091Y187800D01*
X8976Y188678D01*
X8637Y189496D01*
X8098Y190198D01*
X7396Y190737D01*
X6578Y191076D01*
X5700Y191191D01*
D02*
G37*
G36*
X199100Y199039D02*
X198320Y198884D01*
X197658Y198442D01*
X197216Y197780D01*
X197061Y197000D01*
X197216Y196220D01*
X197658Y195558D01*
X198320Y195116D01*
X199100Y194961D01*
X199880Y195116D01*
X200542Y195558D01*
X200984Y196220D01*
X201139Y197000D01*
X200984Y197780D01*
X200542Y198442D01*
X199880Y198884D01*
X199100Y199039D01*
D02*
G37*
G36*
X15700Y201191D02*
X14822Y201076D01*
X14004Y200737D01*
X13302Y200198D01*
X12763Y199496D01*
X12424Y198678D01*
X12309Y197800D01*
X12424Y196922D01*
X12763Y196104D01*
X13302Y195402D01*
X14004Y194863D01*
X14822Y194524D01*
X15700Y194409D01*
X16578Y194524D01*
X17396Y194863D01*
X18098Y195402D01*
X18637Y196104D01*
X18976Y196922D01*
X19091Y197800D01*
X18976Y198678D01*
X18637Y199496D01*
X18098Y200198D01*
X17396Y200737D01*
X16578Y201076D01*
X15700Y201191D01*
D02*
G37*
G36*
X38900Y196337D02*
X38458Y196042D01*
X38163Y195600D01*
X38900D01*
Y196337D01*
D02*
G37*
G36*
X104000Y200639D02*
X103220Y200484D01*
X102558Y200042D01*
X102116Y199380D01*
X101961Y198600D01*
X102116Y197820D01*
X102558Y197158D01*
X103220Y196716D01*
X104000Y196561D01*
X104780Y196716D01*
X105442Y197158D01*
X105884Y197820D01*
X106039Y198600D01*
X105884Y199380D01*
X105442Y200042D01*
X104780Y200484D01*
X104000Y200639D01*
D02*
G37*
G36*
X40900Y196337D02*
Y195600D01*
X41637D01*
X41342Y196042D01*
X40900Y196337D01*
D02*
G37*
G36*
X259600Y197539D02*
X258820Y197384D01*
X258158Y196942D01*
X257716Y196280D01*
X257561Y195500D01*
X257716Y194720D01*
X258158Y194058D01*
X258820Y193616D01*
X259600Y193461D01*
X260380Y193616D01*
X261042Y194058D01*
X261484Y194720D01*
X261639Y195500D01*
X261484Y196280D01*
X261042Y196942D01*
X260380Y197384D01*
X259600Y197539D01*
D02*
G37*
G36*
X32700Y197139D02*
X31920Y196984D01*
X31258Y196542D01*
X30816Y195880D01*
X30661Y195100D01*
X30816Y194320D01*
X31258Y193658D01*
X31920Y193216D01*
X32700Y193061D01*
X33480Y193216D01*
X34142Y193658D01*
X34584Y194320D01*
X34739Y195100D01*
X34584Y195880D01*
X34142Y196542D01*
X33480Y196984D01*
X32700Y197139D01*
D02*
G37*
G36*
X96200Y194600D02*
X95463D01*
X95758Y194158D01*
X96200Y193863D01*
Y194600D01*
D02*
G37*
G36*
X366300Y201133D02*
X365386Y201013D01*
X364535Y200660D01*
X363804Y200099D01*
X363243Y199368D01*
X362890Y198517D01*
X362770Y197603D01*
X362890Y196689D01*
X363243Y195838D01*
X363804Y195107D01*
X364535Y194546D01*
X365386Y194193D01*
X366300Y194073D01*
X367214Y194193D01*
X368065Y194546D01*
X368796Y195107D01*
X369357Y195838D01*
X369710Y196689D01*
X369830Y197603D01*
X369710Y198517D01*
X369357Y199368D01*
X368796Y200099D01*
X368065Y200660D01*
X367214Y201013D01*
X366300Y201133D01*
D02*
G37*
G36*
X98937Y194600D02*
X98200D01*
Y193863D01*
X98642Y194158D01*
X98937Y194600D01*
D02*
G37*
G36*
X18062Y181182D02*
X13338D01*
X12948Y181104D01*
X12617Y180883D01*
X12396Y180552D01*
X12318Y180162D01*
Y175438D01*
X12396Y175048D01*
X12617Y174717D01*
X12948Y174496D01*
X13338Y174418D01*
X18062D01*
X18452Y174496D01*
X18783Y174717D01*
X19004Y175048D01*
X19082Y175438D01*
Y180162D01*
X19004Y180552D01*
X18783Y180883D01*
X18452Y181104D01*
X18062Y181182D01*
D02*
G37*
G36*
X314100Y176639D02*
X313320Y176484D01*
X312658Y176042D01*
X312216Y175380D01*
X312061Y174600D01*
X312216Y173820D01*
X312448Y173473D01*
X312087Y173113D01*
X311980Y173184D01*
X311200Y173339D01*
X310420Y173184D01*
X309758Y172742D01*
X309316Y172080D01*
X309161Y171300D01*
X309316Y170520D01*
X309758Y169858D01*
X310420Y169416D01*
X311200Y169261D01*
X311980Y169416D01*
X312642Y169858D01*
X313084Y170520D01*
X313239Y171300D01*
X313084Y172080D01*
X312852Y172427D01*
X313213Y172787D01*
X313320Y172716D01*
X314100Y172561D01*
X314880Y172716D01*
X315542Y173158D01*
X315984Y173820D01*
X316139Y174600D01*
X315984Y175380D01*
X315542Y176042D01*
X314880Y176484D01*
X314100Y176639D01*
D02*
G37*
G36*
X281015Y22550D02*
X279854Y22436D01*
X278738Y22097D01*
X277709Y21547D01*
X276808Y20807D01*
X276068Y19906D01*
X275518Y18877D01*
X275179Y17761D01*
X275065Y16600D01*
X275179Y15439D01*
X275518Y14323D01*
X276068Y13294D01*
X276808Y12393D01*
X277709Y11653D01*
X278738Y11103D01*
X279854Y10764D01*
X281015Y10650D01*
X282176Y10764D01*
X283292Y11103D01*
X284321Y11653D01*
X285222Y12393D01*
X285962Y13294D01*
X286512Y14323D01*
X286851Y15439D01*
X286965Y16600D01*
X286851Y17761D01*
X286512Y18877D01*
X285962Y19906D01*
X285222Y20807D01*
X284321Y21547D01*
X283292Y22097D01*
X282176Y22436D01*
X281015Y22550D01*
D02*
G37*
G36*
X342400Y183139D02*
X341620Y182984D01*
X340958Y182542D01*
X340516Y181880D01*
X340361Y181100D01*
X340516Y180320D01*
X340958Y179658D01*
X341620Y179216D01*
X342400Y179061D01*
X343180Y179216D01*
X343842Y179658D01*
X344284Y180320D01*
X344439Y181100D01*
X344284Y181880D01*
X343842Y182542D01*
X343180Y182984D01*
X342400Y183139D01*
D02*
G37*
G36*
X153600Y181639D02*
X152820Y181484D01*
X152158Y181042D01*
X151716Y180380D01*
X151561Y179600D01*
X151716Y178820D01*
X152158Y178158D01*
X152820Y177716D01*
X153600Y177561D01*
X154380Y177716D01*
X155042Y178158D01*
X155484Y178820D01*
X155639Y179600D01*
X155484Y180380D01*
X155042Y181042D01*
X154380Y181484D01*
X153600Y181639D01*
D02*
G37*
G36*
X203800Y173139D02*
X203020Y172984D01*
X202358Y172542D01*
X201916Y171880D01*
X201761Y171100D01*
X201916Y170320D01*
X202358Y169658D01*
X203020Y169216D01*
X203800Y169061D01*
X204580Y169216D01*
X205242Y169658D01*
X205684Y170320D01*
X205839Y171100D01*
X205684Y171880D01*
X205242Y172542D01*
X204580Y172984D01*
X203800Y173139D01*
D02*
G37*
G36*
X217800Y171839D02*
X217020Y171684D01*
X216358Y171242D01*
X215916Y170580D01*
X215761Y169800D01*
X215916Y169020D01*
X216358Y168358D01*
X217020Y167916D01*
X217800Y167761D01*
X218580Y167916D01*
X219242Y168358D01*
X219684Y169020D01*
X219839Y169800D01*
X219684Y170580D01*
X219242Y171242D01*
X218580Y171684D01*
X217800Y171839D01*
D02*
G37*
G36*
X300700Y22550D02*
X299539Y22436D01*
X298423Y22097D01*
X297394Y21547D01*
X296493Y20807D01*
X295753Y19906D01*
X295203Y18877D01*
X294864Y17761D01*
X294750Y16600D01*
X294864Y15439D01*
X295203Y14323D01*
X295753Y13294D01*
X296493Y12393D01*
X297394Y11653D01*
X298423Y11103D01*
X299539Y10764D01*
X300700Y10650D01*
X301861Y10764D01*
X302977Y11103D01*
X304006Y11653D01*
X304907Y12393D01*
X305647Y13294D01*
X306197Y14323D01*
X306536Y15439D01*
X306650Y16600D01*
X306536Y17761D01*
X306197Y18877D01*
X305647Y19906D01*
X304907Y20807D01*
X304006Y21547D01*
X302977Y22097D01*
X301861Y22436D01*
X300700Y22550D01*
D02*
G37*
G36*
X95600Y175139D02*
X94820Y174984D01*
X94158Y174542D01*
X93716Y173880D01*
X93561Y173100D01*
X93716Y172320D01*
X94158Y171658D01*
X94820Y171216D01*
X95600Y171061D01*
X96380Y171216D01*
X97042Y171658D01*
X97484Y172320D01*
X97639Y173100D01*
X97484Y173880D01*
X97042Y174542D01*
X96380Y174984D01*
X95600Y175139D01*
D02*
G37*
G36*
X479639Y182764D02*
X464561D01*
X464170Y182686D01*
X463840Y182465D01*
X461379Y180004D01*
X461158Y179674D01*
X461080Y179283D01*
Y174362D01*
X461158Y173972D01*
X461379Y173641D01*
X463840Y171181D01*
X464170Y170960D01*
X464561Y170882D01*
X479639D01*
X480030Y170960D01*
X480360Y171181D01*
X482821Y173641D01*
X483042Y173972D01*
X483120Y174362D01*
Y179283D01*
X483042Y179674D01*
X482821Y180004D01*
X480360Y182465D01*
X480030Y182686D01*
X479639Y182764D01*
D02*
G37*
G36*
X126900Y22150D02*
X125739Y22036D01*
X124623Y21697D01*
X123594Y21147D01*
X122693Y20407D01*
X121953Y19506D01*
X121403Y18477D01*
X121064Y17361D01*
X120950Y16200D01*
X121064Y15039D01*
X121403Y13923D01*
X121953Y12894D01*
X122693Y11993D01*
X123594Y11253D01*
X124623Y10703D01*
X125739Y10364D01*
X126900Y10250D01*
X128061Y10364D01*
X129177Y10703D01*
X130206Y11253D01*
X131107Y11993D01*
X131847Y12894D01*
X132397Y13923D01*
X132736Y15039D01*
X132850Y16200D01*
X132736Y17361D01*
X132397Y18477D01*
X131847Y19506D01*
X131107Y20407D01*
X130206Y21147D01*
X129177Y21697D01*
X128061Y22036D01*
X126900Y22150D01*
D02*
G37*
G36*
X189400Y184039D02*
X188620Y183884D01*
X187958Y183442D01*
X187516Y182780D01*
X187361Y182000D01*
X187516Y181220D01*
X187958Y180558D01*
X188620Y180116D01*
X189400Y179961D01*
X190180Y180116D01*
X190842Y180558D01*
X191284Y181220D01*
X191439Y182000D01*
X191284Y182780D01*
X190842Y183442D01*
X190180Y183884D01*
X189400Y184039D01*
D02*
G37*
G36*
X241000Y184539D02*
X240220Y184384D01*
X239558Y183942D01*
X239116Y183280D01*
X238961Y182500D01*
X239116Y181720D01*
X239558Y181058D01*
X240220Y180616D01*
X241000Y180461D01*
X241780Y180616D01*
X242442Y181058D01*
X242884Y181720D01*
X243039Y182500D01*
X242884Y183280D01*
X242442Y183942D01*
X241780Y184384D01*
X241000Y184539D01*
D02*
G37*
G36*
X217800Y184739D02*
X217020Y184584D01*
X216358Y184142D01*
X215916Y183480D01*
X215761Y182700D01*
X215916Y181920D01*
X216358Y181258D01*
X217020Y180816D01*
X217800Y180661D01*
X218580Y180816D01*
X219242Y181258D01*
X219684Y181920D01*
X219839Y182700D01*
X219684Y183480D01*
X219242Y184142D01*
X218580Y184584D01*
X217800Y184739D01*
D02*
G37*
G36*
X99500Y12839D02*
X98720Y12684D01*
X98058Y12242D01*
X97616Y11580D01*
X97461Y10800D01*
X97616Y10020D01*
X98058Y9358D01*
X98720Y8916D01*
X99500Y8761D01*
X100280Y8916D01*
X100942Y9358D01*
X101384Y10020D01*
X101539Y10800D01*
X101384Y11580D01*
X100942Y12242D01*
X100280Y12684D01*
X99500Y12839D01*
D02*
G37*
G36*
X148300Y183739D02*
X147520Y183584D01*
X146858Y183142D01*
X146416Y182480D01*
X146261Y181700D01*
X146416Y180920D01*
X146858Y180258D01*
X147520Y179816D01*
X148300Y179661D01*
X149080Y179816D01*
X149742Y180258D01*
X150184Y180920D01*
X150339Y181700D01*
X150184Y182480D01*
X149742Y183142D01*
X149080Y183584D01*
X148300Y183739D01*
D02*
G37*
G36*
X223800Y183439D02*
X223020Y183284D01*
X222358Y182842D01*
X221916Y182180D01*
X221761Y181400D01*
X221916Y180620D01*
X222358Y179958D01*
X223020Y179516D01*
X223800Y179361D01*
X224580Y179516D01*
X225242Y179958D01*
X225684Y180620D01*
X225839Y181400D01*
X225684Y182180D01*
X225242Y182842D01*
X224580Y183284D01*
X223800Y183439D01*
D02*
G37*
G36*
X246400Y183739D02*
X245620Y183584D01*
X244958Y183142D01*
X244516Y182480D01*
X244361Y181700D01*
X244516Y180920D01*
X244958Y180258D01*
X245620Y179816D01*
X246400Y179661D01*
X247180Y179816D01*
X247842Y180258D01*
X248284Y180920D01*
X248439Y181700D01*
X248284Y182480D01*
X247842Y183142D01*
X247180Y183584D01*
X246400Y183739D01*
D02*
G37*
G36*
X209700Y183939D02*
X208920Y183784D01*
X208258Y183342D01*
X207816Y182680D01*
X207661Y181900D01*
X207816Y181120D01*
X208258Y180458D01*
X208920Y180016D01*
X209700Y179861D01*
X210480Y180016D01*
X211142Y180458D01*
X211584Y181120D01*
X211739Y181900D01*
X211584Y182680D01*
X211142Y183342D01*
X210480Y183784D01*
X209700Y183939D01*
D02*
G37*
G36*
X146585Y22150D02*
X145424Y22036D01*
X144308Y21697D01*
X143279Y21147D01*
X142378Y20407D01*
X141638Y19506D01*
X141088Y18477D01*
X140749Y17361D01*
X140635Y16200D01*
X140749Y15039D01*
X141088Y13923D01*
X141638Y12894D01*
X142378Y11993D01*
X143279Y11253D01*
X144308Y10703D01*
X145424Y10364D01*
X146585Y10250D01*
X147746Y10364D01*
X148862Y10703D01*
X149891Y11253D01*
X150792Y11993D01*
X151532Y12894D01*
X152082Y13923D01*
X152421Y15039D01*
X152535Y16200D01*
X152421Y17361D01*
X152082Y18477D01*
X151532Y19506D01*
X150792Y20407D01*
X149891Y21147D01*
X148862Y21697D01*
X147746Y22036D01*
X146585Y22150D01*
D02*
G37*
G36*
X309100Y216939D02*
X308320Y216784D01*
X307658Y216342D01*
X307216Y215680D01*
X307061Y214900D01*
X307216Y214120D01*
X307658Y213458D01*
X308320Y213016D01*
X309100Y212861D01*
X309880Y213016D01*
X310542Y213458D01*
X310984Y214120D01*
X311139Y214900D01*
X310984Y215680D01*
X310542Y216342D01*
X309880Y216784D01*
X309100Y216939D01*
D02*
G37*
G36*
X479453Y219830D02*
X478547D01*
X477634Y219710D01*
X476782Y219357D01*
X476051Y218796D01*
X475490Y218065D01*
X475137Y217214D01*
X475017Y216300D01*
X475137Y215386D01*
X475490Y214535D01*
X476051Y213804D01*
X476782Y213243D01*
X477634Y212890D01*
X478547Y212770D01*
X479453D01*
X480366Y212890D01*
X481218Y213243D01*
X481949Y213804D01*
X482510Y214535D01*
X482863Y215386D01*
X482983Y216300D01*
X482863Y217214D01*
X482510Y218065D01*
X481949Y218796D01*
X481218Y219357D01*
X480366Y219710D01*
X479453Y219830D01*
D02*
G37*
G36*
X54400Y218039D02*
X53620Y217884D01*
X52958Y217442D01*
X52516Y216780D01*
X52361Y216000D01*
X52516Y215220D01*
X52958Y214558D01*
X53620Y214116D01*
X54400Y213961D01*
X55180Y214116D01*
X55842Y214558D01*
X56284Y215220D01*
X56439Y216000D01*
X56284Y216780D01*
X55842Y217442D01*
X55180Y217884D01*
X54400Y218039D01*
D02*
G37*
G36*
X298400Y221339D02*
X297620Y221184D01*
X296958Y220742D01*
X296516Y220080D01*
X296361Y219300D01*
X296516Y218520D01*
X296958Y217858D01*
X297620Y217416D01*
X298400Y217261D01*
X299180Y217416D01*
X299842Y217858D01*
X300284Y218520D01*
X300439Y219300D01*
X300284Y220080D01*
X299842Y220742D01*
X299180Y221184D01*
X298400Y221339D01*
D02*
G37*
G36*
X209200Y219139D02*
X208420Y218984D01*
X207758Y218542D01*
X207316Y217880D01*
X207161Y217100D01*
X207316Y216320D01*
X207758Y215658D01*
X208420Y215216D01*
X209200Y215061D01*
X209980Y215216D01*
X210642Y215658D01*
X211084Y216320D01*
X211239Y217100D01*
X211084Y217880D01*
X210642Y218542D01*
X209980Y218984D01*
X209200Y219139D01*
D02*
G37*
G36*
X259000Y214749D02*
X258025Y214555D01*
X257198Y214002D01*
X256645Y213176D01*
X256451Y212200D01*
X256645Y211225D01*
X257198Y210398D01*
X258025Y209845D01*
X259000Y209651D01*
X259976Y209845D01*
X260802Y210398D01*
X261355Y211225D01*
X261549Y212200D01*
X261355Y213176D01*
X260802Y214002D01*
X259976Y214555D01*
X259000Y214749D01*
D02*
G37*
G36*
X76400Y213239D02*
X75620Y213084D01*
X74958Y212642D01*
X74516Y211980D01*
X74361Y211200D01*
X74516Y210420D01*
X74958Y209758D01*
X75620Y209316D01*
X76400Y209161D01*
X77180Y209316D01*
X77842Y209758D01*
X78284Y210420D01*
X78439Y211200D01*
X78284Y211980D01*
X77842Y212642D01*
X77180Y213084D01*
X76400Y213239D01*
D02*
G37*
G36*
X237000Y15187D02*
X235968Y15051D01*
X235007Y14653D01*
X234181Y14019D01*
X233547Y13193D01*
X233149Y12232D01*
X233013Y11200D01*
X233149Y10168D01*
X233547Y9207D01*
X234181Y8381D01*
X235007Y7747D01*
X235968Y7349D01*
X237000Y7213D01*
X238032Y7349D01*
X238993Y7747D01*
X239819Y8381D01*
X240453Y9207D01*
X240851Y10168D01*
X240987Y11200D01*
X240851Y12232D01*
X240453Y13193D01*
X239819Y14019D01*
X238993Y14653D01*
X238032Y15051D01*
X237000Y15187D01*
D02*
G37*
G36*
X469610Y219830D02*
X468705D01*
X467791Y219710D01*
X466939Y219357D01*
X466208Y218796D01*
X465647Y218065D01*
X465295Y217214D01*
X465174Y216300D01*
X465295Y215386D01*
X465647Y214535D01*
X466208Y213804D01*
X466939Y213243D01*
X467791Y212890D01*
X468705Y212770D01*
X469610D01*
X470524Y212890D01*
X471375Y213243D01*
X472106Y213804D01*
X472667Y214535D01*
X473020Y215386D01*
X473140Y216300D01*
X473020Y217214D01*
X472667Y218065D01*
X472106Y218796D01*
X471375Y219357D01*
X470524Y219710D01*
X469610Y219830D01*
D02*
G37*
G36*
X459768D02*
X458862D01*
X457948Y219710D01*
X457097Y219357D01*
X456366Y218796D01*
X455805Y218065D01*
X455452Y217214D01*
X455332Y216300D01*
X455452Y215386D01*
X455805Y214535D01*
X456366Y213804D01*
X457097Y213243D01*
X457948Y212890D01*
X458862Y212770D01*
X459768D01*
X460681Y212890D01*
X461533Y213243D01*
X462264Y213804D01*
X462825Y214535D01*
X463177Y215386D01*
X463298Y216300D01*
X463177Y217214D01*
X462825Y218065D01*
X462264Y218796D01*
X461533Y219357D01*
X460681Y219710D01*
X459768Y219830D01*
D02*
G37*
G36*
X102800Y221137D02*
X102358Y220842D01*
X102063Y220400D01*
X102800D01*
Y221137D01*
D02*
G37*
G36*
X34837Y221000D02*
X34100D01*
Y220263D01*
X34542Y220558D01*
X34837Y221000D01*
D02*
G37*
G36*
X104800Y221137D02*
Y220400D01*
X105537D01*
X105242Y220842D01*
X104800Y221137D01*
D02*
G37*
G36*
X98400Y225639D02*
X97620Y225484D01*
X96958Y225042D01*
X96516Y224380D01*
X96361Y223600D01*
X96516Y222820D01*
X96958Y222158D01*
X97620Y221716D01*
X98400Y221561D01*
X99180Y221716D01*
X99842Y222158D01*
X100284Y222820D01*
X100439Y223600D01*
X100284Y224380D01*
X99842Y225042D01*
X99180Y225484D01*
X98400Y225639D01*
D02*
G37*
G36*
X230000Y224539D02*
X229220Y224384D01*
X228558Y223942D01*
X228116Y223280D01*
X227961Y222500D01*
X228116Y221720D01*
X228558Y221058D01*
X229220Y220616D01*
X230000Y220461D01*
X230780Y220616D01*
X231442Y221058D01*
X231884Y221720D01*
X232039Y222500D01*
X231884Y223280D01*
X231442Y223942D01*
X230780Y224384D01*
X230000Y224539D01*
D02*
G37*
G36*
X102800Y218400D02*
X102063D01*
X102358Y217958D01*
X102800Y217663D01*
Y218400D01*
D02*
G37*
G36*
X16200Y224191D02*
X15322Y224076D01*
X14504Y223737D01*
X13802Y223198D01*
X13263Y222496D01*
X12924Y221678D01*
X12809Y220800D01*
X12924Y219922D01*
X13263Y219104D01*
X13802Y218402D01*
X14504Y217863D01*
X15322Y217524D01*
X16200Y217409D01*
X17078Y217524D01*
X17896Y217863D01*
X18598Y218402D01*
X19137Y219104D01*
X19476Y219922D01*
X19591Y220800D01*
X19476Y221678D01*
X19137Y222496D01*
X18598Y223198D01*
X17896Y223737D01*
X17078Y224076D01*
X16200Y224191D01*
D02*
G37*
G36*
X105537Y218400D02*
X104800D01*
Y217663D01*
X105242Y217958D01*
X105537Y218400D01*
D02*
G37*
G36*
X32100Y221000D02*
X31363D01*
X31658Y220558D01*
X32100Y220263D01*
Y221000D01*
D02*
G37*
G36*
X39700Y224339D02*
X38920Y224184D01*
X38258Y223742D01*
X37816Y223080D01*
X37661Y222300D01*
X37816Y221520D01*
X38258Y220858D01*
X38920Y220416D01*
X39700Y220261D01*
X40480Y220416D01*
X41142Y220858D01*
X41584Y221520D01*
X41739Y222300D01*
X41584Y223080D01*
X41142Y223742D01*
X40480Y224184D01*
X39700Y224339D01*
D02*
G37*
G36*
X461018Y207221D02*
X457612D01*
X457222Y207144D01*
X456891Y206923D01*
X455641Y205673D01*
X455420Y205342D01*
X455342Y204952D01*
Y202452D01*
X455420Y202061D01*
X455641Y201731D01*
X456891Y200481D01*
X457222Y200260D01*
X457612Y200182D01*
X461018D01*
X461408Y200260D01*
X461738Y200481D01*
X462989Y201731D01*
X463209Y202061D01*
X463287Y202452D01*
Y204952D01*
X463209Y205342D01*
X462989Y205673D01*
X461738Y206923D01*
X461408Y207144D01*
X461018Y207221D01*
D02*
G37*
G36*
X479453Y207232D02*
X478547D01*
X477634Y207112D01*
X476782Y206759D01*
X476051Y206198D01*
X475490Y205467D01*
X475137Y204615D01*
X475017Y203702D01*
X475137Y202788D01*
X475490Y201937D01*
X476051Y201205D01*
X476782Y200644D01*
X477634Y200292D01*
X478547Y200171D01*
X479453D01*
X480366Y200292D01*
X481218Y200644D01*
X481949Y201205D01*
X482510Y201937D01*
X482863Y202788D01*
X482983Y203702D01*
X482863Y204615D01*
X482510Y205467D01*
X481949Y206198D01*
X481218Y206759D01*
X480366Y207112D01*
X479453Y207232D01*
D02*
G37*
G36*
X196955Y10200D02*
X194100D01*
Y7345D01*
X194132Y7349D01*
X195093Y7747D01*
X195919Y8381D01*
X196553Y9207D01*
X196951Y10168D01*
X196955Y10200D01*
D02*
G37*
G36*
X65900Y202000D02*
X65163D01*
X65458Y201558D01*
X65900Y201263D01*
Y202000D01*
D02*
G37*
G36*
X202887Y205153D02*
X202106Y204997D01*
X201445Y204555D01*
X201003Y203894D01*
X200847Y203113D01*
X201003Y202333D01*
X201445Y201672D01*
X202106Y201229D01*
X202887Y201074D01*
X203667Y201229D01*
X204328Y201672D01*
X204771Y202333D01*
X204926Y203113D01*
X204771Y203894D01*
X204328Y204555D01*
X203667Y204997D01*
X202887Y205153D01*
D02*
G37*
G36*
X98200Y197337D02*
Y196600D01*
X98937D01*
X98642Y197042D01*
X98200Y197337D01*
D02*
G37*
G36*
X96200D02*
X95758Y197042D01*
X95463Y196600D01*
X96200D01*
Y197337D01*
D02*
G37*
G36*
X228354Y202594D02*
X227574Y202438D01*
X226912Y201996D01*
X226470Y201335D01*
X226315Y200554D01*
X226470Y199774D01*
X226912Y199112D01*
X227574Y198670D01*
X228354Y198515D01*
X229135Y198670D01*
X229796Y199112D01*
X230238Y199774D01*
X230394Y200554D01*
X230238Y201335D01*
X229796Y201996D01*
X229135Y202438D01*
X228354Y202594D01*
D02*
G37*
G36*
X469610Y207232D02*
X468705D01*
X467791Y207112D01*
X466939Y206759D01*
X466208Y206198D01*
X465647Y205467D01*
X465295Y204615D01*
X465174Y203702D01*
X465295Y202788D01*
X465647Y201937D01*
X466208Y201205D01*
X466939Y200644D01*
X467791Y200292D01*
X468705Y200171D01*
X469610D01*
X470524Y200292D01*
X471375Y200644D01*
X472106Y201205D01*
X472667Y201937D01*
X473020Y202788D01*
X473140Y203702D01*
X473020Y204615D01*
X472667Y205467D01*
X472106Y206198D01*
X471375Y206759D01*
X470524Y207112D01*
X469610Y207232D01*
D02*
G37*
G36*
X54500Y202839D02*
X53720Y202684D01*
X53058Y202242D01*
X52616Y201580D01*
X52461Y200800D01*
X52616Y200020D01*
X53058Y199358D01*
X53720Y198916D01*
X54500Y198761D01*
X55280Y198916D01*
X55942Y199358D01*
X56384Y200020D01*
X56539Y200800D01*
X56384Y201580D01*
X55942Y202242D01*
X55280Y202684D01*
X54500Y202839D01*
D02*
G37*
G36*
X246000Y10200D02*
X243145D01*
X243149Y10168D01*
X243547Y9207D01*
X244181Y8381D01*
X245007Y7747D01*
X245968Y7349D01*
X246000Y7345D01*
Y10200D01*
D02*
G37*
G36*
X67900Y204737D02*
Y204000D01*
X68637D01*
X68342Y204442D01*
X67900Y204737D01*
D02*
G37*
G36*
X88600Y216039D02*
X87820Y215884D01*
X87158Y215442D01*
X86716Y214780D01*
X86561Y214000D01*
X86716Y213220D01*
X87158Y212558D01*
X87718Y212184D01*
X87787Y211796D01*
X87769Y211616D01*
X87658Y211542D01*
X87216Y210880D01*
X87061Y210100D01*
X87216Y209320D01*
X87658Y208658D01*
X88320Y208216D01*
X89100Y208061D01*
X89880Y208216D01*
X90542Y208658D01*
X90984Y209320D01*
X91139Y210100D01*
X90984Y210880D01*
X90542Y211542D01*
X89982Y211916D01*
X89913Y212304D01*
X89931Y212484D01*
X90042Y212558D01*
X90484Y213220D01*
X90639Y214000D01*
X90484Y214780D01*
X90042Y215442D01*
X89380Y215884D01*
X88600Y216039D01*
D02*
G37*
G36*
X279000Y212639D02*
X278220Y212484D01*
X277558Y212042D01*
X277116Y211380D01*
X276961Y210600D01*
X277116Y209820D01*
X277558Y209158D01*
X278220Y208716D01*
X279000Y208561D01*
X279780Y208716D01*
X280442Y209158D01*
X280884Y209820D01*
X281039Y210600D01*
X280884Y211380D01*
X280442Y212042D01*
X279780Y212484D01*
X279000Y212639D01*
D02*
G37*
G36*
X148600Y212539D02*
X147820Y212384D01*
X147158Y211942D01*
X146716Y211280D01*
X146561Y210500D01*
X146716Y209720D01*
X147158Y209058D01*
X147820Y208616D01*
X148600Y208461D01*
X149380Y208616D01*
X150042Y209058D01*
X150484Y209720D01*
X150639Y210500D01*
X150484Y211280D01*
X150042Y211942D01*
X149380Y212384D01*
X148600Y212539D01*
D02*
G37*
G36*
X89000Y205639D02*
X88220Y205484D01*
X87558Y205042D01*
X87116Y204380D01*
X86961Y203600D01*
X87116Y202820D01*
X87558Y202158D01*
X88220Y201716D01*
X89000Y201561D01*
X89780Y201716D01*
X90442Y202158D01*
X90884Y202820D01*
X91039Y203600D01*
X90884Y204380D01*
X90442Y205042D01*
X89780Y205484D01*
X89000Y205639D01*
D02*
G37*
G36*
X68637Y202000D02*
X67900D01*
Y201263D01*
X68342Y201558D01*
X68637Y202000D01*
D02*
G37*
G36*
X110400Y206939D02*
X109620Y206784D01*
X108958Y206342D01*
X108516Y205680D01*
X108361Y204900D01*
X108516Y204120D01*
X108958Y203458D01*
X109620Y203016D01*
X110400Y202861D01*
X111180Y203016D01*
X111842Y203458D01*
X112284Y204120D01*
X112439Y204900D01*
X112284Y205680D01*
X111842Y206342D01*
X111180Y206784D01*
X110400Y206939D01*
D02*
G37*
G36*
X65900Y204737D02*
X65458Y204442D01*
X65163Y204000D01*
X65900D01*
Y204737D01*
D02*
G37*
G36*
X192100Y10200D02*
X189245D01*
X189249Y10168D01*
X189647Y9207D01*
X190281Y8381D01*
X191107Y7747D01*
X192068Y7349D01*
X192100Y7345D01*
Y10200D01*
D02*
G37*
%LPD*%
G36*
X270490Y100783D02*
X270415Y100706D01*
X270290Y100557D01*
X270239Y100487D01*
X270196Y100418D01*
X270161Y100352D01*
X270134Y100288D01*
X270115Y100226D01*
X270103Y100167D01*
X270100Y100110D01*
X269110Y101100D01*
X269167Y101103D01*
X269227Y101115D01*
X269288Y101134D01*
X269352Y101161D01*
X269418Y101196D01*
X269487Y101239D01*
X269557Y101290D01*
X269630Y101349D01*
X269783Y101490D01*
X270490Y100783D01*
D02*
G37*
G36*
X273362Y152243D02*
X273328Y152193D01*
X273298Y152136D01*
X273272Y152071D01*
X273250Y152000D01*
X273232Y151921D01*
X273218Y151835D01*
X273208Y151742D01*
X273200Y151534D01*
X272200D01*
X272198Y151642D01*
X272182Y151835D01*
X272168Y151921D01*
X272150Y152000D01*
X272128Y152071D01*
X272102Y152136D01*
X272072Y152193D01*
X272038Y152243D01*
X272000Y152286D01*
X273400D01*
X273362Y152243D01*
D02*
G37*
G36*
X188402Y164358D02*
X188418Y164165D01*
X188432Y164079D01*
X188450Y164000D01*
X188472Y163928D01*
X188498Y163864D01*
X188528Y163807D01*
X188562Y163757D01*
X188600Y163714D01*
X187200D01*
X187238Y163757D01*
X187272Y163807D01*
X187302Y163864D01*
X187328Y163928D01*
X187350Y164000D01*
X187368Y164079D01*
X187382Y164165D01*
X187392Y164258D01*
X187400Y164466D01*
X188400D01*
X188402Y164358D01*
D02*
G37*
G36*
X267802Y163258D02*
X267818Y163065D01*
X267832Y162979D01*
X267850Y162900D01*
X267872Y162829D01*
X267898Y162764D01*
X267928Y162707D01*
X267962Y162657D01*
X268000Y162614D01*
X266600D01*
X266638Y162657D01*
X266672Y162707D01*
X266702Y162764D01*
X266728Y162829D01*
X266750Y162900D01*
X266768Y162979D01*
X266782Y163065D01*
X266792Y163158D01*
X266800Y163366D01*
X267800D01*
X267802Y163258D01*
D02*
G37*
G36*
X251002Y162758D02*
X251018Y162565D01*
X251032Y162479D01*
X251050Y162400D01*
X251072Y162329D01*
X251098Y162264D01*
X251128Y162207D01*
X251162Y162157D01*
X251200Y162114D01*
X249800D01*
X249838Y162157D01*
X249872Y162207D01*
X249902Y162264D01*
X249928Y162329D01*
X249950Y162400D01*
X249968Y162479D01*
X249982Y162565D01*
X249992Y162658D01*
X250000Y162866D01*
X251000D01*
X251002Y162758D01*
D02*
G37*
G36*
X231462Y180543D02*
X231428Y180493D01*
X231398Y180436D01*
X231372Y180371D01*
X231350Y180300D01*
X231332Y180221D01*
X231318Y180135D01*
X231308Y180042D01*
X231300Y179834D01*
X230300D01*
X230298Y179942D01*
X230282Y180135D01*
X230268Y180221D01*
X230250Y180300D01*
X230228Y180371D01*
X230202Y180436D01*
X230172Y180493D01*
X230138Y180543D01*
X230100Y180586D01*
X231500D01*
X231462Y180543D01*
D02*
G37*
G36*
X296402Y175958D02*
X296418Y175765D01*
X296432Y175679D01*
X296450Y175600D01*
X296472Y175529D01*
X296498Y175464D01*
X296528Y175407D01*
X296562Y175357D01*
X296600Y175314D01*
X295200D01*
X295238Y175357D01*
X295272Y175407D01*
X295302Y175464D01*
X295328Y175529D01*
X295350Y175600D01*
X295368Y175679D01*
X295382Y175765D01*
X295392Y175858D01*
X295400Y176066D01*
X296400D01*
X296402Y175958D01*
D02*
G37*
G36*
X264702Y171358D02*
X264718Y171165D01*
X264732Y171079D01*
X264750Y171000D01*
X264772Y170929D01*
X264798Y170864D01*
X264828Y170807D01*
X264862Y170757D01*
X264900Y170714D01*
X263500D01*
X263538Y170757D01*
X263572Y170807D01*
X263602Y170864D01*
X263628Y170929D01*
X263650Y171000D01*
X263668Y171079D01*
X263682Y171165D01*
X263692Y171258D01*
X263700Y171466D01*
X264700D01*
X264702Y171358D01*
D02*
G37*
G36*
X196994Y163416D02*
X197143Y163290D01*
X197213Y163239D01*
X197282Y163196D01*
X197348Y163161D01*
X197412Y163134D01*
X197474Y163115D01*
X197533Y163103D01*
X197590Y163100D01*
X196600Y162110D01*
X196597Y162167D01*
X196585Y162226D01*
X196566Y162288D01*
X196539Y162352D01*
X196504Y162418D01*
X196461Y162487D01*
X196410Y162557D01*
X196351Y162630D01*
X196210Y162783D01*
X196917Y163490D01*
X196994Y163416D01*
D02*
G37*
G36*
X301935Y155950D02*
X300450Y154465D01*
X300444Y154485D01*
X300425Y154516D01*
X300393Y154558D01*
X300292Y154676D01*
X299937Y155049D01*
X299816Y155170D01*
X301230Y156584D01*
X301935Y155950D01*
D02*
G37*
G36*
X204362Y153943D02*
X204328Y153893D01*
X204298Y153836D01*
X204272Y153771D01*
X204250Y153700D01*
X204232Y153621D01*
X204218Y153535D01*
X204208Y153442D01*
X204200Y153234D01*
X203200D01*
X203198Y153342D01*
X203182Y153535D01*
X203168Y153621D01*
X203150Y153700D01*
X203128Y153771D01*
X203102Y153836D01*
X203072Y153893D01*
X203038Y153943D01*
X203000Y153986D01*
X204400D01*
X204362Y153943D01*
D02*
G37*
G36*
X251162Y153843D02*
X251128Y153793D01*
X251098Y153736D01*
X251072Y153672D01*
X251050Y153600D01*
X251032Y153521D01*
X251018Y153435D01*
X251008Y153342D01*
X251000Y153134D01*
X250000D01*
X249998Y153242D01*
X249982Y153435D01*
X249968Y153521D01*
X249950Y153600D01*
X249928Y153672D01*
X249902Y153736D01*
X249872Y153793D01*
X249838Y153843D01*
X249800Y153886D01*
X251200D01*
X251162Y153843D01*
D02*
G37*
G36*
X231794Y163015D02*
X231943Y162890D01*
X232013Y162839D01*
X232082Y162796D01*
X232148Y162761D01*
X232212Y162734D01*
X232274Y162715D01*
X232333Y162703D01*
X232390Y162700D01*
X231400Y161710D01*
X231397Y161767D01*
X231385Y161827D01*
X231366Y161888D01*
X231339Y161952D01*
X231304Y162018D01*
X231261Y162087D01*
X231210Y162157D01*
X231151Y162230D01*
X231010Y162383D01*
X231717Y163090D01*
X231794Y163015D01*
D02*
G37*
G36*
X225312Y159215D02*
X225342Y159212D01*
X225456Y159207D01*
X226220Y159200D01*
X226400Y157200D01*
X226229Y157199D01*
X225498Y157151D01*
X225460Y157138D01*
X225439Y157124D01*
X224300Y158240D01*
X223161Y157124D01*
X223140Y157138D01*
X223102Y157151D01*
X222371Y157199D01*
X222200Y157200D01*
X222380Y159200D01*
X223144Y159207D01*
X223257Y159212D01*
X223288Y159215D01*
X223301Y159219D01*
X224300Y158240D01*
X225299Y159219D01*
X225312Y159215D01*
D02*
G37*
G36*
X114690Y159240D02*
X114725Y159232D01*
X114777Y159224D01*
X114932Y159213D01*
X115447Y159201D01*
X115618Y159200D01*
Y157200D01*
X114671Y157150D01*
Y159250D01*
X114690Y159240D01*
D02*
G37*
G36*
X194662Y181043D02*
X194628Y180993D01*
X194598Y180936D01*
X194572Y180871D01*
X194550Y180800D01*
X194532Y180721D01*
X194518Y180635D01*
X194508Y180542D01*
X194500Y180334D01*
X193500D01*
X193498Y180442D01*
X193482Y180635D01*
X193468Y180721D01*
X193450Y180800D01*
X193428Y180871D01*
X193402Y180936D01*
X193372Y180993D01*
X193338Y181043D01*
X193300Y181086D01*
X194700D01*
X194662Y181043D01*
D02*
G37*
G36*
X256770Y244847D02*
X256477Y244840D01*
X256193Y244813D01*
X255920Y244766D01*
X255657Y244699D01*
X255403Y244612D01*
X255160Y244505D01*
X254927Y244377D01*
X254705Y244230D01*
X254492Y244063D01*
X254290Y243876D01*
X252876Y245290D01*
X253063Y245492D01*
X253230Y245705D01*
X253378Y245928D01*
X253505Y246160D01*
X253612Y246403D01*
X253699Y246656D01*
X253766Y246920D01*
X253813Y247193D01*
X253840Y247477D01*
X253847Y247771D01*
X256770Y244847D01*
D02*
G37*
G36*
X327785Y223200D02*
X327765Y223194D01*
X327734Y223175D01*
X327692Y223143D01*
X327574Y223042D01*
X327202Y222687D01*
X327080Y222566D01*
X325666Y223980D01*
X326300Y224685D01*
X327785Y223200D01*
D02*
G37*
G36*
X259683Y266197D02*
X259655Y266105D01*
Y265999D01*
X259683Y265879D01*
X259740Y265744D01*
X259825Y265596D01*
X259938Y265433D01*
X260079Y265256D01*
X260447Y264860D01*
X259740Y264153D01*
X259535Y264351D01*
X259167Y264662D01*
X259004Y264775D01*
X258856Y264860D01*
X258721Y264917D01*
X258601Y264945D01*
X258495D01*
X258403Y264917D01*
X258326Y264860D01*
X259740Y266274D01*
X259683Y266197D01*
D02*
G37*
G36*
X259756Y257346D02*
X259807Y256586D01*
X259856Y256249D01*
X259920Y255942D01*
X259998Y255663D01*
X260092Y255415D01*
X260201Y255195D01*
X260325Y255004D01*
X260464Y254843D01*
X259757Y254136D01*
X259596Y254275D01*
X259405Y254399D01*
X259186Y254508D01*
X258937Y254602D01*
X258658Y254680D01*
X258351Y254744D01*
X258014Y254793D01*
X257254Y254844D01*
X256830Y254847D01*
X259753Y257770D01*
X259756Y257346D01*
D02*
G37*
G36*
X269903Y212533D02*
X269915Y212474D01*
X269934Y212412D01*
X269961Y212348D01*
X269996Y212282D01*
X270039Y212213D01*
X270090Y212143D01*
X270149Y212070D01*
X270290Y211917D01*
X269583Y211210D01*
X269506Y211284D01*
X269357Y211410D01*
X269287Y211461D01*
X269218Y211504D01*
X269152Y211539D01*
X269088Y211566D01*
X269026Y211585D01*
X268967Y211597D01*
X268910Y211600D01*
X269900Y212590D01*
X269903Y212533D01*
D02*
G37*
G36*
X231100Y190800D02*
X230720Y190790D01*
X230380Y190760D01*
X230080Y190710D01*
X229820Y190640D01*
X229600Y190550D01*
X229420Y190440D01*
X229280Y190310D01*
X229180Y190160D01*
X229126Y190007D01*
X229102Y189307D01*
X229100Y188934D01*
X228100D01*
X228098Y189307D01*
X228046Y190085D01*
X228020Y190160D01*
X227920Y190310D01*
X227780Y190440D01*
X227600Y190550D01*
X227380Y190640D01*
X227120Y190710D01*
X226820Y190760D01*
X226480Y190790D01*
X226100Y190800D01*
X228600Y192800D01*
X231100Y190800D01*
D02*
G37*
G36*
X230194Y182615D02*
X230343Y182490D01*
X230413Y182439D01*
X230482Y182396D01*
X230548Y182361D01*
X230612Y182334D01*
X230674Y182315D01*
X230733Y182303D01*
X230790Y182300D01*
X229800Y181310D01*
X229797Y181367D01*
X229785Y181427D01*
X229766Y181488D01*
X229739Y181552D01*
X229704Y181618D01*
X229661Y181687D01*
X229610Y181757D01*
X229551Y181830D01*
X229410Y181983D01*
X230117Y182690D01*
X230194Y182615D01*
D02*
G37*
G36*
X184103Y181833D02*
X184115Y181773D01*
X184134Y181712D01*
X184161Y181648D01*
X184196Y181582D01*
X184239Y181513D01*
X184290Y181443D01*
X184349Y181370D01*
X184490Y181217D01*
X183783Y180510D01*
X183706Y180585D01*
X183557Y180710D01*
X183487Y180761D01*
X183418Y180804D01*
X183352Y180839D01*
X183288Y180866D01*
X183227Y180885D01*
X183167Y180897D01*
X183110Y180900D01*
X184100Y181890D01*
X184103Y181833D01*
D02*
G37*
G36*
X251000Y200700D02*
X250000Y200505D01*
X249998Y200614D01*
X249979Y200800D01*
X249963Y200877D01*
X249942Y200942D01*
X249917Y200997D01*
X249887Y201042D01*
X249852Y201075D01*
X249813Y201097D01*
X249768Y201109D01*
X250871Y201861D01*
X251000Y200700D01*
D02*
G37*
G36*
X201937Y155661D02*
X201816Y155480D01*
X201661Y154700D01*
X201816Y153920D01*
X202171Y153389D01*
Y121200D01*
X202287Y120615D01*
X202619Y120119D01*
X206146Y116591D01*
X205954Y116129D01*
X201333D01*
X193629Y123834D01*
Y148800D01*
X193513Y149385D01*
X193181Y149881D01*
X191115Y151947D01*
X191362Y152408D01*
X191600Y152361D01*
X192380Y152516D01*
X193042Y152958D01*
X193337Y153400D01*
X191600D01*
Y155400D01*
X193337D01*
X193163Y155661D01*
X193396Y156161D01*
X201669D01*
X201937Y155661D01*
D02*
G37*
G36*
X292757Y124462D02*
X292807Y124428D01*
X292864Y124398D01*
X292929Y124372D01*
X293000Y124350D01*
X293079Y124332D01*
X293165Y124318D01*
X293258Y124308D01*
X293466Y124300D01*
Y123300D01*
X293358Y123298D01*
X293165Y123282D01*
X293079Y123268D01*
X293000Y123250D01*
X292929Y123228D01*
X292864Y123202D01*
X292807Y123172D01*
X292757Y123138D01*
X292714Y123100D01*
Y124500D01*
X292757Y124462D01*
D02*
G37*
G36*
X333562Y117043D02*
X333528Y116993D01*
X333498Y116936D01*
X333472Y116872D01*
X333450Y116800D01*
X333432Y116721D01*
X333418Y116635D01*
X333408Y116542D01*
X333400Y116334D01*
X332400D01*
X332398Y116442D01*
X332382Y116635D01*
X332368Y116721D01*
X332350Y116800D01*
X332328Y116872D01*
X332302Y116936D01*
X332272Y116993D01*
X332238Y117043D01*
X332200Y117086D01*
X333600D01*
X333562Y117043D01*
D02*
G37*
G36*
X329202Y88159D02*
X329218Y87965D01*
X329232Y87879D01*
X329250Y87800D01*
X329272Y87729D01*
X329298Y87664D01*
X329328Y87607D01*
X329362Y87557D01*
X329400Y87514D01*
X328000D01*
X328038Y87557D01*
X328072Y87607D01*
X328102Y87664D01*
X328128Y87729D01*
X328150Y87800D01*
X328168Y87879D01*
X328182Y87965D01*
X328192Y88058D01*
X328200Y88266D01*
X329200D01*
X329202Y88159D01*
D02*
G37*
G36*
X479334Y138269D02*
X478655Y137996D01*
X478056Y137540D01*
X477537Y136903D01*
X477098Y136083D01*
X476739Y135081D01*
X476459Y133897D01*
X476260Y132531D01*
X476140Y130983D01*
X476100Y129253D01*
X468100D01*
X468060Y130983D01*
X467940Y132531D01*
X467741Y133897D01*
X467461Y135081D01*
X467102Y136083D01*
X466663Y136903D01*
X466144Y137540D01*
X465545Y137996D01*
X464866Y138269D01*
X464108Y138360D01*
X480092D01*
X479334Y138269D01*
D02*
G37*
G36*
X297303Y130533D02*
X297315Y130473D01*
X297334Y130412D01*
X297361Y130348D01*
X297396Y130282D01*
X297439Y130213D01*
X297490Y130143D01*
X297549Y130070D01*
X297690Y129917D01*
X296983Y129210D01*
X296906Y129285D01*
X296757Y129410D01*
X296687Y129461D01*
X296618Y129504D01*
X296552Y129539D01*
X296488Y129566D01*
X296427Y129585D01*
X296367Y129597D01*
X296310Y129600D01*
X297300Y130590D01*
X297303Y130533D01*
D02*
G37*
G36*
X247300Y94014D02*
X247087Y92858D01*
X246100Y93700D01*
X246138Y93706D01*
X246172Y93723D01*
X246202Y93752D01*
X246228Y93793D01*
X246250Y93845D01*
X246268Y93909D01*
X246282Y93984D01*
X246292Y94071D01*
X246298Y94170D01*
X246300Y94280D01*
X247300Y94014D01*
D02*
G37*
G36*
X229702Y100858D02*
X229718Y100665D01*
X229732Y100579D01*
X229750Y100500D01*
X229772Y100428D01*
X229798Y100364D01*
X229828Y100307D01*
X229862Y100257D01*
X229900Y100214D01*
X228500D01*
X228538Y100257D01*
X228572Y100307D01*
X228602Y100364D01*
X228628Y100428D01*
X228650Y100500D01*
X228668Y100579D01*
X228682Y100665D01*
X228692Y100758D01*
X228700Y100966D01*
X229700D01*
X229702Y100858D01*
D02*
G37*
G36*
X227494Y111715D02*
X227643Y111590D01*
X227713Y111539D01*
X227782Y111496D01*
X227848Y111461D01*
X227912Y111434D01*
X227974Y111415D01*
X228033Y111403D01*
X228090Y111400D01*
X227100Y110410D01*
X227097Y110467D01*
X227085Y110527D01*
X227066Y110588D01*
X227039Y110652D01*
X227004Y110718D01*
X226961Y110787D01*
X226910Y110857D01*
X226851Y110930D01*
X226710Y111083D01*
X227417Y111790D01*
X227494Y111715D01*
D02*
G37*
G36*
X299102Y101358D02*
X299118Y101165D01*
X299132Y101079D01*
X299150Y101000D01*
X299172Y100928D01*
X299198Y100864D01*
X299228Y100807D01*
X299262Y100757D01*
X299300Y100714D01*
X297900D01*
X297938Y100757D01*
X297972Y100807D01*
X298002Y100864D01*
X298028Y100928D01*
X298050Y101000D01*
X298068Y101079D01*
X298082Y101165D01*
X298092Y101258D01*
X298100Y101466D01*
X299100D01*
X299102Y101358D01*
D02*
G37*
G36*
X247462Y130643D02*
X247428Y130593D01*
X247398Y130536D01*
X247372Y130472D01*
X247350Y130400D01*
X247332Y130321D01*
X247318Y130235D01*
X247308Y130142D01*
X247300Y129934D01*
X246300D01*
X246298Y130042D01*
X246282Y130235D01*
X246268Y130321D01*
X246250Y130400D01*
X246228Y130472D01*
X246202Y130536D01*
X246172Y130593D01*
X246138Y130643D01*
X246100Y130686D01*
X247500D01*
X247462Y130643D01*
D02*
G37*
G36*
X414229Y146350D02*
X414211Y146360D01*
X414175Y146368D01*
X414123Y146376D01*
X413968Y146388D01*
X413453Y146399D01*
X413282Y146400D01*
Y148400D01*
X414229Y148450D01*
Y146350D01*
D02*
G37*
G36*
X329202Y51758D02*
X329218Y51565D01*
X329232Y51479D01*
X329250Y51400D01*
X329272Y51328D01*
X329298Y51264D01*
X329328Y51207D01*
X329362Y51157D01*
X329400Y51114D01*
X328000D01*
X328038Y51157D01*
X328072Y51207D01*
X328102Y51264D01*
X328128Y51328D01*
X328150Y51400D01*
X328168Y51479D01*
X328182Y51565D01*
X328192Y51658D01*
X328200Y51866D01*
X329200D01*
X329202Y51758D01*
D02*
G37*
G36*
X303040Y155491D02*
X303075Y155482D01*
X303127Y155474D01*
X303282Y155463D01*
X303797Y155450D01*
X303968Y155450D01*
Y153847D01*
X304084Y153730D01*
X303968Y153614D01*
Y153450D01*
X303795Y153441D01*
X302670Y152316D01*
X301965Y152950D01*
X303021Y154006D01*
Y155500D01*
X303040Y155491D01*
D02*
G37*
G36*
X188903Y152933D02*
X188915Y152874D01*
X188934Y152812D01*
X188961Y152748D01*
X188996Y152682D01*
X189039Y152613D01*
X189090Y152543D01*
X189149Y152470D01*
X189290Y152317D01*
X188583Y151610D01*
X188506Y151684D01*
X188357Y151810D01*
X188287Y151861D01*
X188218Y151904D01*
X188152Y151939D01*
X188088Y151966D01*
X188026Y151985D01*
X187967Y151997D01*
X187910Y152000D01*
X188900Y152990D01*
X188903Y152933D01*
D02*
G37*
G36*
X237662Y138943D02*
X237628Y138893D01*
X237598Y138836D01*
X237572Y138771D01*
X237550Y138700D01*
X237532Y138621D01*
X237518Y138535D01*
X237508Y138442D01*
X237500Y138234D01*
X236500D01*
X236498Y138342D01*
X236482Y138535D01*
X236468Y138621D01*
X236450Y138700D01*
X236428Y138771D01*
X236402Y138836D01*
X236372Y138893D01*
X236338Y138943D01*
X236300Y138986D01*
X237700D01*
X237662Y138943D01*
D02*
G37*
G36*
X250390Y87083D02*
X250315Y87006D01*
X250190Y86857D01*
X250139Y86787D01*
X250096Y86718D01*
X250061Y86652D01*
X250034Y86588D01*
X250015Y86527D01*
X250003Y86467D01*
X250000Y86410D01*
X249010Y87400D01*
X249067Y87403D01*
X249127Y87415D01*
X249188Y87434D01*
X249252Y87461D01*
X249318Y87496D01*
X249387Y87539D01*
X249457Y87590D01*
X249530Y87649D01*
X249683Y87790D01*
X250390Y87083D01*
D02*
G37*
G36*
X230390D02*
X230315Y87006D01*
X230190Y86857D01*
X230139Y86787D01*
X230096Y86718D01*
X230061Y86652D01*
X230034Y86588D01*
X230015Y86527D01*
X230003Y86467D01*
X230000Y86410D01*
X229010Y87400D01*
X229067Y87403D01*
X229127Y87415D01*
X229188Y87434D01*
X229252Y87461D01*
X229318Y87496D01*
X229387Y87539D01*
X229457Y87590D01*
X229530Y87649D01*
X229683Y87790D01*
X230390Y87083D01*
D02*
G37*
G36*
X329362Y72543D02*
X329328Y72493D01*
X329298Y72436D01*
X329272Y72372D01*
X329250Y72300D01*
X329232Y72221D01*
X329218Y72135D01*
X329208Y72042D01*
X329200Y71834D01*
X328200D01*
X328198Y71942D01*
X328182Y72135D01*
X328168Y72221D01*
X328150Y72300D01*
X328128Y72372D01*
X328102Y72436D01*
X328072Y72493D01*
X328038Y72543D01*
X328000Y72586D01*
X329400D01*
X329362Y72543D01*
D02*
G37*
G36*
X289690Y86383D02*
X289616Y86306D01*
X289490Y86157D01*
X289439Y86087D01*
X289396Y86018D01*
X289361Y85952D01*
X289334Y85888D01*
X289315Y85826D01*
X289303Y85767D01*
X289300Y85710D01*
X288310Y86700D01*
X288367Y86703D01*
X288426Y86715D01*
X288488Y86734D01*
X288552Y86761D01*
X288618Y86796D01*
X288687Y86839D01*
X288757Y86890D01*
X288830Y86949D01*
X288983Y87090D01*
X289690Y86383D01*
D02*
G37*
%LPC*%
G36*
X199437Y141200D02*
X198700D01*
Y140463D01*
X199142Y140758D01*
X199437Y141200D01*
D02*
G37*
G36*
X196700Y143937D02*
X196258Y143642D01*
X195963Y143200D01*
X196700D01*
Y143937D01*
D02*
G37*
G36*
X198700D02*
Y143200D01*
X199437D01*
X199142Y143642D01*
X198700Y143937D01*
D02*
G37*
G36*
X197700Y129239D02*
X196920Y129084D01*
X196258Y128642D01*
X195816Y127980D01*
X195661Y127200D01*
X195816Y126420D01*
X196258Y125758D01*
X196920Y125316D01*
X197700Y125161D01*
X198480Y125316D01*
X199142Y125758D01*
X199584Y126420D01*
X199739Y127200D01*
X199584Y127980D01*
X199142Y128642D01*
X198480Y129084D01*
X197700Y129239D01*
D02*
G37*
G36*
X198118Y139121D02*
X197338Y138966D01*
X196676Y138524D01*
X196234Y137862D01*
X196079Y137082D01*
X196234Y136301D01*
X196676Y135640D01*
X197338Y135198D01*
X198118Y135043D01*
X198899Y135198D01*
X199560Y135640D01*
X200002Y136301D01*
X200157Y137082D01*
X200002Y137862D01*
X199560Y138524D01*
X198899Y138966D01*
X198118Y139121D01*
D02*
G37*
G36*
X196700Y141200D02*
X195963D01*
X196258Y140758D01*
X196700Y140463D01*
Y141200D01*
D02*
G37*
%LPD*%
G36*
X213871Y254647D02*
X213446Y254644D01*
X212685Y254593D01*
X212349Y254544D01*
X212042Y254481D01*
X211764Y254402D01*
X211514Y254308D01*
X211295Y254199D01*
X211104Y254075D01*
X210943Y253936D01*
X210236Y254643D01*
X210375Y254804D01*
X210499Y254995D01*
X210608Y255215D01*
X210702Y255464D01*
X210781Y255742D01*
X210844Y256049D01*
X210893Y256385D01*
X210944Y257146D01*
X210947Y257571D01*
X213871Y254647D01*
D02*
G37*
G36*
X210972Y266600D02*
X210962Y266695D01*
X210932Y266780D01*
X210881Y266855D01*
X210810Y266920D01*
X210719Y266975D01*
X210608Y267020D01*
X210476Y267055D01*
X210325Y267080D01*
X210153Y267095D01*
X209960Y267100D01*
Y268100D01*
X210153Y268105D01*
X210325Y268120D01*
X210476Y268145D01*
X210608Y268180D01*
X210719Y268225D01*
X210810Y268280D01*
X210881Y268345D01*
X210932Y268420D01*
X210962Y268505D01*
X210972Y268600D01*
Y266600D01*
D02*
G37*
G36*
X188902Y206458D02*
X188918Y206265D01*
X188932Y206179D01*
X188950Y206100D01*
X188972Y206029D01*
X188998Y205964D01*
X189028Y205907D01*
X189062Y205857D01*
X189100Y205814D01*
X187700D01*
X187738Y205857D01*
X187772Y205907D01*
X187802Y205964D01*
X187828Y206029D01*
X187850Y206100D01*
X187868Y206179D01*
X187882Y206265D01*
X187892Y206358D01*
X187900Y206566D01*
X188900D01*
X188902Y206458D01*
D02*
G37*
G36*
X195002Y203958D02*
X195018Y203765D01*
X195032Y203679D01*
X195050Y203600D01*
X195072Y203528D01*
X195098Y203464D01*
X195128Y203407D01*
X195162Y203357D01*
X195200Y203314D01*
X193800D01*
X193838Y203357D01*
X193872Y203407D01*
X193902Y203464D01*
X193928Y203528D01*
X193950Y203600D01*
X193968Y203679D01*
X193982Y203765D01*
X193992Y203858D01*
X194000Y204066D01*
X195000D01*
X195002Y203958D01*
D02*
G37*
D24*
X230800Y163300D02*
X232400Y161700D01*
X230800Y163300D02*
Y181300D01*
X221900Y116600D02*
X228100Y110400D01*
X298600Y100000D02*
Y118800D01*
X293600Y123800D02*
X298600Y118800D01*
X296300Y130600D02*
X301500Y125400D01*
Y98900D02*
Y125400D01*
X288300Y85700D02*
X301500Y98900D01*
X292000Y123800D02*
X293600D01*
X234400Y91800D02*
Y117300D01*
X229000Y86400D02*
X234400Y91800D01*
X231300Y120400D02*
X234400Y117300D01*
X272700Y103700D02*
Y153000D01*
X269100Y100100D02*
X272700Y103700D01*
X249900Y202100D02*
X250500Y201500D01*
Y161400D02*
Y201500D01*
X249000Y86400D02*
X250500Y87900D01*
X268900Y212600D02*
X295900Y185600D01*
Y174600D02*
Y185600D01*
X332900Y96300D02*
Y117800D01*
X328700Y92100D02*
X332900Y96300D01*
X328700Y86800D02*
Y92100D01*
Y50400D02*
Y73300D01*
X228600Y183500D02*
X230800Y181300D01*
X228600Y183500D02*
Y191800D01*
X256800Y267800D02*
X266400Y258200D01*
Y211564D02*
Y258200D01*
Y211564D02*
X267300Y210665D01*
Y161900D02*
Y210665D01*
X246800Y93400D02*
Y131400D01*
X246100Y92700D02*
X246800Y93400D01*
X256800Y257800D02*
X264200Y250400D01*
Y170000D02*
Y250400D01*
X250500Y87900D02*
Y154600D01*
X237000Y134000D02*
Y139700D01*
X231300Y128300D02*
X237000Y134000D01*
X231300Y120400D02*
Y128300D01*
X208500Y267600D02*
X213900D01*
X188200Y247300D02*
X208500Y267600D01*
X187900Y153000D02*
X192100Y148800D01*
Y123200D02*
Y148800D01*
Y123200D02*
X200700Y114600D01*
X216800D01*
X194500Y238200D02*
X213900Y257600D01*
X194500Y202600D02*
Y238200D01*
X188200Y247300D02*
X188400Y247100D01*
Y205100D02*
Y247100D01*
X183100Y181900D02*
X187900Y177100D01*
Y163000D02*
Y177100D01*
X194000Y165700D02*
Y181800D01*
Y165700D02*
X197600Y162100D01*
X203700Y121200D02*
Y154700D01*
Y121200D02*
X208300Y116600D01*
X221900D01*
X229200Y99500D02*
Y102200D01*
X216800Y114600D02*
X229200Y102200D01*
D26*
X301950Y154450D02*
X309000Y147400D01*
X298200Y158200D02*
X301950Y154450D01*
X321900Y218800D02*
X327800Y224700D01*
X309000Y147400D02*
X322000D01*
X415300D01*
X321900Y147500D02*
X322000Y147400D01*
X301950Y154450D02*
X309050D01*
X244300Y235300D02*
X256800Y247800D01*
X244300Y196000D02*
Y235300D01*
X240100Y191800D02*
X244300Y196000D01*
X134600Y179900D02*
X146500Y191800D01*
X309050Y154450D02*
X321900Y167300D01*
Y218800D01*
X146500Y191800D02*
X228600D01*
X240100D01*
X113600Y158200D02*
X298200D01*
D29*
X281800Y266900D02*
D03*
X291800D02*
D03*
X301800D02*
D03*
X213900Y257600D02*
D03*
Y247600D02*
D03*
X256800Y257800D02*
D03*
Y247800D02*
D03*
X193100Y11200D02*
D03*
X247000D02*
D03*
D30*
X326500Y266600D02*
D03*
X311800Y266900D02*
D03*
D35*
X213900Y267600D02*
D03*
X256800Y267800D02*
D03*
D37*
X472100Y142177D02*
D03*
D39*
X232400Y161700D02*
D03*
X214200Y128500D02*
D03*
X191000Y161500D02*
D03*
X228100Y110400D02*
D03*
X298600Y100000D02*
D03*
X292000Y123800D02*
D03*
X288300Y85700D02*
D03*
X296300Y130600D02*
D03*
X222000Y132800D02*
D03*
X96400Y41400D02*
D03*
X111000Y62300D02*
D03*
X65000Y55400D02*
D03*
X38800Y40800D02*
D03*
X32400Y67500D02*
D03*
X38100Y117500D02*
D03*
X32300Y143700D02*
D03*
X65500Y128500D02*
D03*
X66900Y203000D02*
D03*
X39900Y194600D02*
D03*
X33100Y222000D02*
D03*
X97200Y195600D02*
D03*
X103800Y219400D02*
D03*
X191600Y154400D02*
D03*
X215100Y152600D02*
D03*
X337647Y50100D02*
D03*
X104800Y121100D02*
D03*
X134600Y179900D02*
D03*
X197700Y142200D02*
D03*
X104800Y145600D02*
D03*
X272700Y153000D02*
D03*
X269100Y100100D02*
D03*
X249900Y202100D02*
D03*
X250500Y161400D02*
D03*
Y154600D02*
D03*
X249000Y86400D02*
D03*
X268900Y212600D02*
D03*
X295900Y174600D02*
D03*
X332900Y117800D02*
D03*
X328700Y86800D02*
D03*
Y73300D02*
D03*
Y50400D02*
D03*
X230800Y181300D02*
D03*
X267300Y161900D02*
D03*
X246800Y131400D02*
D03*
X246100Y92700D02*
D03*
X264200Y170000D02*
D03*
X237000Y139700D02*
D03*
X229000Y86400D02*
D03*
X187900Y163000D02*
D03*
Y153000D02*
D03*
X194500Y202600D02*
D03*
X188400Y205100D02*
D03*
X183100Y181900D02*
D03*
X194000Y181800D02*
D03*
X197600Y162100D02*
D03*
X203700Y154700D02*
D03*
X229200Y99500D02*
D03*
D41*
X359400Y165400D02*
D03*
X367500Y79200D02*
D03*
X58300Y69900D02*
D03*
X256200Y47500D02*
D03*
X65800Y69700D02*
D03*
X73000D02*
D03*
X73300Y76200D02*
D03*
X66000Y76100D02*
D03*
X256300Y63000D02*
D03*
X256100Y56900D02*
D03*
X164100Y70100D02*
D03*
X157100D02*
D03*
X353500Y79400D02*
D03*
X360900Y79500D02*
D03*
X170400Y69800D02*
D03*
D42*
X415300Y147400D02*
D03*
X113600Y158200D02*
D03*
X301950Y154450D02*
D03*
X327800Y224700D02*
D03*
X224300Y158100D02*
D03*
X133500Y120700D02*
D03*
D43*
X472100Y102300D02*
Y142177D01*
X449100Y79300D02*
X472100Y102300D01*
X115100Y76100D02*
X121100Y70100D01*
X57700Y75100D02*
X58700Y76100D01*
X57700Y70000D02*
Y75100D01*
X256300Y67900D02*
X267700Y79300D01*
X197100D02*
X267700D01*
X256200Y62900D02*
X256300Y63000D01*
Y67900D01*
X164100Y70100D02*
X164400Y69800D01*
X187600D02*
X197100Y79300D01*
X157100Y70100D02*
X164100D01*
X121100D02*
X157100D01*
X282485Y79600D02*
X282785Y79300D01*
X267700D02*
X268000Y79600D01*
X282485D01*
X170400Y69800D02*
X187600D01*
X164400D02*
X170400D01*
X256200Y47500D02*
Y62900D01*
X58300Y69900D02*
X73000D01*
X73800D01*
X58700Y76100D02*
X66000D01*
X115100D01*
X282785Y79300D02*
X449100D01*
M02*
