G04 Layer_Color=0*
%FSLAX25Y25*%
%MOIN*%
G70*
G01*
G75*
%ADD106C,0.00197*%
%ADD107C,0.00004*%
D106*
X206028Y142200D02*
X205705Y143086D01*
X204889Y143557D01*
X203961Y143393D01*
X203355Y142671D01*
Y141729D01*
X203961Y141007D01*
X204889Y140843D01*
X205705Y141314D01*
X206028Y142200D01*
X72578Y130800D02*
X72256Y131686D01*
X71439Y132157D01*
X70511Y131993D01*
X69905Y131271D01*
Y130329D01*
X70511Y129607D01*
X71439Y129443D01*
X72256Y129914D01*
X72578Y130800D01*
X72078Y54300D02*
X71756Y55186D01*
X70939Y55657D01*
X70011Y55493D01*
X69405Y54771D01*
Y53829D01*
X70011Y53107D01*
X70939Y52943D01*
X71756Y53414D01*
X72078Y54300D01*
X73078Y208800D02*
X72756Y209686D01*
X71939Y210157D01*
X71011Y209993D01*
X70405Y209271D01*
Y208329D01*
X71011Y207607D01*
X71939Y207443D01*
X72756Y207914D01*
X73078Y208800D01*
X189098Y131176D02*
X220201D01*
Y153224D01*
X189098D02*
X220201D01*
X189098Y131176D02*
Y153224D01*
X204650Y140231D02*
Y144168D01*
X202681Y142200D02*
X206618D01*
X55649Y141824D02*
X86751D01*
X55649Y119776D02*
Y141824D01*
Y119776D02*
X86751D01*
Y141824D01*
X71200Y128832D02*
Y132769D01*
X69231Y130800D02*
X73168D01*
X55149Y65324D02*
X86251D01*
X55149Y43276D02*
Y65324D01*
Y43276D02*
X86251D01*
Y65324D01*
X70700Y52332D02*
Y56269D01*
X68731Y54300D02*
X72668D01*
X56149Y219824D02*
X87251D01*
X56149Y197776D02*
Y219824D01*
Y197776D02*
X87251D01*
Y219824D01*
X71700Y206832D02*
Y210769D01*
X69731Y208800D02*
X73668D01*
D107*
X195791Y132161D02*
X213508D01*
Y152239D01*
X195791D02*
X213508D01*
X195791Y132161D02*
Y152239D01*
X62342Y140839D02*
X80058D01*
X62342Y120761D02*
Y140839D01*
Y120761D02*
X80058D01*
Y140839D01*
X61842Y64339D02*
X79558D01*
X61842Y44261D02*
Y64339D01*
Y44261D02*
X79558D01*
Y64339D01*
X62842Y218839D02*
X80558D01*
X62842Y198761D02*
Y218839D01*
Y198761D02*
X80558D01*
Y218839D01*
M02*
