G04 Layer_Color=128*
%FSLAX25Y25*%
%MOIN*%
G70*
G01*
G75*
%ADD12R,0.05000X0.06000*%
%ADD13R,0.04000X0.05000*%
%ADD22R,0.07000X0.10000*%
%ADD23R,0.21850X0.29921*%
%ADD43C,0.08000*%
%ADD44R,0.09055X0.09055*%
G04:AMPARAMS|DCode=45|XSize=125.98mil|YSize=78.74mil|CornerRadius=0mil|HoleSize=0mil|Usage=FLASHONLY|Rotation=90.000|XOffset=0mil|YOffset=0mil|HoleType=Round|Shape=Octagon|*
%AMOCTAGOND45*
4,1,8,0.01968,0.06299,-0.01968,0.06299,-0.03937,0.04331,-0.03937,-0.04331,-0.01968,-0.06299,0.01968,-0.06299,0.03937,-0.04331,0.03937,0.04331,0.01968,0.06299,0.0*
%
%ADD45OCTAGOND45*%

%ADD46R,0.07874X0.12598*%
%ADD47R,0.09055X0.09055*%
%ADD48R,0.05000X0.04000*%
%ADD49R,0.06000X0.05000*%
%ADD50O,0.08858X0.02362*%
%ADD51O,0.05512X0.01575*%
%ADD52R,0.05512X0.01575*%
%ADD53O,0.08000X0.02362*%
%ADD54R,0.07874X0.11811*%
G36*
X108959Y43040D02*
X108871Y42904D01*
X108794Y42678D01*
X108727Y42361D01*
X108670Y41954D01*
X108588Y40867D01*
X108542Y38558D01*
X100542D01*
X100537Y39418D01*
X100357Y42361D01*
X100290Y42678D01*
X100213Y42904D01*
X100125Y43040D01*
X100027Y43085D01*
X109056D01*
X108959Y43040D01*
D02*
G37*
G36*
X407259Y44122D02*
X407171Y43932D01*
X407094Y43615D01*
X407027Y43170D01*
X406924Y41902D01*
X406847Y39047D01*
X406842Y37842D01*
X398842D01*
X398837Y39047D01*
X398513Y43932D01*
X398425Y44122D01*
X398327Y44185D01*
X407356D01*
X407259Y44122D01*
D02*
G37*
G36*
X284230Y51215D02*
X283155Y50106D01*
X281345Y48026D01*
X280609Y47055D01*
X279987Y46129D01*
X279478Y45249D01*
X279082Y44414D01*
X278799Y43626D01*
X278629Y42883D01*
X278573Y42185D01*
X278475Y42105D01*
X278387Y41865D01*
X278310Y41465D01*
X278243Y40905D01*
X278140Y39305D01*
X278058Y34185D01*
X270058D01*
X270053Y35705D01*
X269641Y42105D01*
X269544Y42185D01*
X278573D01*
X269544Y51215D01*
X270241Y51271D01*
X270984Y51441D01*
X271773Y51724D01*
X272607Y52120D01*
X273487Y52629D01*
X274413Y53251D01*
X275384Y53986D01*
X277464Y55797D01*
X278573Y56871D01*
X284230Y51215D01*
D02*
G37*
G36*
X183330Y52415D02*
X182255Y51306D01*
X180445Y49226D01*
X179709Y48255D01*
X179087Y47329D01*
X178578Y46449D01*
X178182Y45614D01*
X177899Y44826D01*
X177729Y44083D01*
X177673Y43385D01*
X168644Y52415D01*
X169341Y52471D01*
X170084Y52641D01*
X170873Y52924D01*
X171707Y53320D01*
X172587Y53829D01*
X173513Y54451D01*
X174484Y55186D01*
X176564Y56997D01*
X177673Y58071D01*
X183330Y52415D01*
D02*
G37*
G36*
X200488Y66452D02*
X199870Y66427D01*
X199263Y66351D01*
X198668Y66224D01*
X198085Y66047D01*
X197513Y65818D01*
X196953Y65539D01*
X196405Y65210D01*
X195869Y64829D01*
X195344Y64398D01*
X194831Y63916D01*
Y75230D01*
X195907Y76363D01*
X196871Y77495D01*
X197721Y78627D01*
X198457Y79759D01*
X199081Y80891D01*
X199591Y82022D01*
X199988Y83153D01*
X200272Y84283D01*
X200443Y85413D01*
X200500Y86543D01*
X200488Y66452D01*
D02*
G37*
G36*
X299688Y66652D02*
X294031Y61016D01*
Y72330D01*
X295107Y73462D01*
X296071Y74595D01*
X296920Y75727D01*
X297657Y76859D01*
X298281Y77991D01*
X298791Y79122D01*
X299188Y80253D01*
X299472Y81383D01*
X299642Y82513D01*
X299700Y83643D01*
X299688Y66652D01*
D02*
G37*
G36*
X111782Y67099D02*
X111102Y66859D01*
X110502Y66459D01*
X109982Y65899D01*
X109542Y65179D01*
X109182Y64299D01*
X108902Y63259D01*
X108702Y62059D01*
X108582Y60699D01*
X108545Y59286D01*
X108547Y58595D01*
X108959Y52195D01*
X109056Y52115D01*
X100027D01*
X100125Y52195D01*
X100213Y52435D01*
X100290Y52835D01*
X100357Y53395D01*
X100460Y54995D01*
X100542Y60115D01*
X100551D01*
X100557Y60699D01*
X100789Y64299D01*
X100928Y65179D01*
X101098Y65899D01*
X101299Y66459D01*
X101531Y66859D01*
X101794Y67099D01*
X102088Y67179D01*
X112542D01*
X111782Y67099D01*
D02*
G37*
D12*
X307300Y149400D02*
D03*
X295300D02*
D03*
X396400Y151600D02*
D03*
X384400D02*
D03*
X114700Y150600D02*
D03*
X102700D02*
D03*
X207300Y149600D02*
D03*
X195300D02*
D03*
D13*
X392200Y235000D02*
D03*
X400200D02*
D03*
X371700D02*
D03*
X363700D02*
D03*
X263700Y179700D02*
D03*
X255700D02*
D03*
X263700Y188700D02*
D03*
X255700D02*
D03*
X263700Y197700D02*
D03*
X255700D02*
D03*
X263700Y206700D02*
D03*
X255700D02*
D03*
X223700Y176200D02*
D03*
X231700D02*
D03*
X287800Y29900D02*
D03*
X295800D02*
D03*
X133000Y29200D02*
D03*
X141000D02*
D03*
D22*
X104024Y110300D02*
D03*
X121976D02*
D03*
X154624Y109573D02*
D03*
X172576D02*
D03*
X56247Y110300D02*
D03*
X74200D02*
D03*
X202424Y109573D02*
D03*
X220376D02*
D03*
X400824Y110273D02*
D03*
X418776D02*
D03*
X301624Y109773D02*
D03*
X319576D02*
D03*
X351024Y110273D02*
D03*
X368976D02*
D03*
X255024Y109773D02*
D03*
X272976D02*
D03*
D23*
X113000Y82127D02*
D03*
X163600Y81400D02*
D03*
X65224Y82127D02*
D03*
X211400Y81400D02*
D03*
X409800Y82100D02*
D03*
X310600Y81600D02*
D03*
X360000Y82100D02*
D03*
X264000Y81600D02*
D03*
D43*
X402842Y37842D02*
Y48700D01*
X381600Y16600D02*
X402842Y37842D01*
X300700Y16600D02*
X381600D01*
X274058Y23557D02*
X281015Y16600D01*
X274058Y23557D02*
Y46700D01*
X308958Y81600D01*
X173158Y42773D02*
Y47900D01*
X146585Y16200D02*
X173158Y42773D01*
Y47900D02*
X206658Y81400D01*
X104542Y38558D02*
X126900Y16200D01*
X104542Y38558D02*
Y47600D01*
Y73669D01*
D44*
X221058Y47600D02*
D03*
X203342D02*
D03*
X173158Y47900D02*
D03*
X155442D02*
D03*
X420558Y48700D02*
D03*
X402842D02*
D03*
X370458Y48300D02*
D03*
X352742D02*
D03*
X321058Y46700D02*
D03*
X303342D02*
D03*
X122258Y47600D02*
D03*
X104542D02*
D03*
X73358Y48000D02*
D03*
X55642D02*
D03*
X274058Y46700D02*
D03*
X256342D02*
D03*
D45*
X429900Y204600D02*
D03*
D46*
Y183600D02*
D03*
D47*
X349700Y209742D02*
D03*
Y227458D02*
D03*
D48*
X406700Y217500D02*
D03*
Y225500D02*
D03*
Y201500D02*
D03*
Y209500D02*
D03*
X363700Y222500D02*
D03*
Y214500D02*
D03*
X252700Y125100D02*
D03*
Y133100D02*
D03*
X271200Y133076D02*
D03*
Y125076D02*
D03*
X261600Y133100D02*
D03*
Y125100D02*
D03*
X357100Y125676D02*
D03*
Y133676D02*
D03*
X348100Y133576D02*
D03*
Y125576D02*
D03*
X366100Y133576D02*
D03*
Y125576D02*
D03*
X57100Y125500D02*
D03*
Y133500D02*
D03*
X66900Y132500D02*
D03*
Y124500D02*
D03*
X77300Y132500D02*
D03*
Y124500D02*
D03*
X153300D02*
D03*
Y132500D02*
D03*
X162900Y132900D02*
D03*
Y124900D02*
D03*
X171900Y133076D02*
D03*
Y125076D02*
D03*
D49*
X335100Y224700D02*
D03*
Y212700D02*
D03*
X422700Y222000D02*
D03*
Y234000D02*
D03*
X321600Y137600D02*
D03*
Y125600D02*
D03*
X419500Y138200D02*
D03*
Y126200D02*
D03*
X124200Y140000D02*
D03*
Y128000D02*
D03*
X219700Y138000D02*
D03*
Y126000D02*
D03*
D50*
X394149Y223500D02*
D03*
Y218500D02*
D03*
Y213500D02*
D03*
Y208500D02*
D03*
X375251Y223500D02*
D03*
Y218500D02*
D03*
Y213500D02*
D03*
Y208500D02*
D03*
D51*
X208200Y195436D02*
D03*
Y203113D02*
D03*
Y205672D02*
D03*
X233003Y197995D02*
D03*
Y205672D02*
D03*
Y208232D02*
D03*
Y200554D02*
D03*
Y203113D02*
D03*
X208200Y208232D02*
D03*
X233003Y187759D02*
D03*
X208200Y192877D02*
D03*
X233003Y195436D02*
D03*
X208200Y197995D02*
D03*
Y200554D02*
D03*
Y187759D02*
D03*
X233003Y190318D02*
D03*
X208200D02*
D03*
X233003Y192877D02*
D03*
Y185200D02*
D03*
D52*
X208200D02*
D03*
D53*
X304400Y140300D02*
D03*
Y135300D02*
D03*
Y130300D02*
D03*
Y125300D02*
D03*
X285000Y140300D02*
D03*
Y135300D02*
D03*
Y130300D02*
D03*
Y125300D02*
D03*
X398300Y140800D02*
D03*
Y135800D02*
D03*
Y130800D02*
D03*
Y125800D02*
D03*
X378900Y140800D02*
D03*
Y135800D02*
D03*
Y130800D02*
D03*
Y125800D02*
D03*
X110100Y141500D02*
D03*
Y136500D02*
D03*
Y131500D02*
D03*
Y126500D02*
D03*
X90700Y141500D02*
D03*
Y136500D02*
D03*
Y131500D02*
D03*
Y126500D02*
D03*
X206300Y140300D02*
D03*
Y135300D02*
D03*
Y130300D02*
D03*
Y125300D02*
D03*
X186900Y140300D02*
D03*
Y135300D02*
D03*
Y130300D02*
D03*
Y125300D02*
D03*
D54*
X371500Y182900D02*
D03*
X395500D02*
D03*
M02*
