G04 Layer_Color=8421504*
%FSLAX25Y25*%
%MOIN*%
G70*
G01*
G75*
%ADD10O,0.04016X0.14567*%
%ADD11R,0.03500X0.03000*%
%ADD12R,0.05000X0.06000*%
%ADD13R,0.04000X0.05000*%
G04:AMPARAMS|DCode=14|XSize=125.98mil|YSize=78.74mil|CornerRadius=0mil|HoleSize=0mil|Usage=FLASHONLY|Rotation=180.000|XOffset=0mil|YOffset=0mil|HoleType=Round|Shape=Octagon|*
%AMOCTAGOND14*
4,1,8,-0.06299,0.01968,-0.06299,-0.01968,-0.04331,-0.03937,0.04331,-0.03937,0.06299,-0.01968,0.06299,0.01968,0.04331,0.03937,-0.04331,0.03937,-0.06299,0.01968,0.0*
%
%ADD14OCTAGOND14*%

%ADD15R,0.12598X0.07874*%
%ADD16R,0.03000X0.03500*%
%ADD17O,0.14567X0.04528*%
%ADD18R,0.07874X0.07874*%
%ADD19R,0.04724X0.03937*%
%ADD20O,0.05905X0.01772*%
%ADD21R,0.03000X0.02500*%
%ADD22R,0.07000X0.10000*%
%ADD23R,0.21850X0.29921*%
D10*
X233961Y82139D02*
D03*
X213961D02*
D03*
X203961D02*
D03*
X193961D02*
D03*
X183961D02*
D03*
X173961D02*
D03*
X163961D02*
D03*
X153961D02*
D03*
X233961Y103639D02*
D03*
X213961D02*
D03*
X203961D02*
D03*
X193961D02*
D03*
X183961D02*
D03*
X173961D02*
D03*
X143961Y82139D02*
D03*
X133961D02*
D03*
X163961Y103639D02*
D03*
X153961D02*
D03*
X143961D02*
D03*
X133961D02*
D03*
X223961D02*
D03*
Y82139D02*
D03*
Y192189D02*
D03*
Y213689D02*
D03*
X133961D02*
D03*
X143961D02*
D03*
X153961D02*
D03*
X163961D02*
D03*
X133961Y192189D02*
D03*
X143961D02*
D03*
X173961Y213689D02*
D03*
X183961D02*
D03*
X193961D02*
D03*
X203961D02*
D03*
X213961D02*
D03*
X233961D02*
D03*
X153961Y192189D02*
D03*
X163961D02*
D03*
X173961D02*
D03*
X183961D02*
D03*
X193961D02*
D03*
X203961D02*
D03*
X213961D02*
D03*
X233961D02*
D03*
X243961Y103639D02*
D03*
X253961D02*
D03*
X263961D02*
D03*
X273961D02*
D03*
X243961Y82139D02*
D03*
X253961D02*
D03*
X283961Y103639D02*
D03*
X293961D02*
D03*
X303961D02*
D03*
X263961Y82139D02*
D03*
X273961D02*
D03*
X283961D02*
D03*
X293961D02*
D03*
X303961D02*
D03*
Y192189D02*
D03*
X293961D02*
D03*
X283961D02*
D03*
X273961D02*
D03*
X263961D02*
D03*
X303961Y213689D02*
D03*
X293961D02*
D03*
X283961D02*
D03*
X253961Y192189D02*
D03*
X243961D02*
D03*
X273961Y213689D02*
D03*
X263961D02*
D03*
X253961D02*
D03*
X243961D02*
D03*
X342418Y133600D02*
D03*
X352300D02*
D03*
X362300D02*
D03*
X372300D02*
D03*
X382300D02*
D03*
X392300D02*
D03*
X402300D02*
D03*
X412300D02*
D03*
X342300Y112100D02*
D03*
X352300D02*
D03*
X362300D02*
D03*
X372300D02*
D03*
X382300D02*
D03*
X392300D02*
D03*
X422300Y133600D02*
D03*
X432300D02*
D03*
X402300Y112100D02*
D03*
X412300D02*
D03*
X422300D02*
D03*
X432300D02*
D03*
D11*
X200900Y158500D02*
D03*
Y164900D02*
D03*
X214650D02*
D03*
Y158500D02*
D03*
X207816Y164900D02*
D03*
Y158500D02*
D03*
X194150Y164900D02*
D03*
Y158500D02*
D03*
X256350Y148200D02*
D03*
Y141800D02*
D03*
X249350Y148200D02*
D03*
Y141800D02*
D03*
X114700Y121100D02*
D03*
Y127500D02*
D03*
X108200Y121300D02*
D03*
Y127700D02*
D03*
X58700Y102500D02*
D03*
Y96100D02*
D03*
X84700Y102500D02*
D03*
Y96100D02*
D03*
X107200Y44600D02*
D03*
Y51000D02*
D03*
X114700Y44600D02*
D03*
Y51000D02*
D03*
X78200Y102500D02*
D03*
Y96100D02*
D03*
X91200D02*
D03*
Y102500D02*
D03*
X71700Y96100D02*
D03*
Y102500D02*
D03*
X95200Y127500D02*
D03*
Y121100D02*
D03*
X101700Y127500D02*
D03*
Y121100D02*
D03*
X55400Y10800D02*
D03*
Y4400D02*
D03*
X83900Y10800D02*
D03*
Y4400D02*
D03*
X35200Y121100D02*
D03*
Y127500D02*
D03*
X41700Y121100D02*
D03*
Y127500D02*
D03*
X48200Y121100D02*
D03*
Y127500D02*
D03*
X76400Y10800D02*
D03*
Y4400D02*
D03*
X90900D02*
D03*
Y10800D02*
D03*
X69400Y4400D02*
D03*
Y10800D02*
D03*
X100200Y51000D02*
D03*
Y44600D02*
D03*
X93200Y51000D02*
D03*
Y44600D02*
D03*
X114700Y142000D02*
D03*
Y135600D02*
D03*
X108200Y142000D02*
D03*
Y135600D02*
D03*
X48200Y44600D02*
D03*
Y51000D02*
D03*
X35200Y44600D02*
D03*
Y51000D02*
D03*
X41700Y44600D02*
D03*
Y51000D02*
D03*
X58700Y159100D02*
D03*
Y165500D02*
D03*
X84700Y159100D02*
D03*
Y165500D02*
D03*
X114700Y65500D02*
D03*
Y59100D02*
D03*
X107200Y65500D02*
D03*
Y59100D02*
D03*
X78200Y159100D02*
D03*
Y165500D02*
D03*
X91200Y159100D02*
D03*
Y165500D02*
D03*
X71700D02*
D03*
Y159100D02*
D03*
X95200Y135600D02*
D03*
Y142000D02*
D03*
X101700Y135600D02*
D03*
Y142000D02*
D03*
X58200Y82100D02*
D03*
Y88500D02*
D03*
X84200Y82100D02*
D03*
Y88500D02*
D03*
X41700Y140000D02*
D03*
Y133600D02*
D03*
X35200Y140000D02*
D03*
Y133600D02*
D03*
X48200Y140000D02*
D03*
Y133600D02*
D03*
X77700Y82100D02*
D03*
Y88500D02*
D03*
X91200D02*
D03*
Y82100D02*
D03*
X71200Y88500D02*
D03*
Y82100D02*
D03*
X93200Y59100D02*
D03*
Y65500D02*
D03*
X100200Y59100D02*
D03*
Y65500D02*
D03*
X48200Y63500D02*
D03*
Y57100D02*
D03*
X41700Y63500D02*
D03*
Y57100D02*
D03*
X35200Y63500D02*
D03*
Y57100D02*
D03*
X107200Y198600D02*
D03*
Y205000D02*
D03*
X113700Y198600D02*
D03*
Y205000D02*
D03*
Y219400D02*
D03*
Y213000D02*
D03*
X107200Y219400D02*
D03*
Y213000D02*
D03*
X58500Y179500D02*
D03*
Y173100D02*
D03*
X84700Y179500D02*
D03*
Y173100D02*
D03*
X78200Y179500D02*
D03*
Y173100D02*
D03*
X58200Y237500D02*
D03*
Y243900D02*
D03*
X84100Y237700D02*
D03*
Y244100D02*
D03*
X91200Y179500D02*
D03*
Y173100D02*
D03*
X71700D02*
D03*
Y179500D02*
D03*
X100700Y205000D02*
D03*
Y198600D02*
D03*
X94200Y205000D02*
D03*
Y198600D02*
D03*
X77700Y237600D02*
D03*
Y244000D02*
D03*
X90600Y244200D02*
D03*
Y237800D02*
D03*
X71200Y244000D02*
D03*
Y237600D02*
D03*
X36200Y198600D02*
D03*
Y205000D02*
D03*
X42700Y198600D02*
D03*
Y205000D02*
D03*
X49200Y198600D02*
D03*
Y205000D02*
D03*
Y218500D02*
D03*
Y212100D02*
D03*
X94200Y213000D02*
D03*
Y219400D02*
D03*
X100700Y213000D02*
D03*
Y219400D02*
D03*
X42700Y218500D02*
D03*
Y212100D02*
D03*
X36200Y218500D02*
D03*
Y212100D02*
D03*
X210300Y10300D02*
D03*
Y16700D02*
D03*
X262800Y11200D02*
D03*
Y17600D02*
D03*
D12*
X339000Y165400D02*
D03*
X351000D02*
D03*
Y187600D02*
D03*
X339000D02*
D03*
D13*
X406900Y153900D02*
D03*
X398900D02*
D03*
X381900D02*
D03*
X373900D02*
D03*
X346400Y177100D02*
D03*
X338400D02*
D03*
X346400Y199300D02*
D03*
X338400D02*
D03*
X346400Y210400D02*
D03*
X338400D02*
D03*
D14*
X408400Y177400D02*
D03*
X391900Y176900D02*
D03*
X356400Y231900D02*
D03*
D15*
X429400Y177400D02*
D03*
X370900Y176900D02*
D03*
X335400Y231900D02*
D03*
D16*
X201450Y127200D02*
D03*
X207850D02*
D03*
X398800Y45500D02*
D03*
X405200D02*
D03*
X374749D02*
D03*
X381149D02*
D03*
X350698D02*
D03*
X357098D02*
D03*
X242550Y134500D02*
D03*
X236150D02*
D03*
X326647Y45500D02*
D03*
X333047D02*
D03*
X27400Y126300D02*
D03*
X21000D02*
D03*
X27400Y48800D02*
D03*
X21000D02*
D03*
X27400Y134300D02*
D03*
X21000D02*
D03*
X27400Y56800D02*
D03*
X21000D02*
D03*
X27400Y205800D02*
D03*
X21000D02*
D03*
X27400Y213300D02*
D03*
X21000D02*
D03*
D17*
X482939Y85500D02*
D03*
X450261D02*
D03*
X482939Y115500D02*
D03*
X450261D02*
D03*
X482939Y105500D02*
D03*
X450261D02*
D03*
Y95500D02*
D03*
X482939D02*
D03*
Y36100D02*
D03*
X450261D02*
D03*
X482939Y66100D02*
D03*
X450261D02*
D03*
X482939Y56100D02*
D03*
X450261D02*
D03*
Y46100D02*
D03*
X482939D02*
D03*
D18*
X401653Y9441D02*
D03*
Y37000D02*
D03*
X377602Y9441D02*
D03*
Y37000D02*
D03*
X353551Y9441D02*
D03*
Y37000D02*
D03*
X329500Y9441D02*
D03*
Y37000D02*
D03*
D19*
X242476Y141260D02*
D03*
Y148740D02*
D03*
X233224Y145000D02*
D03*
D20*
X193035Y149877D02*
D03*
Y147318D02*
D03*
Y144759D02*
D03*
Y142200D02*
D03*
Y139641D02*
D03*
Y137082D02*
D03*
Y134523D02*
D03*
X216264D02*
D03*
Y137082D02*
D03*
Y139641D02*
D03*
Y142200D02*
D03*
Y144759D02*
D03*
Y147318D02*
D03*
Y149877D02*
D03*
X82814Y123123D02*
D03*
Y125682D02*
D03*
Y128241D02*
D03*
Y130800D02*
D03*
Y133359D02*
D03*
Y135918D02*
D03*
Y138477D02*
D03*
X59586D02*
D03*
Y135918D02*
D03*
Y133359D02*
D03*
Y130800D02*
D03*
Y128241D02*
D03*
Y125682D02*
D03*
Y123123D02*
D03*
X82314Y46623D02*
D03*
Y49182D02*
D03*
Y51741D02*
D03*
Y54300D02*
D03*
Y56859D02*
D03*
Y59418D02*
D03*
Y61977D02*
D03*
X59086D02*
D03*
Y59418D02*
D03*
Y56859D02*
D03*
Y54300D02*
D03*
Y51741D02*
D03*
Y49182D02*
D03*
Y46623D02*
D03*
X83314Y201123D02*
D03*
Y203682D02*
D03*
Y206241D02*
D03*
Y208800D02*
D03*
Y211359D02*
D03*
Y213918D02*
D03*
Y216477D02*
D03*
X60086D02*
D03*
Y213918D02*
D03*
Y211359D02*
D03*
Y208800D02*
D03*
Y206241D02*
D03*
Y203682D02*
D03*
Y201123D02*
D03*
D21*
X65200Y96500D02*
D03*
Y102100D02*
D03*
X52200Y96500D02*
D03*
Y102100D02*
D03*
X62400Y4800D02*
D03*
Y10400D02*
D03*
X48400Y4800D02*
D03*
Y10400D02*
D03*
X65200Y165100D02*
D03*
Y159500D02*
D03*
X52200Y165100D02*
D03*
Y159500D02*
D03*
X64700Y88100D02*
D03*
Y82500D02*
D03*
X51700Y88100D02*
D03*
Y82500D02*
D03*
X65000Y173500D02*
D03*
Y179100D02*
D03*
X52000Y173500D02*
D03*
Y179100D02*
D03*
X64600Y243600D02*
D03*
Y238000D02*
D03*
X51700Y238100D02*
D03*
Y243700D02*
D03*
D22*
X407924Y204227D02*
D03*
X425876D02*
D03*
X372924D02*
D03*
X390876D02*
D03*
D23*
X416900Y232400D02*
D03*
X381900D02*
D03*
M02*
