M48
;Layer_Color=9474304
;FILE_FORMAT=2:5
INCH,LZ
;TYPE=PLATED
T1F00S00C0.01000
T2F00S00C0.02000
T3F00S00C0.02756
T4F00S00C0.02800
T5F00S00C0.03000
T6F00S00C0.03543
T8F00S00C0.06693
T9F00S00C0.12598
%
T01
X0044Y00073
X00509Y00208
X00388Y00408
X00319Y00413
X0045Y00478
X0065Y00554
X00874Y00543
X00964Y00414
X01114Y00479
X01204Y00559
X00995Y00108
X00955Y00068
X00729Y00044
X02704Y00541
X03287Y00504
X0337647Y00501
X03448Y00421
X03695Y00405
X03927Y00411
X04095Y00095
X04374Y00876
X04379Y00956
X04386Y01036
X044Y01117
X04317Y01579
X03899Y01556
X03332Y01648
X0327Y01647
X03266Y0169
X03175Y01703
X03112Y01713
X03141Y01746
X02959
X02887Y01877
X02787Y01892
X0279Y02106
X02702Y02047
X02596Y01955
X02598Y01842
X02464Y01817
X0241Y01825
X02308Y01813
X02238Y01814
X02178Y01827
Y01698
X02254Y01617
X02324
X02379Y01529
X02449Y01535
X02505Y01546
X02552Y01542
X02505Y01614
X0248Y01698
X02533Y01705
X02642Y017
X02673Y01619
X02727Y0153
X0279Y01537
X02945Y01352
X02963Y01306
X0292Y01238
X0289Y01054
X02986Y01
X02883Y00857
X02793Y00867
X028Y00736
X02691Y01001
X02461Y00927
X0249Y00864
X0229
X02295Y00933
X02292Y00995
X02293Y0106
X02281Y01104
X02298Y01161
X02346Y01242
X02374Y01262
X02396Y01283
X02418Y01304
X02468Y01314
X0237Y01397
X023305Y01376
X02256Y0133
X0222Y01328
X02181Y01317
X02142Y01285
X02151Y01526
X0223Y01451
X02189Y00993
X02273Y00722
X02316Y00726
X03287Y00733
Y00868
X0334Y0092
X03358Y01132
X03329Y01178
X03275Y01326
X03424Y01811
X03088Y01921
X02499Y02021
X0228354Y0200554
X0202887Y0203113
X01945Y02026
X01884Y02051
X01991Y0197
X0194Y01818
X01894Y0182
X01831Y01819
X01879Y0163
X0191Y01615
X01976Y01621
X01982Y0169
X02038Y01711
X02037Y01547
X01916Y01544
X01879Y0153
X01878Y01478
X0182Y01467
X01977Y01422
X0198118Y0137082
X01977Y01272
X01906Y0114
X01889Y01058
X01793Y00915
X01787Y00786
X01738Y00605
X01454Y0062
X01298Y00563
X0111Y00623
X00962Y00685
X00874Y00853
X00986Y01179
X01048Y01211
X0105Y01391
X01048Y01456
X00982Y0145
X01086Y01522
X00957Y01655
X00956Y01731
X00972Y01956
X0104Y01986
X01104Y02049
X0089Y02036
X00891Y02101
X00764Y02112
X00669Y0203
X00814Y01623
X00771Y01285
X00655Y01285
X01179Y01315
X01242Y01337
X0158Y01209
X01622Y01155
X01474Y00937
X01483Y01817
X01536Y01796
X01417Y01809
X01346Y01799
X01486Y02105
X0176Y01635
X02097Y01819
X00544Y01836
X0052Y01693
X00562Y01533
X00533Y01381
X00511Y01243
X00381Y01175
X00316Y01176
X00466Y01072
X00522Y00915
X00471Y00748
X00386Y00675
X00324
X0045Y00605
X00387Y01439
X00323Y01437
X00327Y01951
X00399Y01946
X00545Y02008
X00544Y0216
X00397Y02223
X00331Y0222
X00474Y02402
X00582Y02337
X00816Y02479
X01043Y02378
X01038Y02194
X00984Y02236
X00886Y0214
X01779Y02385
X0183Y02374
X01913Y02285
X02092Y02171
X023Y02225
X0251Y02263
X02689Y02126
X02984Y02193
X0302Y02263
X0305228Y02285
X03091Y02149
X03141Y02144
X03175Y0216228
X02853Y02492
X02438Y02524
T02
X01334Y00476
X02162Y00353
X03171Y00338
X04153Y01474
X04449Y01272
X0326097Y0116197
X030195Y015445
X02592Y01701
X0259Y02122
X02243Y01581
X01577Y01284
X01447Y01155
X01309Y01163
X01335Y01207
X00968Y0104
X01136Y01582
X01294Y00623
X03278Y02247
T03
X00057Y00308
X00157Y00408
Y00208
X02843Y01495
Y01695
X00262Y01533
X00162Y01433
Y01633
X00157Y01778
Y01978
X00057Y01878
X00157Y01178
X00057Y01078
X00157Y00978
X00162Y00848
Y00648
X00262Y00748
X00162Y02208
X00262Y02308
X00162Y02408
T04
X02562Y00475
X03997Y01962
X03663Y0197603
X03594Y01654
X03609Y00795
X03675Y00792
X03535Y00794
X02563Y0063
X02561Y00569
X01704Y00698
X01641Y00701
X01571
X0073Y00697
X00733Y00762
X0066Y00761
X00658Y00697
X00583Y00699
T05
X0482939Y0027361
T06
X01731Y00112
Y00212
X01831
Y00112
X01931
Y00212
X0227
Y00112
X0237
Y00212
X0247
Y00112
X0459315Y0203702
X0469157
X0479
X01939Y02669
X01839
X01739
X01639
X01539
X01439
X01339
X01239
X01139
X01039
X00939
X00839
X02139Y02676
Y02576
Y02476
Y02376
X02342Y02378
Y02478
Y02578
Y02678
X02568
Y02578
Y02478
Y02378
X02816Y02333
Y02433
X02916
Y02333
X03016
Y02433
X03116
Y02333
X03118Y02569
X03018
X02918
X02818
Y02669
X02918
X03018
X03118
X03265Y02666
X03365
X03465
X03565
X0459315Y02163
X0469157
X0479
T08
X01269Y00162
X0146585
X0281015Y00166
X03007
X04781Y0240915
Y02606
T09
X0066929Y0027559
X0425197
X0066929Y0263779
X0425197
M30
